<svg width="279" height="87" viewBox="0 0 279 87" fill="none" xmlns="http://www.w3.org/2000/svg">
<g clip-path="url(#clip0_421_800)">
<g opacity="0.5">
<path d="M238.027 19.8783C243.595 20.9772 249.037 22.4642 254.292 24.3229C259.715 26.196 264.785 28.6853 269.349 31.7164C270.507 32.5175 271.612 33.3677 272.66 34.2633L273.06 34.5974L273.472 34.9995L274.285 35.8116C274.809 36.3635 275.24 36.9766 275.703 37.5643C277.344 40.0098 278.166 42.763 278.087 45.5482C278.008 48.3334 277.031 51.0528 275.253 53.4341L274.932 53.8784L274.562 54.2977L273.814 55.1304C273.274 55.6577 272.701 56.1677 272.108 56.6533L271.158 57.3346C270.849 57.5675 270.519 57.7809 270.17 57.9731C269.526 58.3574 268.859 58.7148 268.17 59.044C257.765 64.116 246.411 67.5669 235.059 70.2677C227.476 72.0868 219.816 73.547 212.173 74.8914C208.351 75.5658 204.527 76.1867 200.704 76.837C196.877 77.4692 193.036 78.0542 189.203 78.6653C173.845 81.0155 158.372 82.9714 142.799 84.3595C127.206 85.7829 111.53 86.5162 95.8396 86.5561C80.1032 86.5957 64.3834 85.7191 48.8008 83.9331C47.5962 83.8227 46.4051 83.6309 45.2077 83.4757L41.6212 82.9802C39.23 82.641 36.8433 82.3367 34.4493 81.9249C29.5473 81.167 24.7335 80.0712 20.06 78.6494C17.6628 77.893 15.3412 76.987 13.1158 75.9393C12.5562 75.6723 11.9966 75.4058 11.4548 75.1096C10.885 74.8259 10.3366 74.5148 9.81257 74.1778L8.1705 73.1209C7.6596 72.7336 7.17504 72.3203 6.68139 71.9174C6.18549 71.5152 5.73046 71.0809 5.32075 70.6189C4.87316 70.181 4.46549 69.7172 4.10099 69.2311C3.74132 68.7428 3.37502 68.2573 3.03247 67.7624L2.17124 66.2091C1.14085 64.1037 0.557891 61.8713 0.447275 59.6071C0.39816 57.3488 0.811379 55.0996 1.67001 52.9515C2.55432 50.8058 3.90318 48.806 5.65293 47.0464L7.0185 45.7691C7.51778 45.3806 8.03602 45.0072 8.54838 44.6292C8.80118 44.4505 9.07294 44.2329 9.3112 44.0881L10.0346 43.6331L11.4815 42.7233C12.4484 42.1197 13.4048 41.5038 14.3815 40.911L17.3483 39.1737C21.3008 36.8529 25.4037 34.7146 29.5464 32.6363C31.6455 31.6361 33.7382 30.6252 35.8607 29.6599L39.0668 28.2454L40.6698 27.5384L42.2961 26.8686C50.9486 23.2784 59.8631 20.1222 68.9896 17.4175C78.1023 14.7301 87.3861 12.4431 96.8009 10.5666C115.608 6.80952 134.776 4.52109 153.974 3.14599C165.561 2.3022 177.292 1.97093 188.746 1.82459C199.72 1.6981 206.822 2.16142 211.224 2.80443C214.428 3.27274 214.419 3.79074 211.675 4.24831C208.931 4.70587 203.452 5.09157 195.717 5.39376C185.929 5.77144 175.243 6.1442 165.152 6.65943C141.931 7.84857 118.8 10.2689 96.3847 15.0049C74.0119 19.7411 52.3232 26.785 32.7954 36.679C27.4275 39.4284 22.1335 42.4507 17.0562 45.6318C15.7993 46.4397 14.5452 47.2457 13.294 48.0498C12.7215 48.4438 12.2727 48.8142 11.749 49.1884C11.2656 49.5787 10.8599 50.0239 10.4029 50.43C8.74287 52.1511 7.60235 54.1648 7.07291 56.3094C6.67834 58.0076 6.6585 59.7495 7.01432 61.4534L7.166 62.0888C7.20369 62.3025 7.26503 62.5129 7.34928 62.7176L7.82613 63.9516L8.47437 65.1302L8.63547 65.4256L8.84194 65.7009L9.25078 66.2536C9.38831 66.437 9.51572 66.6263 9.65912 66.8067L10.1492 67.3137C10.4541 67.6655 10.7928 67.9971 11.1622 68.3053L12.2813 69.2239L13.5409 70.023C13.9808 70.3075 14.4436 70.5678 14.9261 70.8023C15.404 71.0644 15.9126 71.2932 16.4113 71.5329C17.4162 72.0047 18.4616 72.4288 19.5204 72.8367C23.9187 74.4009 28.5129 75.5719 33.2222 76.329C38.0051 77.1849 42.9731 77.7059 47.8516 78.3943C50.305 78.6988 52.7759 78.9134 55.2371 79.1773L58.9322 79.5559C60.1661 79.667 61.4054 79.7428 62.6416 79.8382L70.063 80.3798L77.5044 80.7264C78.745 80.7771 79.9831 80.8604 81.2253 80.8847L84.9514 80.9663C87.4358 81.0085 89.9176 81.1061 92.4027 81.1074C97.3731 81.0988 102.341 81.145 107.309 80.9974C136.861 80.4111 166.426 76.896 195.597 72.3289C208.605 70.2411 221.635 68.178 234.208 65.1821C240.476 63.7064 246.621 61.9076 252.608 59.7967C254.077 59.2395 255.572 58.7202 257.008 58.1141C257.73 57.818 258.46 57.5319 259.177 57.2277L261.305 56.285C262.022 55.9791 262.716 55.6453 263.406 55.3062C264.09 54.9714 264.812 54.6341 265.466 54.302C266.039 53.9986 266.584 53.6617 267.096 53.2941C267.36 53.1178 267.61 52.9292 267.847 52.7292L268.532 52.111C270.287 50.3782 271.333 48.2427 271.523 46.003C271.625 44.8921 271.502 43.775 271.156 42.6969C271.115 42.5626 271.086 42.4251 271.037 42.2926L270.863 41.9026C270.738 41.6456 270.657 41.3731 270.504 41.1264L270.054 40.3815C269.897 40.1357 269.721 39.8986 269.526 39.6715C269.157 39.203 268.746 38.7578 268.294 38.3398C267.787 37.9011 267.239 37.4466 266.695 37.012C265.561 36.1482 264.367 35.3383 263.118 34.5862C260.559 33.0639 257.841 31.7249 254.997 30.5842C249.176 28.2857 243.077 26.4852 236.798 25.2115C230.393 23.876 223.951 22.6572 217.474 21.555C207.138 19.8107 197.06 18.2454 187.351 16.9033C182.498 16.223 177.737 15.6029 173.087 15.0195C168.441 14.4096 163.898 13.8884 159.485 13.3839C155.424 12.9414 153.537 12.5049 153.86 12.1722C154.182 11.854 156.721 11.5972 161.498 11.6745C175.457 11.8953 189.386 12.7996 203.211 14.3825C208.975 15.011 214.774 15.8776 220.572 16.823C226.368 17.7762 232.161 18.8311 237.896 19.9547C237.938 19.928 237.977 19.904 238.027 19.8783Z" fill="#1C50D8"/>
</g>
</g>
<defs>
<clipPath id="clip0_421_800">
<rect width="279" height="87" fill="white"/>
</clipPath>
</defs>
</svg>
