<svg width="63" height="42" viewBox="0 0 63 42" fill="none" xmlns="http://www.w3.org/2000/svg">
<g clip-path="url(#clip0_419_775)">
<path d="M46.2967 0.392268L45.8382 0.472646C44.6295 0.713784 43.7126 1.67834 43.5459 2.84384C43.5459 2.92422 43.5459 3.00459 43.5459 3.04478C43.5459 3.16535 43.5459 3.28592 43.5459 3.40649C43.5876 4.33085 44.1294 5.25521 44.7962 5.89825L49.4225 10.3593L54.0905 5.85806C54.8407 5.05427 55.4242 4.04953 55.2575 2.88403C55.0907 1.71853 54.2572 0.794163 53.1319 0.472646C52.0066 0.151129 50.3811 0.753974 49.4225 1.63815C48.7557 0.995112 47.8804 0.432456 46.8802 0.311887C45.8799 0.191318 46.7134 0.311887 46.6718 0.311887H46.3383L46.2967 0.392268Z" fill="#1C50D8"/>
<path d="M10.5369 0.392268L10.0784 0.472646C8.86976 0.713784 7.95285 1.67834 7.78613 2.84384C7.78613 2.92422 7.78613 3.00459 7.78613 3.04478C7.78613 3.16535 7.78613 3.28592 7.78613 3.40649C7.82781 4.33085 8.36963 5.25521 9.03648 5.89825L13.6628 10.3593L18.3307 5.85806C19.0809 5.05427 19.6644 4.04953 19.4977 2.88403C19.331 1.71853 18.4974 0.794163 17.3721 0.472646C15.9134 0.0707497 14.6213 0.753974 13.6628 1.63815C12.9959 0.995112 12.1207 0.432456 11.1204 0.311887C10.1201 0.191318 10.9537 0.311887 10.912 0.311887H10.5786L10.5369 0.392268Z" fill="#211F20"/>
<path d="M63.0922 15.4634H35.668V23.3807H63.0922V15.4634Z" fill="#211F20"/>
<path d="M27.3324 15.4634H17.7465H9.53586H-0.0917969V23.3807H9.53586V41.9082H17.7465V23.3807H27.3324V15.4634Z" fill="#1C50D8"/>
</g>
<defs>
<clipPath id="clip0_419_775">
<rect width="63" height="42" fill="white"/>
</clipPath>
</defs>
</svg>
