<svg width="154" height="155" viewBox="0 0 154 155" fill="none" xmlns="http://www.w3.org/2000/svg">
<g clip-path="url(#clip0_2070_21206)">
<path d="M24.4518 63.6403C24.0171 63.2 23.7413 62.5331 23.6401 61.9549C23.4867 61.3063 23.5782 60.6943 23.74 60.0302C23.9722 59.3141 24.3788 58.6867 24.9415 58.2703C25.5043 57.8538 26.1712 57.5781 26.8718 57.4951L26.4778 58.8753C26.0923 58.9428 25.6886 59.1327 25.4072 59.3409C25.1258 59.5491 24.8782 59.9501 24.753 60.3693C24.5574 60.8406 24.5546 61.2782 24.6741 61.734C24.7937 62.1898 24.9316 62.5233 25.3142 62.8933C25.6969 63.2633 26.0458 63.4406 26.5171 63.6362C27.0587 63.7797 27.5483 63.8528 27.9338 63.7853C28.3193 63.7178 28.7934 63.4758 29.0748 63.2676C29.3562 63.0594 29.6742 62.6064 29.7994 62.1871C29.9246 61.7679 29.9795 61.4007 29.912 61.0152C29.8445 60.6297 29.6362 60.3483 29.376 59.9966L29.7699 58.6165C30.3271 59.0751 30.7435 59.6379 30.8785 60.4089C31.0839 61.1278 31.0445 61.8101 30.742 62.5783C30.5802 63.2423 30.1919 63.7474 29.6812 64.2342C29.1705 64.7209 28.626 65.015 28.0478 65.1162C27.4695 65.2175 26.7168 65.2302 26.0711 64.9459C25.4253 64.6617 24.8162 64.1327 24.4518 63.6403Z" fill="#F3F3F4"/>
<path d="M34.8854 52.436C34.4113 52.678 33.9554 52.7976 33.4658 52.7244C32.9059 52.7033 32.4346 52.5077 31.9816 52.1897C31.5286 51.8718 31.1459 51.5018 30.9039 51.0276C30.662 50.5535 30.5424 50.0977 30.5635 49.5377C30.6367 49.0481 30.7802 48.5065 31.0982 48.0535C31.3458 47.6525 31.7158 47.2699 32.1196 47.0799C32.5937 46.838 33.0495 46.7184 33.6095 46.7395C34.1694 46.7606 34.6407 46.9562 35.1641 47.2221C35.6171 47.5401 35.9997 47.9101 36.2417 48.3842C36.4837 48.8584 36.6033 49.3142 36.5821 49.8741C36.561 50.4341 36.3655 50.9054 36.0475 51.3584C35.7295 51.8114 35.3595 52.194 34.8854 52.436ZM35.444 49.9543C35.4285 49.6391 35.413 49.324 35.2048 49.0426C35.067 48.7092 34.7884 48.4799 34.4395 48.3026C34.0906 48.1253 33.7417 47.948 33.4266 47.9635C33.1114 47.979 32.7963 47.9944 32.5149 48.2026C32.3039 48.3588 32.0225 48.567 31.8635 48.7935C31.7045 49.02 31.5976 49.3169 31.613 49.632C31.6285 49.9472 31.644 50.2623 31.8522 50.5437C32.0604 50.8251 32.2686 51.1064 32.6175 51.2837C33.1929 51.62 33.6122 51.7452 34.068 51.6256C34.5238 51.5061 34.9276 51.3161 35.1752 50.9152C35.3525 50.5663 35.4594 50.2694 35.444 49.9543Z" fill="#F3F3F4"/>
<path d="M40.3027 37.5418C40.6882 37.4743 41.0736 37.4068 41.4929 37.532C41.9121 37.6572 42.3131 37.9049 42.6254 38.3269L45.0072 40.8101L44.1968 41.6275L41.9191 39.285C41.5365 38.915 41.1876 38.7377 40.8204 38.6828C40.4532 38.628 40.0494 38.8179 39.7497 39.1485C39.4501 39.4791 39.2728 39.828 39.2882 40.1431C39.2854 40.5807 39.4936 40.8621 39.8059 41.2841L42.0836 43.6267L41.2029 44.4961L37.1343 40.3218L38.015 39.4523L38.5018 39.963C38.4863 39.6479 38.5229 39.4031 38.7002 39.0542C38.8775 38.7053 39.0365 38.4788 39.2658 38.2002C39.5655 37.8696 39.8468 37.6614 40.3027 37.5418Z" fill="#F3F3F4"/>
<path d="M50.4137 30.1683C50.8512 30.1712 51.2184 30.226 51.5673 30.4033C51.9162 30.5806 52.2989 30.9506 52.5409 31.4247L54.2896 34.3764L53.323 34.9828L51.6784 32.1718C51.4365 31.6977 51.1059 31.398 50.7387 31.3431C50.3715 31.2882 49.986 31.3557 49.5822 31.5457C49.2305 31.8059 49.0011 32.0845 48.8759 32.5037C48.7507 32.923 48.8182 33.3085 49.0602 33.7826L50.7751 36.5415L49.7382 37.1999L46.7248 32.2448L47.7617 31.5864L48.1078 32.2012C48.1444 31.9564 48.3216 31.6075 48.4806 31.381C48.71 31.1025 48.8689 30.876 49.2024 30.7381C49.5724 30.3554 50.0282 30.2359 50.4137 30.1683Z" fill="#F3F3F4"/>
<path d="M63.9915 28.0685L59.7821 29.4415C59.972 29.8453 60.2323 30.197 60.6515 30.3222C61.0004 30.4995 61.438 30.5023 61.8938 30.3828C62.4903 30.1591 62.8604 29.7764 62.9518 29.1644L64.1969 28.7874C64.1758 29.3473 64.0323 29.889 63.7143 30.342C63.3964 30.795 62.9039 31.1594 62.2554 31.3127C61.7292 31.4843 61.2213 31.5336 60.7317 31.4604C60.2421 31.3872 59.5964 31.103 59.2137 30.733C58.831 30.363 58.5891 29.8889 58.4174 29.3627C58.2458 28.8365 58.1445 28.2583 58.288 27.7166C58.3612 27.227 58.5568 26.7557 58.9268 26.3731C59.2968 25.9904 59.7189 25.6781 60.2971 25.5768C60.8233 25.4052 61.3312 25.3559 61.8208 25.4291C62.3104 25.5023 62.7113 25.7499 63.094 26.1199C63.4767 26.4899 63.6666 26.8937 63.8382 27.4199C63.8537 27.735 63.8874 27.9278 63.9915 28.0685ZM62.5073 27.5338C62.3877 27.078 62.1092 26.8487 61.7603 26.6714C61.4114 26.4941 60.9738 26.4913 60.518 26.6109C60.1325 26.6784 59.8328 27.009 59.6035 27.2876C59.4262 27.6365 59.3713 28.0036 59.4206 28.5115L62.5073 27.5338Z" fill="#F3F3F4"/>
<path d="M69.5956 24.9018C69.7911 24.4305 70.0908 24.0998 70.5129 23.7875C70.9349 23.4752 71.3908 23.3556 71.969 23.2544C72.6696 23.1714 73.2816 23.2628 73.7346 23.5808C74.258 23.8467 74.5703 24.2688 74.794 24.8653L73.4631 24.9792C73.3773 24.7161 73.0987 24.4868 72.8722 24.3278C72.6457 24.1688 72.3306 24.1843 71.9634 24.1294C71.5596 24.3194 71.1558 24.5093 70.9082 24.9102C70.6606 25.3112 70.5874 25.8008 70.6183 26.4311C70.6493 27.0613 70.8912 27.5355 71.2218 27.8351C71.5525 28.1348 71.9717 28.26 72.4092 28.2629C73.1099 28.1799 73.5319 27.8676 73.6937 27.2035L75.0247 27.0896C74.9332 27.7016 74.6152 28.1546 74.1749 28.5893C73.7345 29.024 73.2083 29.1957 72.5077 29.2786C71.9998 29.3279 71.5102 29.2547 71.0389 29.0591C70.5676 28.8636 70.237 28.5639 69.9247 28.1418C69.6124 27.7197 69.4407 27.1936 69.4619 26.6336C69.483 26.0737 69.4 25.3731 69.5956 24.9018Z" fill="#F3F3F4"/>
<path d="M81.4484 24.2957L81.2176 27.5146C81.181 27.7594 81.2851 27.9001 81.3372 27.9704C81.3892 28.0408 81.5637 28.1294 81.8085 28.166L82.5429 28.2758L82.4486 29.3253L81.5214 29.2493C80.9615 29.2282 80.6126 29.0509 80.282 28.7512C79.9514 28.4516 79.8838 28.0661 79.9753 27.4541L80.2061 24.2351L79.5238 24.1957L79.5998 23.2686L80.2821 23.308L80.4313 21.8913L81.6032 22.0039L81.454 23.4206L82.8708 23.5698L82.7948 24.4969L81.4484 24.2957Z" fill="#F3F3F4"/>
<path d="M87.9595 24.2674L86.8549 29.9835L85.7013 29.7486L86.8058 24.0324L87.9595 24.2674ZM87.0746 23.0715C86.9705 22.9308 86.9367 22.7381 86.9733 22.4933C87.0099 22.2485 87.1506 22.1444 87.2913 22.0403C87.432 21.9362 87.6247 21.9024 87.8695 21.939C88.1143 21.9756 88.2184 22.1163 88.3225 22.257C88.4266 22.3977 88.4604 22.5904 88.4238 22.8352C88.3872 23.08 88.2465 23.1841 88.1058 23.2882C87.9651 23.3923 87.7724 23.4261 87.5276 23.3895C87.4052 23.3712 87.2307 23.2826 87.0746 23.0715Z" fill="#F3F3F4"/>
<path d="M92.5009 31.1403C92.1885 30.7183 91.9986 30.3145 91.8973 29.7363C91.8481 29.2284 91.8692 28.6684 92.1351 28.1451C92.349 27.5514 92.5966 27.1504 93.0187 26.8381C93.4408 26.5258 93.9149 26.2838 94.4228 26.2346C94.9307 26.1854 95.4203 26.2585 95.9619 26.4021C96.4332 26.5976 96.8862 26.9156 97.2689 27.2856C97.5812 27.7077 97.7711 28.1115 97.9427 28.6376C97.992 29.1455 97.9709 29.7055 97.757 30.2992C97.5431 30.8929 97.2955 31.2938 96.8734 31.6061C96.4514 31.9185 95.9772 32.1604 95.4694 32.2097C94.9615 32.2589 94.4015 32.2378 93.9302 32.0422C93.2141 31.81 92.8132 31.5624 92.5009 31.1403ZM95.0037 31.139C95.3188 31.1235 95.6002 30.9153 95.8113 30.7592C96.0926 30.551 96.2699 30.2021 96.4472 29.8531C96.5724 29.4339 96.6273 29.0667 96.6118 28.7516C96.5964 28.4364 96.4585 28.103 96.232 27.944C96.0758 27.733 95.7973 27.5036 95.5004 27.3967C95.2036 27.2898 94.9588 27.2532 94.6436 27.2687C94.3285 27.2841 94.1175 27.4403 93.8361 27.6485C93.5547 27.8567 93.3774 28.2056 93.2001 28.5545C92.9863 29.1482 92.9131 29.6378 93.1551 30.1119C93.345 30.5157 93.6756 30.8154 94.1469 31.011C94.3734 31.1699 94.6886 31.1545 95.0037 31.139Z" fill="#F3F3F4"/>
<path d="M108.152 33.1665C108.342 33.5703 108.41 33.9558 108.355 34.323C108.3 34.6902 108.104 35.1615 107.909 35.6328L105.983 38.4732L104.954 37.819L106.74 35.0827C107.058 34.6297 107.112 34.2625 107.045 33.877C106.977 33.4915 106.769 33.2101 106.368 32.9625C105.967 32.7149 105.6 32.66 105.215 32.7275C104.829 32.795 104.477 33.0553 104.23 33.4562L102.444 36.1926L101.416 35.5384L104.58 30.6931L105.609 31.3474L105.272 31.9228C105.535 31.8369 105.851 31.8215 106.218 31.8764C106.585 31.9312 106.882 32.0382 107.16 32.2675C107.684 32.5334 108.014 32.8331 108.152 33.1665Z" fill="#F3F3F4"/>
<path d="M118.591 42.8605C118.888 42.9674 119.166 43.1967 119.497 43.4964L118.564 44.2955L118.408 44.0844C118.147 43.7327 117.799 43.5554 117.431 43.5006C117.064 43.4457 116.66 43.6356 116.29 44.0183L113.932 45.9808L113.133 45.048L117.516 41.2608L118.315 42.1936L117.664 42.7845C117.997 42.6466 118.294 42.7535 118.591 42.8605Z" fill="#F3F3F4"/>
<path d="M122.403 54.1916L120.152 50.414C119.8 50.6743 119.501 51.0049 119.446 51.3721C119.32 51.7914 119.388 52.1768 119.648 52.5286C119.942 53.073 120.466 53.3389 121.044 53.2377L121.684 54.397C121.106 54.4982 120.616 54.4251 120.074 54.2816C119.551 54.0156 119.098 53.6977 118.752 53.0829C118.51 52.6087 118.338 52.0825 118.341 51.645C118.292 51.1371 118.488 50.6658 118.735 50.2649C118.983 49.8639 119.423 49.4292 119.897 49.1872C120.442 48.8932 120.968 48.7216 121.406 48.7244C121.913 48.6752 122.385 48.8707 122.856 49.0663C123.257 49.3139 123.64 49.6839 123.934 50.2284C124.176 50.7025 124.347 51.2287 124.344 51.6663C124.394 52.1741 124.268 52.5934 123.95 53.0464C123.703 53.4474 123.333 53.83 122.859 54.072C122.736 54.0537 122.596 54.1578 122.403 54.1916ZM122.693 52.6707C123.044 52.4105 123.274 52.1319 123.399 51.7127C123.454 51.3455 123.386 50.96 123.144 50.4859C122.954 50.0821 122.606 49.9048 122.257 49.7275C121.837 49.6023 121.522 49.6178 121.119 49.8077L122.693 52.6707Z" fill="#F3F3F4"/>
<path d="M127.907 58.3927L122.52 60.5283L122.125 59.4056L127.512 57.27L127.907 58.3927ZM128.372 56.9606C128.46 56.7861 128.601 56.682 128.812 56.5258C129.005 56.4921 129.198 56.4583 129.372 56.547C129.547 56.6356 129.651 56.7763 129.807 56.9873C129.841 57.1801 129.874 57.3728 129.786 57.5473C129.697 57.7217 129.556 57.8258 129.345 57.982C129.134 58.1381 128.96 58.0495 128.785 57.9609C128.611 57.8722 128.507 57.7315 128.351 57.5205C128.317 57.3277 128.283 57.135 128.372 56.9606Z" fill="#F3F3F4"/>
<path d="M131.133 73.6402C131.008 74.0594 130.779 74.338 130.427 74.5982C130.075 74.8585 129.672 75.0484 129.164 75.0976L125.783 75.5309L125.651 74.3224L128.839 73.9229C129.347 73.8736 129.75 73.6837 129.98 73.4052C130.209 73.1266 130.334 72.7074 130.267 72.3219C130.199 71.9364 130.009 71.5326 129.731 71.3033C129.452 71.074 128.963 71.0008 128.507 71.1204L125.319 71.5198L125.187 70.3113L128.375 69.9118C128.883 69.8626 129.286 69.6727 129.516 69.3941C129.745 69.1156 129.87 68.6963 129.803 68.3108C129.735 67.9254 129.545 67.5216 129.267 67.2922C128.988 67.0629 128.499 66.9897 128.043 67.1093L124.855 67.5088L124.722 66.3003L130.468 65.5323L130.6 66.7408L129.9 66.8238C130.126 66.9828 130.405 67.2121 130.543 67.5455C130.751 67.8269 130.837 68.09 130.904 68.4755C130.953 68.9834 130.899 69.3506 130.773 69.7698C130.648 70.1891 130.419 70.4676 130.067 70.7279C130.486 70.8531 130.765 71.0824 131.025 71.4342C131.285 71.7859 131.423 72.1193 131.543 72.5751C131.314 72.8537 131.311 73.2912 131.133 73.6402Z" fill="#F3F3F4"/>
<path d="M129.686 83.7473C130.139 84.0653 130.399 84.417 130.519 84.8729C130.709 85.2767 130.758 85.7845 130.685 86.2741C130.611 86.7637 130.434 87.1126 130.205 87.3912C129.975 87.6697 129.746 87.9483 129.413 88.0862L130.269 88.2142L130.087 89.4382L124.352 88.4561L124.535 87.2321L125.392 87.3601C125.184 87.0787 124.975 86.7974 124.838 86.4639C124.7 86.1305 124.703 85.6929 124.776 85.2034C124.849 84.7138 125.096 84.3128 125.344 83.9118C125.644 83.5812 126.066 83.2689 126.592 83.0973C127.118 82.9257 127.626 82.8764 128.168 83.02C128.832 83.1818 129.355 83.4477 129.686 83.7473ZM128.522 87.7654C128.856 87.6275 129.067 87.4714 129.296 87.1928C129.455 86.9663 129.614 86.7398 129.669 86.3726C129.776 86.0757 129.69 85.8127 129.552 85.4792C129.466 85.2161 129.258 84.9348 128.979 84.7054C128.701 84.4761 128.404 84.3692 128.037 84.3143C127.67 84.2594 127.232 84.2566 126.969 84.3424C126.636 84.4803 126.425 84.6364 126.143 84.8446C125.862 85.0528 125.825 85.2976 125.77 85.6648C125.663 85.9617 125.749 86.2248 125.887 86.5582C125.973 86.8213 126.181 87.1027 126.46 87.332C126.738 87.5613 127.035 87.6683 127.454 87.7935C127.874 87.9187 128.207 87.7808 128.522 87.7654Z" fill="#F3F3F4"/>
<path d="M126.327 99.9503C126.045 100.159 125.764 100.367 125.378 100.434L126.146 100.737L125.667 101.854L120.256 99.5436C119.785 99.348 119.332 99.0301 119.071 98.6783C118.811 98.3266 118.621 97.9228 118.572 97.4149C118.523 96.9071 118.596 96.4175 118.862 95.8941C119.216 95.1963 119.605 94.6912 120.097 94.3269C120.589 93.9625 121.22 93.9316 121.813 94.1454L121.334 95.2625C121.018 95.2779 120.703 95.2934 120.422 95.5016C120.141 95.7098 119.911 95.9884 119.734 96.3373C119.538 96.8086 119.484 97.1758 119.673 97.5796C119.863 97.9834 120.194 98.283 120.665 98.4786L121.608 98.8697C121.4 98.5884 121.332 98.2029 121.265 97.8174C121.197 97.4319 121.322 97.0126 121.448 96.5934C121.643 96.1221 121.943 95.7915 122.365 95.4792C122.787 95.1668 123.243 95.0473 123.751 94.998C124.259 94.9488 124.8 95.0923 125.271 95.2879C125.795 95.5538 126.248 95.8718 126.508 96.2235C126.82 96.6456 127.01 97.0494 127.06 97.5573C127.109 98.0651 127.036 98.5547 126.84 99.026C126.908 99.4115 126.678 99.6901 126.327 99.9503ZM124.595 99.8166C124.91 99.8012 125.243 99.6633 125.454 99.5071C125.736 99.2989 125.895 99.0724 126.002 98.7756C126.109 98.4787 126.145 98.2339 126.13 97.9188C126.114 97.6037 126.028 97.3406 125.82 97.0592C125.612 96.7778 125.333 96.5485 124.984 96.3712C124.636 96.1939 124.268 96.139 123.953 96.1545C123.638 96.17 123.305 96.3078 123.094 96.464C122.883 96.6202 122.653 96.8987 122.546 97.1956C122.439 97.4924 122.403 97.7372 122.418 98.0524C122.434 98.3675 122.572 98.7009 122.728 98.912C122.936 99.1933 123.215 99.4227 123.634 99.5479C123.912 99.7772 124.28 99.8321 124.595 99.8166Z" fill="#F3F3F4"/>
<path d="M122.125 107.957L117.28 104.793L117.934 103.764L122.779 106.928L122.125 107.957ZM123.563 107.546C123.756 107.512 124 107.549 124.175 107.638C124.349 107.726 124.505 107.937 124.539 108.13C124.573 108.323 124.536 108.567 124.448 108.742C124.359 108.916 124.218 109.021 123.955 109.106C123.692 109.192 123.518 109.103 123.343 109.015C123.169 108.926 123.013 108.715 122.979 108.522C122.945 108.33 122.982 108.085 123.123 107.981C123.229 107.684 123.37 107.58 123.563 107.546Z" fill="#F3F3F4"/>
<path d="M115.811 115.46C115.478 115.598 115.04 115.595 114.621 115.469C114.202 115.344 113.801 115.097 113.47 114.797L111 112.488L111.758 111.6L114.124 113.769C114.507 114.139 114.856 114.316 115.293 114.319C115.731 114.321 116.012 114.113 116.312 113.783C116.612 113.452 116.789 113.103 116.721 112.718C116.654 112.332 116.516 111.999 116.133 111.629L113.767 109.461L114.525 108.573L118.753 112.521L117.995 113.408L117.56 112.968C117.575 113.283 117.591 113.598 117.484 113.895C117.377 114.192 117.2 114.541 116.989 114.697C116.496 115.062 116.145 115.322 115.811 115.46Z" fill="#F3F3F4"/>
<path d="M103.294 121.347L106.916 118.885C106.655 118.533 106.254 118.286 105.887 118.231C105.52 118.176 105.064 118.296 104.712 118.556C104.22 118.92 103.954 119.444 104.055 120.022L102.948 120.732C102.776 120.206 102.798 119.646 103.063 119.123C103.207 118.581 103.647 118.146 104.21 117.73C104.632 117.418 105.158 117.246 105.666 117.197C106.174 117.148 106.664 117.221 107.117 117.539C107.588 117.734 107.971 118.104 108.265 118.649C108.629 119.141 108.801 119.667 108.85 120.175C108.899 120.683 108.826 121.173 108.578 121.574C108.383 122.045 108.013 122.428 107.539 122.67C107.117 122.982 106.59 123.154 106.153 123.151C105.645 123.2 105.226 123.075 104.754 122.879C104.353 122.632 103.9 122.314 103.658 121.84C103.484 121.751 103.328 121.54 103.294 121.347ZM104.833 121.515C105.094 121.866 105.372 122.096 105.81 122.098C106.177 122.153 106.633 122.034 106.984 121.773C107.336 121.513 107.565 121.235 107.62 120.867C107.675 120.5 107.678 120.063 107.488 119.659L104.833 121.515Z" fill="#F3F3F4"/>
<path d="M98.7132 126.043C98.6401 126.533 98.4445 127.004 98.1969 127.405C97.8972 127.736 97.4751 128.048 97.0713 128.238C96.7379 128.376 96.3524 128.443 95.9149 128.44C95.4773 128.438 95.1805 128.331 94.8316 128.153L95.8825 130.751L94.7598 131.146L91.9011 123.899L93.0239 123.504L93.3333 124.363C93.4403 124.066 93.6176 123.718 93.8469 123.439C94.0762 123.16 94.4279 122.9 94.8838 122.781C95.4099 122.609 95.7954 122.541 96.285 122.615C96.7746 122.688 97.1756 122.935 97.6286 123.253C98.0113 123.623 98.3236 124.045 98.4952 124.572C98.6668 125.098 98.7864 125.554 98.7132 126.043ZM94.6811 127.067C94.9596 127.297 95.2565 127.404 95.5013 127.44C95.7461 127.477 96.0612 127.461 96.3946 127.323C96.6577 127.238 96.9391 127.029 97.0981 126.803C97.2571 126.576 97.364 126.28 97.4709 125.983C97.5258 125.616 97.5104 125.3 97.3204 124.897C97.1826 124.563 96.9744 124.282 96.6958 124.052C96.4172 123.823 96.1204 123.716 95.8235 123.609C95.5267 123.502 95.2636 123.588 94.9302 123.726C94.6671 123.812 94.3857 124.02 94.2267 124.247C94.0677 124.473 93.9608 124.77 93.9059 125.137C93.851 125.504 93.8665 125.819 94.0564 126.223C94.1943 126.557 94.4025 126.838 94.6811 127.067Z" fill="#F3F3F4"/>
<path d="M80.3867 126.433C80.858 126.628 81.2407 126.998 81.4827 127.472C81.7246 127.946 81.8963 128.473 81.8751 129.032C81.9061 129.663 81.8329 130.152 81.5149 130.605C81.3194 131.077 80.9493 131.459 80.4752 131.701C80.0011 131.943 79.5453 132.063 78.967 132.164C78.4071 132.143 77.9175 132.07 77.4462 131.874C76.9749 131.679 76.5922 131.309 76.3503 130.835C76.0379 130.413 75.9367 129.834 75.8874 129.326C75.8565 128.696 75.9297 128.207 76.2476 127.753C76.4432 127.282 76.8132 126.9 77.2874 126.658C77.7615 126.416 78.2877 126.244 78.7955 126.195C79.4441 126.041 79.9337 126.115 80.3867 126.433ZM78.0527 127.398C77.8416 127.554 77.5603 127.762 77.4533 128.059C77.3464 128.356 77.2212 128.775 77.2366 129.09C77.2338 129.528 77.3717 129.861 77.5095 130.194C77.6474 130.528 77.8739 130.687 78.1708 130.794C78.4676 130.901 78.7645 131.008 79.0796 130.992C79.3948 130.977 79.6578 130.891 79.9392 130.683C80.1503 130.527 80.4316 130.318 80.5386 130.021C80.6455 129.725 80.7004 129.357 80.7032 128.92C80.6723 128.29 80.5527 127.834 80.17 127.464C79.7874 127.094 79.4202 127.039 78.9306 126.966C78.5971 127.104 78.3341 127.189 78.0527 127.398Z" fill="#F3F3F4"/>
<path d="M65.2034 130.482C64.9249 130.253 64.6646 129.901 64.545 129.445C64.4255 128.989 64.4283 128.552 64.5015 128.062L65.1881 124.724L66.3418 124.959L65.7438 128.123C65.6706 128.612 65.6678 129.05 65.876 129.331C66.0842 129.613 66.3627 129.842 66.8523 129.915C67.2716 130.04 67.6571 129.973 68.0088 129.713C68.2902 129.504 68.5378 129.104 68.611 128.614L69.209 125.45L70.3626 125.685L69.2581 131.401L68.1044 131.166L68.2662 130.502C67.9848 130.71 67.7738 130.866 67.4587 130.882C67.1435 130.897 66.758 130.965 66.4612 130.858C65.883 130.959 65.5341 130.782 65.2034 130.482Z" fill="#F3F3F4"/>
<path d="M53.2311 125.19C52.809 125.502 52.3532 125.621 51.8453 125.671C51.3374 125.72 50.8661 125.524 50.3428 125.258C49.7674 124.922 49.3327 124.482 49.0907 124.008C48.8487 123.534 48.8178 122.903 48.9613 122.362L50.0601 122.964C50.0235 123.209 50.0389 123.524 50.1247 123.787C50.2106 124.05 50.4891 124.279 50.786 124.386C51.1869 124.634 51.6245 124.637 52.0803 124.517C52.4841 124.327 52.9061 124.015 53.1721 123.491C53.438 122.968 53.5815 122.426 53.514 122.041C53.3944 121.585 53.1341 121.233 52.7332 120.986C52.1578 120.65 51.5275 120.681 51.0871 121.115L49.9884 120.513C50.4287 120.078 50.9029 119.836 51.4811 119.735C52.0593 119.634 52.601 119.777 53.2467 120.062C53.7701 120.327 54.1007 120.627 54.3426 121.101C54.5846 121.575 54.7042 122.031 54.7014 122.469C54.6985 122.906 54.555 123.448 54.2188 124.023C54.0232 124.495 53.7052 124.948 53.2311 125.19Z" fill="#F3F3F4"/>
<path d="M43.3119 121.642C43.3456 121.835 43.257 122.009 43.1683 122.184C43.0797 122.358 42.8166 122.444 42.6239 122.478C42.4311 122.512 42.2567 122.423 42.0822 122.334C41.9078 122.246 41.822 121.983 41.7882 121.79C41.7544 121.597 41.8431 121.423 41.9317 121.248C42.0204 121.074 42.2834 120.988 42.4762 120.954C42.6689 120.921 42.8434 121.009 43.0178 121.098C43.174 121.309 43.2781 121.45 43.3119 121.642ZM42.9714 120.152L46.5886 115.625L47.5467 116.331L43.9816 120.929L42.9714 120.152Z" fill="#F3F3F4"/>
<path d="M38.3097 115.764C38.0128 115.657 37.6639 115.48 37.3854 115.251L38.3364 114.329L38.5629 114.488C38.8935 114.788 39.2424 114.965 39.5576 114.95C39.8727 114.934 40.2765 114.744 40.7169 114.309L42.8484 112.188L43.6474 113.121L39.5955 117.208L38.7261 116.327L39.3071 115.788C39.0441 115.874 38.6769 115.819 38.3097 115.764Z" fill="#F3F3F4"/>
<path d="M35.0013 110.265C34.4935 110.314 34.0039 110.241 33.5326 110.045C33.0613 109.85 32.6786 109.48 32.3663 109.058C31.9499 108.495 31.7262 107.898 31.7473 107.338C31.7684 106.778 31.9119 106.237 32.3523 105.802L33.1331 106.857C32.9741 107.084 32.8672 107.381 32.8826 107.696C32.8981 108.011 32.9839 108.274 33.1921 108.555C33.5044 108.977 33.8533 109.155 34.2909 109.158C34.7284 109.16 35.1843 109.041 35.747 108.624C36.3098 108.208 36.6095 107.877 36.6826 107.388C36.8079 106.969 36.6883 106.513 36.428 106.161C36.0116 105.598 35.5403 105.403 34.8917 105.556L34.1109 104.501C34.7074 104.277 35.2674 104.298 35.809 104.442C36.3507 104.585 36.8557 104.974 37.2722 105.536C37.5845 105.958 37.7561 106.485 37.8053 106.992C37.8546 107.5 37.7814 107.99 37.5338 108.391C37.3382 108.862 36.9682 109.245 36.4758 109.609C35.9833 109.974 35.5092 110.216 35.0013 110.265Z" fill="#F3F3F4"/>
<path d="M25.6782 96.0449L31.0132 93.839L31.4788 94.9097L30.812 95.1854C31.1088 95.2923 31.4057 95.3993 31.6139 95.6807C31.8924 95.91 32.1006 96.1914 32.1865 96.4545C32.3764 96.8582 32.4439 97.2437 32.4411 97.6813C32.3862 98.0485 32.261 98.4677 31.9613 98.7983C31.6616 99.1289 31.3099 99.3892 30.8358 99.6312L27.6942 100.976L27.2285 99.9054L30.2294 98.6646C30.7036 98.4226 31.0553 98.1624 31.1622 97.8655C31.3395 97.5166 31.272 97.1311 31.1524 96.6753C30.9625 96.2715 30.7543 95.9901 30.335 95.8649C29.9861 95.6877 29.6006 95.7552 29.0744 95.9268L26.1256 97.2379L25.6782 96.0449Z" fill="#F3F3F4"/>
<path d="M23.0865 90.7778C22.9978 90.9523 22.8571 91.0564 22.5941 91.1422C22.4013 91.176 22.1565 91.1394 21.9821 91.0507C21.8076 90.9621 21.7035 90.8214 21.6177 90.5583C21.5839 90.3656 21.6205 90.1208 21.7092 89.9463C21.7978 89.7719 21.9385 89.6678 22.2016 89.582C22.4647 89.4961 22.6391 89.5848 22.8136 89.6734C22.988 89.7621 23.0921 89.9027 23.1779 90.1658C23.2117 90.3586 23.1751 90.6034 23.0865 90.7778ZM23.7956 89.3822L29.44 88.036L29.765 89.2107L24.1205 90.557L23.7956 89.3822Z" fill="#F3F3F4"/>
<path d="M23.8507 83.5718L27.0387 83.1723C27.2315 83.1385 27.4242 83.1048 27.4425 82.9824C27.5832 82.8783 27.5494 82.6855 27.5157 82.4928L27.4327 81.7922L28.4484 81.6937L28.5652 82.5871C28.6144 83.095 28.5413 83.5846 28.3119 83.8631C28.0826 84.1417 27.6788 84.3316 27.1006 84.4329L23.9126 84.8324L23.9956 85.533L22.9798 85.6314L22.8968 84.9308L21.4955 85.0968L21.3633 83.8883L22.7646 83.7223L22.5986 82.321L23.6144 82.2226L23.8507 83.5718Z" fill="#F3F3F4"/>
<path d="M28.119 78.4534C27.9783 78.5575 27.7672 78.7137 27.5224 78.6771C27.2776 78.6405 27.1552 78.6222 26.9287 78.4632C26.8246 78.3225 26.6685 78.1115 26.7051 77.8667C26.6713 77.674 26.7599 77.4995 26.971 77.3433C27.182 77.1872 27.3227 77.0831 27.5675 77.1197C27.7602 77.0859 27.9347 77.1745 28.1612 77.3335C28.2653 77.4742 28.3694 77.6149 28.3328 77.8597C28.2962 78.1045 28.33 78.2972 28.119 78.4534Z" fill="#F3F3F4"/>
</g>
<defs>
<clipPath id="clip0_2070_21206">
<rect width="110" height="109.3" fill="white" transform="translate(0.28125 66.2847) rotate(-36.5)"/>
</clipPath>
</defs>
</svg>
