<svg width="154" height="155" viewBox="0 0 154 155" fill="none" xmlns="http://www.w3.org/2000/svg">
<g clip-path="url(#clip0_506_7629)">
<path d="M24.4513 63.6403C24.0166 63.2 23.7409 62.5331 23.6396 61.9549C23.4862 61.3063 23.5777 60.6943 23.7395 60.0302C23.9717 59.3141 24.3783 58.6867 24.941 58.2703C25.5038 57.8538 26.1707 57.5781 26.8713 57.4951L26.4773 58.8753C26.0919 58.9428 25.6881 59.1327 25.4067 59.3409C25.1253 59.5491 24.8777 59.9501 24.7525 60.3693C24.5569 60.8406 24.5541 61.2782 24.6736 61.734C24.7932 62.1898 24.9311 62.5233 25.3137 62.8933C25.6964 63.2633 26.0453 63.4406 26.5166 63.6362C27.0583 63.7797 27.5479 63.8528 27.9333 63.7853C28.3188 63.7178 28.793 63.4758 29.0743 63.2676C29.3557 63.0594 29.6737 62.6064 29.7989 62.1871C29.9241 61.7679 29.979 61.4007 29.9115 61.0152C29.844 60.6297 29.6358 60.3483 29.3755 59.9966L29.7695 58.6165C30.3266 59.0751 30.743 59.6379 30.878 60.4089C31.0834 61.1278 31.044 61.8101 30.7415 62.5783C30.5797 63.2423 30.1914 63.7474 29.6807 64.2342C29.17 64.7209 28.6255 65.015 28.0473 65.1162C27.469 65.2175 26.7163 65.2302 26.0706 64.9459C25.4248 64.6617 24.8157 64.1327 24.4513 63.6403Z" fill="#F3F3F4"/>
<path d="M34.8849 52.436C34.4108 52.678 33.9549 52.7976 33.4653 52.7244C32.9054 52.7033 32.4341 52.5077 31.9811 52.1897C31.5281 51.8718 31.1454 51.5018 30.9034 51.0276C30.6615 50.5535 30.5419 50.0977 30.563 49.5377C30.6362 49.0481 30.7797 48.5065 31.0977 48.0535C31.3453 47.6525 31.7153 47.2699 32.1191 47.0799C32.5932 46.838 33.0491 46.7184 33.609 46.7395C34.1689 46.7606 34.6402 46.9562 35.1636 47.2221C35.6166 47.5401 35.9993 47.9101 36.2412 48.3842C36.4832 48.8584 36.6028 49.3142 36.5817 49.8741C36.5605 50.4341 36.365 50.9054 36.047 51.3584C35.729 51.8114 35.359 52.194 34.8849 52.436ZM35.4435 49.9543C35.428 49.6391 35.4126 49.324 35.2043 49.0426C35.0665 48.7092 34.7879 48.4799 34.439 48.3026C34.0901 48.1253 33.7412 47.948 33.4261 47.9635C33.1109 47.979 32.7958 47.9944 32.5144 48.2026C32.3034 48.3588 32.022 48.567 31.863 48.7935C31.704 49.02 31.5971 49.3169 31.6126 49.632C31.628 49.9472 31.6435 50.2623 31.8517 50.5437C32.0599 50.8251 32.2681 51.1064 32.617 51.2837C33.1924 51.62 33.6117 51.7452 34.0675 51.6256C34.5233 51.5061 34.9271 51.3161 35.1747 50.9152C35.352 50.5663 35.459 50.2694 35.4435 49.9543Z" fill="#F3F3F4"/>
<path d="M40.3017 37.5414C40.6872 37.4738 41.0727 37.4063 41.4919 37.5315C41.9112 37.6568 42.3121 37.9044 42.6244 38.3265L45.0062 40.8097L44.1958 41.627L41.9182 39.2845C41.5355 38.9145 41.1866 38.7372 40.8194 38.6823C40.4522 38.6275 40.0484 38.8174 39.7487 39.148C39.4491 39.4786 39.2718 39.8275 39.2873 40.1427C39.2844 40.5802 39.4927 40.8616 39.805 41.2836L42.0827 43.6262L41.2019 44.4956L37.1333 40.3213L38.0141 39.4518L38.5008 39.9626C38.4854 39.6474 38.5219 39.4026 38.6992 39.0537C38.8765 38.7048 39.0355 38.4783 39.2648 38.1997C39.5645 37.8691 39.8459 37.6609 40.3017 37.5414Z" fill="#F3F3F4"/>
<path d="M50.4132 30.1683C50.8508 30.1712 51.218 30.226 51.5669 30.4033C51.9158 30.5806 52.2984 30.9506 52.5404 31.4247L54.2891 34.3764L53.3225 34.9828L51.678 32.1718C51.436 31.6977 51.1054 31.398 50.7382 31.3431C50.371 31.2882 49.9855 31.3557 49.5817 31.5457C49.23 31.8059 49.0007 32.0845 48.8754 32.5037C48.7502 32.923 48.8177 33.3085 49.0597 33.7826L50.7746 36.5415L49.7377 37.1999L46.7243 32.2448L47.7612 31.5864L48.1073 32.2012C48.1439 31.9564 48.3211 31.6075 48.4801 31.381C48.7095 31.1025 48.8684 30.876 49.2019 30.7381C49.5719 30.3554 50.0277 30.2359 50.4132 30.1683Z" fill="#F3F3F4"/>
<path d="M63.9911 28.068L59.7816 29.441C59.9715 29.8448 60.2318 30.1965 60.6511 30.3217C61 30.499 61.4375 30.5018 61.8933 30.3823C62.4899 30.1586 62.8599 29.7759 62.9513 29.1639L64.1964 28.7869C64.1753 29.3469 64.0318 29.8885 63.7138 30.3415C63.3959 30.7945 62.9035 31.1589 62.2549 31.3122C61.7287 31.4839 61.2208 31.5331 60.7312 31.4599C60.2416 31.3867 59.5959 31.1025 59.2132 30.7325C58.8305 30.3625 58.5886 29.8884 58.4169 29.3622C58.2453 28.836 58.144 28.2578 58.2876 27.7161C58.3607 27.2265 58.5563 26.7552 58.9263 26.3726C59.2963 25.9899 59.7184 25.6776 60.2966 25.5763C60.8228 25.4047 61.3307 25.3555 61.8203 25.4286C62.3099 25.5018 62.7108 25.7494 63.0935 26.1194C63.4762 26.4895 63.6661 26.8932 63.8377 27.4194C63.8532 27.7346 63.8869 27.9273 63.9911 28.068ZM62.5068 27.5333C62.3872 27.0775 62.1087 26.8482 61.7598 26.6709C61.4109 26.4936 60.9733 26.4908 60.5175 26.6104C60.132 26.6779 59.8323 27.0085 59.603 27.2871C59.4257 27.636 59.3709 28.0032 59.4201 28.511L62.5068 27.5333Z" fill="#F3F3F4"/>
<path d="M69.5951 24.9013C69.7906 24.43 70.0903 24.0994 70.5124 23.787C70.9345 23.4747 71.3903 23.3551 71.9685 23.2539C72.6691 23.1709 73.2811 23.2623 73.7342 23.5803C74.2575 23.8462 74.5698 24.2683 74.7935 24.8648L73.4626 24.9787C73.3768 24.7156 73.0982 24.4863 72.8717 24.3273C72.6452 24.1684 72.3301 24.1838 71.9629 24.1289C71.5591 24.3189 71.1553 24.5088 70.9077 24.9097C70.6601 25.3107 70.5869 25.8003 70.6178 26.4306C70.6488 27.0609 70.8907 27.535 71.2214 27.8347C71.552 28.1343 71.9712 28.2596 72.4087 28.2624C73.1094 28.1794 73.5315 27.8671 73.6933 27.203L75.0242 27.0891C74.9327 27.7011 74.6147 28.1541 74.1744 28.5888C73.734 29.0235 73.2078 29.1952 72.5072 29.2782C71.9993 29.3274 71.5097 29.2542 71.0384 29.0586C70.5671 28.8631 70.2365 28.5634 69.9242 28.1413C69.6119 27.7193 69.4403 27.1931 69.4614 26.6331C69.4825 26.0732 69.3995 25.3726 69.5951 24.9013Z" fill="#F3F3F4"/>
<path d="M81.4479 24.2952L81.2171 27.5141C81.1805 27.7589 81.2846 27.8996 81.3367 27.97C81.3887 28.0403 81.5632 28.1289 81.808 28.1655L82.5424 28.2753L82.4481 29.3248L81.5209 29.2488C80.961 29.2277 80.6121 29.0504 80.2815 28.7507C79.9509 28.4511 79.8834 28.0656 79.9748 27.4536L80.2056 24.2347L79.5233 24.1952L79.5993 23.2681L80.2816 23.3075L80.4308 21.8908L81.6027 22.0034L81.4536 23.4201L82.8703 23.5693L82.7943 24.4964L81.4479 24.2952Z" fill="#F3F3F4"/>
<path d="M87.959 24.2674L86.8544 29.9835L85.7008 29.7486L86.8054 24.0324L87.959 24.2674ZM87.0741 23.0715C86.97 22.9308 86.9362 22.7381 86.9728 22.4933C87.0094 22.2485 87.1501 22.1444 87.2908 22.0403C87.4315 21.9362 87.6242 21.9024 87.869 21.939C88.1138 21.9756 88.2179 22.1163 88.322 22.257C88.4261 22.3977 88.4599 22.5904 88.4233 22.8352C88.3867 23.08 88.246 23.1841 88.1053 23.2882C87.9646 23.3923 87.7719 23.4261 87.5271 23.3895C87.4047 23.3712 87.2303 23.2826 87.0741 23.0715Z" fill="#F3F3F4"/>
<path d="M92.5004 31.1403C92.1881 30.7183 91.9981 30.3145 91.8969 29.7363C91.8476 29.2284 91.8687 28.6684 92.1347 28.1451C92.3485 27.5514 92.5961 27.1504 93.0182 26.8381C93.4403 26.5258 93.9144 26.2838 94.4223 26.2346C94.9302 26.1854 95.4198 26.2585 95.9614 26.4021C96.4327 26.5976 96.8857 26.9156 97.2684 27.2856C97.5807 27.7077 97.7706 28.1115 97.9423 28.6376C97.9915 29.1455 97.9704 29.7055 97.7565 30.2992C97.5426 30.8929 97.295 31.2938 96.873 31.6061C96.4509 31.9185 95.9768 32.1604 95.4689 32.2097C94.961 32.2589 94.401 32.2378 93.9297 32.0422C93.2136 31.81 92.8127 31.5624 92.5004 31.1403ZM95.0032 31.139C95.3184 31.1235 95.5997 30.9153 95.8108 30.7592C96.0922 30.551 96.2694 30.2021 96.4467 29.8531C96.5719 29.4339 96.6268 29.0667 96.6113 28.7516C96.5959 28.4364 96.458 28.103 96.2315 27.944C96.0753 27.733 95.7968 27.5036 95.4999 27.3967C95.2031 27.2898 94.9583 27.2532 94.6431 27.2687C94.328 27.2841 94.117 27.4403 93.8356 27.6485C93.5542 27.8567 93.3769 28.2056 93.1997 28.5545C92.9858 29.1482 92.9126 29.6378 93.1546 30.1119C93.3445 30.5157 93.6751 30.8154 94.1464 31.011C94.3729 31.1699 94.6881 31.1545 95.0032 31.139Z" fill="#F3F3F4"/>
<path d="M108.152 33.1665C108.342 33.5703 108.409 33.9558 108.354 34.323C108.299 34.6902 108.104 35.1615 107.908 35.6328L105.982 38.4732L104.954 37.819L106.739 35.0827C107.057 34.6297 107.112 34.2625 107.044 33.877C106.977 33.4915 106.769 33.2101 106.368 32.9625C105.967 32.7149 105.6 32.66 105.214 32.7275C104.829 32.795 104.477 33.0553 104.229 33.4562L102.444 36.1926L101.415 35.5384L104.58 30.6931L105.608 31.3474L105.272 31.9228C105.535 31.8369 105.85 31.8215 106.217 31.8764C106.584 31.9312 106.881 32.0382 107.16 32.2675C107.683 32.5334 108.014 32.8331 108.152 33.1665Z" fill="#F3F3F4"/>
<path d="M118.591 42.86C118.888 42.9669 119.166 43.1962 119.497 43.4959L118.564 44.295L118.408 44.0839C118.147 43.7322 117.799 43.5549 117.431 43.5001C117.064 43.4452 116.66 43.6351 116.29 44.0178L113.932 45.9803L113.133 45.0475L117.516 41.2603L118.315 42.1931L117.664 42.784C117.997 42.6461 118.294 42.753 118.591 42.86Z" fill="#F3F3F4"/>
<path d="M122.403 54.1911L120.152 50.4135C119.8 50.6738 119.501 51.0044 119.446 51.3716C119.32 51.7909 119.388 52.1763 119.648 52.5281C119.942 53.0725 120.466 53.3385 121.044 53.2372L121.684 54.3965C121.106 54.4977 120.616 54.4246 120.074 54.2811C119.551 54.0152 119.098 53.6972 118.752 53.0824C118.51 52.6082 118.338 52.0821 118.341 51.6445C118.292 51.1366 118.488 50.6653 118.735 50.2644C118.983 49.8634 119.423 49.4287 119.897 49.1867C120.442 48.8927 120.968 48.7211 121.406 48.7239C121.913 48.6747 122.385 48.8702 122.856 49.0658C123.257 49.3134 123.64 49.6835 123.934 50.2279C124.176 50.7021 124.347 51.2282 124.344 51.6658C124.394 52.1737 124.268 52.5929 123.95 53.0459C123.703 53.4469 123.333 53.8295 122.859 54.0715C122.736 54.0532 122.596 54.1573 122.403 54.1911ZM122.693 52.6702C123.044 52.41 123.274 52.1314 123.399 51.7122C123.454 51.345 123.386 50.9595 123.144 50.4854C122.954 50.0816 122.606 49.9043 122.257 49.727C121.837 49.6018 121.522 49.6173 121.119 49.8072L122.693 52.6702Z" fill="#F3F3F4"/>
<path d="M127.906 58.3923L122.519 60.5278L122.124 59.4051L127.511 57.2696L127.906 58.3923ZM128.371 56.9601C128.459 56.7856 128.6 56.6815 128.811 56.5253C129.004 56.4916 129.197 56.4578 129.371 56.5465C129.546 56.6351 129.65 56.7758 129.806 56.9868C129.84 57.1796 129.873 57.3723 129.785 57.5468C129.696 57.7212 129.555 57.8253 129.344 57.9815C129.133 58.1376 128.959 58.049 128.784 57.9604C128.61 57.8717 128.506 57.731 128.35 57.52C128.316 57.3273 128.282 57.1345 128.371 56.9601Z" fill="#F3F3F4"/>
<path d="M131.133 73.6402C131.008 74.0594 130.779 74.338 130.427 74.5982C130.075 74.8585 129.672 75.0484 129.164 75.0976L125.783 75.5309L125.651 74.3224L128.839 73.9229C129.347 73.8736 129.75 73.6837 129.98 73.4052C130.209 73.1266 130.334 72.7074 130.267 72.3219C130.199 71.9364 130.009 71.5326 129.731 71.3033C129.452 71.074 128.963 71.0008 128.507 71.1204L125.319 71.5198L125.187 70.3113L128.375 69.9118C128.883 69.8626 129.286 69.6727 129.516 69.3941C129.745 69.1156 129.87 68.6963 129.803 68.3108C129.735 67.9254 129.545 67.5216 129.267 67.2922C128.988 67.0629 128.499 66.9897 128.043 67.1093L124.855 67.5088L124.722 66.3003L130.468 65.5323L130.6 66.7408L129.9 66.8238C130.126 66.9828 130.405 67.2121 130.543 67.5455C130.751 67.8269 130.837 68.09 130.904 68.4755C130.953 68.9834 130.899 69.3506 130.773 69.7698C130.648 70.1891 130.419 70.4676 130.067 70.7279C130.486 70.8531 130.765 71.0824 131.025 71.4342C131.285 71.7859 131.423 72.1193 131.543 72.5751C131.314 72.8537 131.311 73.2912 131.133 73.6402Z" fill="#F3F3F4"/>
<path d="M129.686 83.7473C130.139 84.0653 130.399 84.417 130.519 84.8729C130.709 85.2767 130.758 85.7845 130.685 86.2741C130.611 86.7637 130.434 87.1126 130.205 87.3912C129.975 87.6697 129.746 87.9483 129.413 88.0862L130.269 88.2142L130.087 89.4382L124.352 88.4561L124.535 87.2321L125.392 87.3601C125.184 87.0787 124.975 86.7974 124.838 86.4639C124.7 86.1305 124.703 85.6929 124.776 85.2034C124.849 84.7138 125.096 84.3128 125.344 83.9118C125.644 83.5812 126.066 83.2689 126.592 83.0973C127.118 82.9257 127.626 82.8764 128.168 83.02C128.832 83.1818 129.355 83.4477 129.686 83.7473ZM128.522 87.7654C128.856 87.6275 129.067 87.4714 129.296 87.1928C129.455 86.9663 129.614 86.7398 129.669 86.3726C129.776 86.0757 129.69 85.8127 129.552 85.4792C129.466 85.2161 129.258 84.9348 128.979 84.7054C128.701 84.4761 128.404 84.3692 128.037 84.3143C127.67 84.2594 127.232 84.2566 126.969 84.3424C126.636 84.4803 126.425 84.6364 126.143 84.8446C125.862 85.0528 125.825 85.2976 125.77 85.6648C125.663 85.9617 125.749 86.2248 125.887 86.5582C125.973 86.8213 126.181 87.1027 126.46 87.332C126.738 87.5613 127.035 87.6683 127.454 87.7935C127.874 87.9187 128.207 87.7808 128.522 87.7654Z" fill="#F3F3F4"/>
<path d="M126.326 99.9503C126.044 100.159 125.763 100.367 125.377 100.434L126.145 100.737L125.666 101.854L120.255 99.5436C119.784 99.348 119.331 99.0301 119.07 98.6783C118.81 98.3266 118.62 97.9228 118.571 97.4149C118.522 96.9071 118.595 96.4175 118.861 95.8941C119.215 95.1963 119.604 94.6912 120.096 94.3269C120.588 93.9625 121.219 93.9316 121.812 94.1454L121.333 95.2625C121.018 95.2779 120.702 95.2934 120.421 95.5016C120.14 95.7098 119.91 95.9884 119.733 96.3373C119.537 96.8086 119.483 97.1758 119.672 97.5796C119.862 97.9834 120.193 98.283 120.664 98.4786L121.607 98.8697C121.399 98.5884 121.331 98.2029 121.264 97.8174C121.196 97.4319 121.321 97.0126 121.447 96.5934C121.642 96.1221 121.942 95.7915 122.364 95.4792C122.786 95.1668 123.242 95.0473 123.75 94.998C124.258 94.9488 124.799 95.0923 125.271 95.2879C125.794 95.5538 126.247 95.8718 126.507 96.2235C126.819 96.6456 127.009 97.0494 127.059 97.5573C127.108 98.0651 127.035 98.5547 126.839 99.026C126.907 99.4115 126.677 99.6901 126.326 99.9503ZM124.594 99.8166C124.909 99.8012 125.242 99.6633 125.453 99.5071C125.735 99.2989 125.894 99.0724 126.001 98.7756C126.108 98.4787 126.144 98.2339 126.129 97.9188C126.113 97.6037 126.027 97.3406 125.819 97.0592C125.611 96.7778 125.332 96.5485 124.983 96.3712C124.635 96.1939 124.267 96.139 123.952 96.1545C123.637 96.17 123.304 96.3078 123.093 96.464C122.882 96.6202 122.652 96.8987 122.545 97.1956C122.438 97.4924 122.402 97.7372 122.417 98.0524C122.433 98.3675 122.571 98.7009 122.727 98.912C122.935 99.1933 123.214 99.4227 123.633 99.5479C123.911 99.7772 124.279 99.8321 124.594 99.8166Z" fill="#F3F3F4"/>
<path d="M122.126 107.957L117.281 104.793L117.935 103.764L122.78 106.928L122.126 107.957ZM123.564 107.546C123.757 107.512 124.001 107.549 124.176 107.638C124.35 107.726 124.506 107.937 124.54 108.13C124.574 108.323 124.537 108.567 124.449 108.742C124.36 108.916 124.219 109.021 123.956 109.106C123.693 109.192 123.519 109.103 123.344 109.015C123.17 108.926 123.014 108.715 122.98 108.522C122.946 108.33 122.983 108.085 123.123 107.981C123.23 107.684 123.371 107.58 123.564 107.546Z" fill="#F3F3F4"/>
<path d="M115.812 115.46C115.478 115.598 115.041 115.595 114.621 115.469C114.202 115.344 113.801 115.097 113.471 114.797L111 112.488L111.758 111.6L114.125 113.769C114.507 114.139 114.856 114.316 115.294 114.319C115.731 114.321 116.013 114.113 116.312 113.783C116.612 113.452 116.789 113.103 116.722 112.718C116.654 112.332 116.517 111.999 116.134 111.629L113.768 109.461L114.526 108.573L118.753 112.521L117.995 113.408L117.56 112.968C117.576 113.283 117.591 113.598 117.484 113.895C117.377 114.192 117.2 114.541 116.989 114.697C116.497 115.062 116.145 115.322 115.812 115.46Z" fill="#F3F3F4"/>
<path d="M103.294 121.347L106.916 118.885C106.655 118.533 106.254 118.286 105.887 118.231C105.52 118.176 105.064 118.296 104.712 118.556C104.22 118.92 103.954 119.444 104.055 120.022L102.948 120.732C102.776 120.206 102.798 119.646 103.063 119.123C103.207 118.581 103.647 118.146 104.21 117.73C104.632 117.418 105.158 117.246 105.666 117.197C106.174 117.148 106.664 117.221 107.117 117.539C107.588 117.734 107.971 118.104 108.265 118.649C108.629 119.141 108.801 119.667 108.85 120.175C108.899 120.683 108.826 121.173 108.578 121.574C108.383 122.045 108.013 122.428 107.539 122.67C107.117 122.982 106.59 123.154 106.153 123.151C105.645 123.2 105.226 123.075 104.754 122.879C104.353 122.632 103.9 122.314 103.658 121.84C103.484 121.751 103.328 121.54 103.294 121.347ZM104.833 121.515C105.094 121.866 105.372 122.096 105.81 122.098C106.177 122.153 106.633 122.034 106.984 121.773C107.336 121.513 107.565 121.235 107.62 120.867C107.675 120.5 107.678 120.063 107.488 119.659L104.833 121.515Z" fill="#F3F3F4"/>
<path d="M98.7132 126.043C98.6401 126.533 98.4445 127.004 98.1969 127.405C97.8972 127.736 97.4751 128.048 97.0713 128.238C96.7379 128.376 96.3524 128.443 95.9149 128.44C95.4773 128.438 95.1805 128.331 94.8316 128.153L95.8825 130.751L94.7598 131.146L91.9011 123.899L93.0239 123.504L93.3333 124.363C93.4403 124.066 93.6176 123.718 93.8469 123.439C94.0762 123.16 94.4279 122.9 94.8838 122.781C95.4099 122.609 95.7954 122.541 96.285 122.615C96.7746 122.688 97.1756 122.935 97.6286 123.253C98.0113 123.623 98.3236 124.045 98.4952 124.572C98.6668 125.098 98.7864 125.554 98.7132 126.043ZM94.6811 127.067C94.9596 127.297 95.2565 127.404 95.5013 127.44C95.7461 127.477 96.0612 127.461 96.3946 127.323C96.6577 127.238 96.9391 127.029 97.0981 126.803C97.2571 126.576 97.364 126.28 97.4709 125.983C97.5258 125.616 97.5104 125.3 97.3204 124.897C97.1826 124.563 96.9744 124.282 96.6958 124.052C96.4172 123.823 96.1204 123.716 95.8235 123.609C95.5267 123.502 95.2636 123.588 94.9302 123.726C94.6671 123.812 94.3857 124.02 94.2267 124.247C94.0677 124.473 93.9608 124.77 93.9059 125.137C93.851 125.504 93.8665 125.819 94.0564 126.223C94.1943 126.557 94.4025 126.838 94.6811 127.067Z" fill="#F3F3F4"/>
<path d="M80.3857 126.432C80.857 126.628 81.2397 126.998 81.4817 127.472C81.7237 127.946 81.8953 128.472 81.8742 129.032C81.9051 129.662 81.8319 130.152 81.514 130.605C81.3184 131.076 80.9484 131.459 80.4742 131.701C80.0001 131.943 79.5443 132.062 78.9661 132.164C78.4061 132.143 77.9165 132.069 77.4452 131.874C76.9739 131.678 76.5913 131.308 76.3493 130.834C76.037 130.412 75.9357 129.834 75.8865 129.326C75.8555 128.696 75.9287 128.206 76.2467 127.753C76.4422 127.282 76.8123 126.899 77.2864 126.657C77.7605 126.415 78.2867 126.243 78.7946 126.194C79.4431 126.041 79.9327 126.114 80.3857 126.432ZM78.0517 127.397C77.8407 127.553 77.5593 127.761 77.4524 128.058C77.3454 128.355 77.2202 128.774 77.2357 129.09C77.2328 129.527 77.3707 129.861 77.5086 130.194C77.6464 130.527 77.8729 130.686 78.1698 130.793C78.4666 130.9 78.7635 131.007 79.0786 130.992C79.3938 130.976 79.6569 130.89 79.9383 130.682C80.1493 130.526 80.4307 130.318 80.5376 130.021C80.6445 129.724 80.6994 129.357 80.7022 128.919C80.6713 128.289 80.5517 127.833 80.1691 127.463C79.7864 127.093 79.4192 127.038 78.9296 126.965C78.5962 127.103 78.3331 127.189 78.0517 127.397Z" fill="#F3F3F4"/>
<path d="M65.203 130.482C64.9244 130.253 64.6641 129.901 64.5446 129.445C64.425 128.989 64.4278 128.552 64.501 128.062L65.1876 124.724L66.3413 124.959L65.7433 128.123C65.6701 128.612 65.6673 129.05 65.8755 129.331C66.0837 129.613 66.3622 129.842 66.8518 129.915C67.2711 130.04 67.6566 129.973 68.0083 129.713C68.2897 129.504 68.5373 129.104 68.6105 128.614L69.2085 125.45L70.3621 125.685L69.2576 131.401L68.1039 131.166L68.2657 130.502C67.9844 130.71 67.7733 130.866 67.4582 130.882C67.143 130.897 66.7576 130.965 66.4607 130.858C65.8825 130.959 65.5336 130.782 65.203 130.482Z" fill="#F3F3F4"/>
<path d="M53.2301 125.189C52.8081 125.501 52.3522 125.621 51.8443 125.67C51.3365 125.719 50.8652 125.524 50.3418 125.258C49.7664 124.922 49.3317 124.481 49.0897 124.007C48.8477 123.533 48.8168 122.903 48.9603 122.361L50.0591 122.963C50.0225 123.208 50.038 123.523 50.1238 123.786C50.2096 124.049 50.4881 124.279 50.785 124.386C51.1859 124.633 51.6235 124.636 52.0793 124.517C52.4831 124.327 52.9052 124.014 53.1711 123.491C53.437 122.968 53.5805 122.426 53.513 122.041C53.3934 121.585 53.1332 121.233 52.7322 120.985C52.1568 120.649 51.5265 120.68 51.0861 121.115L49.9874 120.513C50.4277 120.078 50.9019 119.836 51.4801 119.735C52.0583 119.633 52.6 119.777 53.2457 120.061C53.7691 120.327 54.0997 120.627 54.3417 121.101C54.5836 121.575 54.7032 122.031 54.7004 122.468C54.6976 122.906 54.5541 123.447 54.2178 124.023C54.0222 124.494 53.7043 124.947 53.2301 125.189Z" fill="#F3F3F4"/>
<path d="M43.3119 121.642C43.3456 121.835 43.257 122.009 43.1683 122.184C43.0797 122.358 42.8166 122.444 42.6239 122.478C42.4311 122.512 42.2567 122.423 42.0822 122.334C41.9078 122.246 41.822 121.983 41.7882 121.79C41.7544 121.597 41.8431 121.423 41.9317 121.248C42.0204 121.074 42.2834 120.988 42.4762 120.954C42.6689 120.921 42.8434 121.009 43.0178 121.098C43.174 121.309 43.2781 121.45 43.3119 121.642ZM42.9714 120.152L46.5886 115.625L47.5467 116.331L43.9816 120.929L42.9714 120.152Z" fill="#F3F3F4"/>
<path d="M38.3092 115.764C38.0123 115.657 37.6634 115.48 37.3849 115.251L38.3359 114.329L38.5624 114.488C38.8931 114.788 39.242 114.965 39.5571 114.95C39.8722 114.934 40.276 114.744 40.7164 114.309L42.8479 112.188L43.647 113.121L39.595 117.208L38.7256 116.327L39.3067 115.788C39.0436 115.874 38.6764 115.819 38.3092 115.764Z" fill="#F3F3F4"/>
<path d="M35.0018 110.265C34.4939 110.314 34.0043 110.241 33.533 110.045C33.0617 109.85 32.6791 109.48 32.3668 109.058C31.9503 108.495 31.7267 107.898 31.7478 107.338C31.7689 106.778 31.9124 106.237 32.3528 105.802L33.1336 106.857C32.9746 107.084 32.8677 107.381 32.8831 107.696C32.8986 108.011 32.9844 108.274 33.1926 108.555C33.5049 108.977 33.8538 109.155 34.2914 109.158C34.7289 109.16 35.1848 109.041 35.7475 108.624C36.3103 108.208 36.61 107.877 36.6831 107.388C36.8083 106.969 36.6888 106.513 36.4285 106.161C36.0121 105.598 35.5408 105.403 34.8922 105.556L34.1114 104.501C34.7079 104.277 35.2679 104.298 35.8095 104.442C36.3512 104.585 36.8562 104.974 37.2727 105.536C37.585 105.958 37.7566 106.485 37.8058 106.992C37.8551 107.5 37.7819 107.99 37.5343 108.391C37.3387 108.862 36.9687 109.245 36.4763 109.609C35.9838 109.974 35.5097 110.216 35.0018 110.265Z" fill="#F3F3F4"/>
<path d="M25.6773 96.0449L31.0122 93.839L31.4779 94.9097L30.811 95.1854C31.1078 95.2923 31.4047 95.3993 31.6129 95.6807C31.8915 95.91 32.0997 96.1914 32.1855 96.4545C32.3754 96.8582 32.4429 97.2437 32.4401 97.6813C32.3852 98.0485 32.26 98.4677 31.9603 98.7983C31.6607 99.1289 31.3089 99.3892 30.8348 99.6312L27.6932 100.976L27.2275 99.9054L30.2285 98.6646C30.7026 98.4226 31.0543 98.1624 31.1612 97.8655C31.3385 97.5166 31.271 97.1311 31.1514 96.6753C30.9615 96.2715 30.7533 95.9901 30.334 95.8649C29.9851 95.6877 29.5997 95.7552 29.0735 95.9268L26.1246 97.2379L25.6773 96.0449Z" fill="#F3F3F4"/>
<path d="M23.086 90.7773C22.9973 90.9518 22.8567 91.0559 22.5936 91.1417C22.4008 91.1755 22.156 91.1389 21.9816 91.0502C21.8071 90.9616 21.703 90.8209 21.6172 90.5578C21.5834 90.3651 21.62 90.1203 21.7087 89.9458C21.7973 89.7714 21.938 89.6673 22.2011 89.5815C22.4642 89.4957 22.6386 89.5843 22.8131 89.6729C22.9875 89.7616 23.0916 89.9023 23.1774 90.1653C23.2112 90.3581 23.1746 90.6029 23.086 90.7773ZM23.7951 89.3817L29.4395 88.0355L29.7645 89.2102L24.12 90.5565L23.7951 89.3817Z" fill="#F3F3F4"/>
<path d="M23.8502 83.5713L27.0382 83.1718C27.231 83.1381 27.4237 83.1043 27.442 82.9819C27.5827 82.8778 27.5489 82.6851 27.5152 82.4923L27.4322 81.7917L28.448 81.6932L28.5647 82.5866C28.6139 83.0945 28.5408 83.5841 28.3114 83.8626C28.0821 84.1412 27.6783 84.3311 27.1001 84.4324L23.9121 84.8319L23.9951 85.5325L22.9793 85.631L22.8963 84.9303L21.4951 85.0963L21.3628 83.8878L22.7641 83.7218L22.5981 82.3205L23.6139 82.2221L23.8502 83.5713Z" fill="#F3F3F4"/>
<path d="M28.1185 78.4534C27.9778 78.5575 27.7667 78.7137 27.5219 78.6771C27.2771 78.6405 27.1547 78.6222 26.9282 78.4632C26.8241 78.3225 26.668 78.1115 26.7046 77.8667C26.6708 77.674 26.7594 77.4995 26.9705 77.3433C27.1815 77.1872 27.3222 77.0831 27.567 77.1197C27.7597 77.0859 27.9342 77.1745 28.1607 77.3335C28.2648 77.4742 28.3689 77.6149 28.3323 77.8597C28.2957 78.1045 28.3295 78.2972 28.1185 78.4534Z" fill="#F3F3F4"/>
</g>
<defs>
<clipPath id="clip0_506_7629">
<rect width="110" height="109.3" fill="white" transform="translate(0.280762 66.2847) rotate(-36.5)"/>
</clipPath>
</defs>
</svg>
