<svg width="148" height="149" viewBox="0 0 148 149" fill="none" xmlns="http://www.w3.org/2000/svg">
<g filter="url(#filter0_g_299_2474)">
<g clip-path="url(#clip0_299_2474)">
<path d="M71.8037 4.31348C72.9762 3.00735 75.0238 3.00735 76.1963 4.31348C77.5766 5.85087 79.8972 6.05838 81.5244 4.82129L81.6797 4.69727C82.9805 3.60245 84.923 3.83521 85.9336 5.1748L86.0283 5.30859C87.2184 7.07856 89.5992 7.5841 91.4062 6.45117C92.8468 5.54826 94.7376 6.04937 95.5518 7.5166L95.627 7.66211C96.5591 9.58035 98.8459 10.4122 100.793 9.54199C102.395 8.82572 104.265 9.65815 104.805 11.3281C105.461 13.3576 107.61 14.5001 109.659 13.9092C111.293 13.4381 112.972 14.4411 113.351 16.0762L113.384 16.2363C113.751 18.3373 115.719 19.7677 117.831 19.4678C119.569 19.221 121.136 20.536 121.195 22.29C121.267 24.4217 123.017 26.1125 125.149 26.1094C126.85 26.1068 128.188 27.534 128.101 29.21L128.088 29.373C127.862 31.4938 129.36 33.4114 131.473 33.7051C133.157 33.9393 134.284 35.5389 133.964 37.1865L133.929 37.3457C133.41 39.4144 134.626 41.5215 136.677 42.1064C138.365 42.5877 139.262 44.4273 138.603 46.0537C137.801 48.0299 138.712 50.2856 140.661 51.1504C142.266 51.8619 142.898 53.8084 142.019 55.3271C140.949 57.1727 141.538 59.5336 143.349 60.6611C144.838 61.589 145.194 63.6048 144.111 64.9863C142.796 66.665 143.05 69.0845 144.686 70.4531C146.032 71.5794 146.103 73.6254 144.839 74.8428C143.303 76.3221 143.218 78.7541 144.647 80.3369C145.823 81.6395 145.61 83.6746 144.188 84.7041C142.461 85.9552 142.038 88.3517 143.233 90.1182C144.217 91.5718 143.722 93.5572 142.171 94.3789C140.286 95.3774 139.535 97.6918 140.473 99.6074C141.244 101.184 140.477 103.082 138.827 103.68C136.885 104.384 135.823 106.458 136.36 108.43L136.417 108.62C136.962 110.289 135.939 112.061 134.222 112.424C132.135 112.864 130.774 114.882 131.147 116.981C131.455 118.709 130.194 120.322 128.443 120.441C126.316 120.587 124.688 122.396 124.766 124.527C124.829 126.281 123.357 127.703 121.606 127.578C119.479 127.426 117.614 128.99 117.395 131.111C117.214 132.857 115.558 134.06 113.842 133.692C111.756 133.246 109.693 134.535 109.18 136.605C108.758 138.309 106.951 139.27 105.303 138.668C103.3 137.936 101.076 138.925 100.28 140.903C99.6457 142.481 97.8211 143.187 96.2998 142.479L95.9756 142.316C94.1267 141.445 91.8995 142.13 90.8691 143.921C89.9938 145.442 87.9917 145.868 86.5732 144.834C84.8497 143.578 82.4405 143.916 81.1299 145.599C80.0514 146.983 78.0098 147.126 76.749 145.905C75.217 144.421 72.783 144.421 71.251 145.905C69.9902 147.126 67.9486 146.983 66.8701 145.599C65.5595 143.916 63.1503 143.578 61.4268 144.834C60.0083 145.868 58.0062 145.442 57.1309 143.921C56.1005 142.13 53.8733 141.445 52.0244 142.316L51.7002 142.479C50.2281 143.164 48.4722 142.525 47.7852 141.054L47.7197 140.903C46.9236 138.925 44.7004 137.936 42.6973 138.668C41.0489 139.27 39.2424 138.309 38.8203 136.605C38.3073 134.535 36.2436 133.246 34.1582 133.692C32.4419 134.06 30.7864 132.857 30.6055 131.111C30.3926 129.056 28.6364 127.524 26.5928 127.568L26.3936 127.578C24.6431 127.703 23.1707 126.281 23.2344 124.527C23.312 122.396 21.6844 120.587 19.5566 120.441C17.8602 120.325 16.6242 118.808 16.8281 117.143L16.8525 116.981C17.226 114.882 15.8652 112.864 13.7783 112.424C12.061 112.061 11.0381 110.289 11.583 108.62C12.2242 106.656 11.2431 104.543 9.3584 103.752L9.17285 103.68C7.57408 103.1 6.80463 101.301 7.45996 99.7559L7.52734 99.6074C8.46517 97.6918 7.71376 95.3774 5.8291 94.3789C4.32659 93.5829 3.81494 91.6947 4.67871 90.2559L4.7666 90.1182C5.92466 88.4068 5.56418 86.1038 3.96973 84.8242L3.81152 84.7041C2.43459 83.7066 2.19138 81.7655 3.24707 80.4609L3.35254 80.3369C4.73732 78.8036 4.70107 76.4734 3.30078 74.9844L3.16113 74.8428C1.93625 73.6634 1.96452 71.7066 3.19141 70.5615L3.31445 70.4531C4.89897 69.1273 5.18747 66.8149 4.00781 65.1455L3.88867 64.9863C2.8061 63.6048 3.16152 61.589 4.65137 60.6611C6.46177 59.5336 7.05062 57.1727 5.98145 55.3271C5.12911 53.8557 5.69608 51.983 7.19141 51.2207L7.33887 51.1504C9.28833 50.2856 10.1993 48.0299 9.39746 46.0537C8.73757 44.4273 9.63532 42.5877 11.3232 42.1064C13.3742 41.5215 14.5903 39.4144 14.0713 37.3457C13.6441 35.6433 14.7889 33.9468 16.5273 33.7051C18.6398 33.4114 20.1381 31.4938 19.9121 29.373C19.726 27.6277 21.0954 26.1068 22.8506 26.1094C24.9834 26.1125 26.7334 24.4217 26.8047 22.29C26.8635 20.536 28.4314 19.221 30.1689 19.4678C32.2806 19.7677 34.2489 18.3373 34.6162 16.2363C34.909 14.5614 36.5473 13.4913 38.1826 13.8682L38.3408 13.9092C40.3902 14.5001 42.5392 13.3576 43.1953 11.3281C43.7353 9.65815 45.6047 8.82572 47.207 9.54199C49.0932 10.385 51.2978 9.63062 52.2812 7.83887L52.373 7.66211C53.1401 6.08349 55.1067 5.51909 56.5938 6.45117C58.4008 7.5841 60.7816 7.07856 61.9717 5.30859C62.9205 3.89744 64.8517 3.58604 66.1924 4.5957L66.3203 4.69727C67.9521 6.0705 70.3789 5.90043 71.8037 4.31348Z" fill="#F3F3F3" stroke="#211F20"/>
<g clip-path="url(#clip1_299_2474)">
<path d="M19.9798 68.5596C19.4847 68.1883 19.1135 67.5695 18.9278 67.0126C18.6803 66.3938 18.6803 65.775 18.7422 65.0944C18.866 64.3518 19.1753 63.6711 19.6704 63.1761C20.1654 62.6811 20.7842 62.3098 21.4649 62.1242L21.2792 63.5474C20.908 63.6711 20.5367 63.9187 20.2892 64.1662C20.0417 64.4137 19.856 64.8468 19.7941 65.28C19.6704 65.775 19.7323 66.2082 19.9179 66.6413C20.1035 67.0745 20.2892 67.3839 20.7223 67.6933C21.1555 68.0027 21.5267 68.1264 22.0218 68.2502C22.5787 68.3121 23.0737 68.3121 23.445 68.1883C23.8163 68.0645 24.2494 67.7552 24.4969 67.5076C24.7444 67.2601 24.992 66.7651 25.0538 66.3319C25.1157 65.8988 25.1157 65.5275 24.992 65.1562C24.8682 64.785 24.6207 64.5375 24.3113 64.2281L24.4969 62.8048C25.1157 63.1761 25.6108 63.6711 25.8583 64.4137C26.1677 65.0944 26.2295 65.775 26.0439 66.5795C25.982 67.2601 25.6726 67.817 25.2395 68.3739C24.8063 68.9309 24.3113 69.3021 23.7544 69.4878C23.1975 69.6734 22.4549 69.7972 21.7743 69.6115C21.0936 69.4259 20.4129 68.9927 19.9798 68.5596Z" fill="#211F20"/>
<path d="M28.6429 55.9363C28.2097 56.2457 27.7766 56.4313 27.2815 56.4313C26.7246 56.4932 26.2296 56.3694 25.7346 56.1219C25.2395 55.8744 24.8064 55.565 24.497 55.1318C24.1876 54.6987 24.0019 54.2655 23.9401 53.7086C23.9401 53.2136 24.0019 52.6567 24.2495 52.1617C24.4351 51.7285 24.7445 51.2953 25.1158 51.0478C25.5489 50.7384 25.9821 50.5528 26.539 50.4909C27.0959 50.429 27.5909 50.5528 28.1478 50.7384C28.6429 50.986 29.076 51.2953 29.3854 51.7285C29.6948 52.1617 29.8804 52.5948 29.9423 53.1517C30.0042 53.7086 29.8804 54.2037 29.6329 54.6987C29.3854 55.1937 29.076 55.6269 28.6429 55.9363ZM28.8285 53.3992C28.7666 53.0898 28.7047 52.7804 28.4572 52.5329C28.2716 52.2235 27.9622 52.0379 27.5909 51.9141C27.2196 51.7904 26.8484 51.6666 26.539 51.7285C26.2296 51.7904 25.9202 51.8523 25.6727 52.0998C25.487 52.2854 25.2395 52.5329 25.1158 52.7804C24.992 53.028 24.9301 53.3374 24.992 53.6467C25.0539 53.9561 25.1158 54.2655 25.3633 54.5131C25.6108 54.7606 25.8583 55.0081 26.2296 55.1318C26.8484 55.3794 27.2815 55.4412 27.7147 55.2556C28.1478 55.07 28.5191 54.8224 28.7047 54.3893C28.8285 54.018 28.8904 53.7086 28.8285 53.3992Z" fill="#211F20"/>
<path d="M31.7987 40.4047C32.1699 40.2809 32.5412 40.1572 32.9744 40.219C33.4075 40.2809 33.8407 40.4666 34.2119 40.8378L36.9346 42.9417L36.2539 43.8699L33.655 41.8898C33.2219 41.5804 32.8506 41.4566 32.4793 41.4566C32.1081 41.4566 31.7368 41.7041 31.4893 42.0754C31.2418 42.4467 31.118 42.818 31.1799 43.1273C31.2418 43.5605 31.4893 43.808 31.8605 44.1793L34.4595 46.1594L33.7169 47.1495L29.076 43.6224L29.8185 42.6323L30.3754 43.0655C30.3136 42.7561 30.3136 42.5086 30.4373 42.1373C30.5611 41.766 30.6848 41.5185 30.8705 41.2091C31.118 40.8378 31.3655 40.5903 31.7987 40.4047Z" fill="#211F20"/>
<path d="M40.7092 31.6179C41.1423 31.5561 41.5136 31.5561 41.8849 31.6798C42.2562 31.8036 42.6893 32.113 42.9987 32.5461L45.1645 35.2069L44.2982 35.9495L42.2562 33.4124C41.9468 32.9793 41.5755 32.7318 41.2042 32.7318C40.833 32.7318 40.4617 32.8555 40.0904 33.103C39.781 33.4124 39.5954 33.7218 39.5335 34.155C39.4716 34.5881 39.5954 34.9594 39.9048 35.3926L42.0086 37.8677L41.0805 38.6721L37.3677 34.2169L38.2959 33.4124L38.7291 33.9693C38.7291 33.7218 38.8528 33.3506 38.9766 33.103C39.1622 32.7936 39.286 32.5461 39.5954 32.3605C39.9048 31.9273 40.3379 31.7417 40.7092 31.6179Z" fill="#211F20"/>
<path d="M53.8276 27.5339L49.8673 29.514C50.1149 29.8853 50.4243 30.1947 50.8574 30.2566C51.2287 30.3803 51.6618 30.3185 52.095 30.1328C52.6519 29.8234 52.9613 29.3903 52.9613 28.7715L54.137 28.2146C54.1989 28.7715 54.137 29.3284 53.8895 29.8234C53.642 30.3185 53.2088 30.7516 52.59 30.9991C52.095 31.2467 51.6 31.3704 51.1049 31.3704C50.6099 31.3704 49.9292 31.1848 49.4961 30.8754C49.0629 30.566 48.7535 30.1328 48.506 29.6378C48.2585 29.1428 48.0729 28.5859 48.1347 28.029C48.1347 27.5339 48.2585 27.0389 48.5679 26.6057C48.8773 26.1726 49.2486 25.8013 49.8055 25.6157C50.3005 25.3682 50.7955 25.2444 51.2906 25.2444C51.7856 25.2444 52.2187 25.43 52.6519 25.7394C53.085 26.0488 53.3326 26.4201 53.5801 26.9151C53.642 27.2245 53.7038 27.4102 53.8276 27.5339ZM52.2806 27.2245C52.095 26.7914 51.7856 26.6057 51.4143 26.482C51.043 26.3582 50.6099 26.4201 50.1767 26.6057C49.8055 26.7295 49.558 27.1008 49.3723 27.4102C49.2486 27.7814 49.2486 28.1527 49.3723 28.6477L52.2806 27.2245Z" fill="#211F20"/>
<path d="M58.9017 23.5736C59.0254 23.0786 59.2729 22.7073 59.6442 22.3361C60.0155 21.9648 60.4486 21.7792 61.0055 21.5935C61.6862 21.4079 62.305 21.4079 62.8 21.6554C63.3569 21.841 63.7282 22.2123 64.0376 22.7692L62.7382 23.0786C62.6144 22.8311 62.305 22.6455 62.0575 22.5217C61.81 22.398 61.5006 22.4598 61.1293 22.4598C60.758 22.7073 60.3868 22.9549 60.2011 23.388C60.0155 23.8212 60.0155 24.3162 60.1392 24.935C60.263 25.5538 60.5724 25.9869 60.9437 26.2344C61.3149 26.482 61.7481 26.5438 62.1812 26.482C62.8619 26.2963 63.2332 25.925 63.2951 25.2444L64.5945 24.935C64.5945 25.5538 64.347 26.0488 63.9757 26.5438C63.6045 27.0389 63.1094 27.2864 62.4288 27.472C61.9337 27.5958 61.4387 27.5958 60.9437 27.472C60.4486 27.3483 60.0774 27.1007 59.7061 26.7295C59.3348 26.3582 59.0873 25.8632 59.0254 25.3063C58.9635 24.7493 58.7779 24.0687 58.9017 23.5736Z" fill="#211F20"/>
<path d="M70.5349 21.2223L70.7824 24.44C70.7824 24.6875 70.9061 24.8112 70.968 24.8731C71.0299 24.935 71.2155 24.9969 71.463 24.9969L72.2056 24.9969L72.2675 26.0488L71.3393 26.1107C70.7824 26.1726 70.4111 26.0488 70.0398 25.8013C69.6686 25.5538 69.5448 25.1825 69.5448 24.5637L69.2973 21.346L68.6166 21.4079L68.5547 20.4797L69.2354 20.4178L69.1735 18.9946L70.3492 18.9327L70.4111 20.356L71.8343 20.2941L71.8962 21.2223L70.5349 21.2223Z" fill="#211F20"/>
<path d="M76.9703 20.2322L76.7228 26.0488L75.5471 25.9869L75.7946 20.1703L76.9703 20.2322ZM75.9184 19.1802C75.7946 19.0565 75.7327 18.8708 75.7327 18.6233C75.7327 18.3758 75.8565 18.252 75.9802 18.1283C76.104 18.0045 76.2896 17.9427 76.5371 17.9427C76.7847 17.9427 76.9084 18.0664 77.0322 18.1902C77.1559 18.3139 77.2178 18.4996 77.2178 18.7471C77.2178 18.9946 77.0941 19.1183 76.9703 19.2421C76.8465 19.3659 76.6609 19.4277 76.4134 19.4277C76.2896 19.4277 76.104 19.3659 75.9184 19.1802Z" fill="#211F20"/>
<path d="M82.4775 26.3582C82.1062 25.9869 81.8587 25.6156 81.673 25.0587C81.5493 24.5637 81.4874 24.0068 81.673 23.4499C81.7968 22.8311 81.9824 22.3979 82.3537 22.0267C82.725 21.6554 83.1581 21.346 83.6532 21.2222C84.1482 21.0985 84.6432 21.0985 85.2001 21.1604C85.6952 21.2841 86.1902 21.5316 86.6233 21.841C86.9946 22.2123 87.2421 22.5836 87.4896 23.0786C87.6134 23.5736 87.6753 24.1306 87.5515 24.7493C87.4278 25.3681 87.2421 25.8013 86.8709 26.1726C86.4996 26.5438 86.0664 26.8532 85.5714 26.977C85.0764 27.1007 84.5195 27.1626 84.0244 27.0389C83.2819 26.9151 82.8487 26.7295 82.4775 26.3582ZM84.9526 25.9869C85.262 25.925 85.5095 25.6775 85.6952 25.4919C85.9427 25.2444 86.0664 24.8731 86.1902 24.5018C86.2521 24.0687 86.2521 23.6974 86.1902 23.388C86.1283 23.0786 85.9427 22.7692 85.6952 22.6455C85.5095 22.4598 85.2001 22.2742 84.8907 22.2123C84.5813 22.1504 84.3338 22.1504 84.0244 22.2123C83.715 22.2742 83.5294 22.4598 83.2819 22.7073C83.0344 22.9549 82.9106 23.3261 82.7869 23.6974C82.6631 24.3162 82.6631 24.8112 82.9725 25.2444C83.22 25.6156 83.5913 25.8632 84.0863 25.9869C84.3338 26.1107 84.6432 26.0488 84.9526 25.9869Z" fill="#211F20"/>
<path d="M98.2566 26.0488C98.5041 26.4201 98.6279 26.7913 98.6279 27.1626C98.6279 27.5339 98.5041 28.0289 98.3803 28.524L96.8952 31.6179L95.7814 31.1229L97.1428 28.1527C97.3903 27.6576 97.3903 27.2864 97.2665 26.9151C97.1428 26.5438 96.8952 26.2963 96.4621 26.1107C96.0289 25.925 95.6577 25.925 95.2864 26.0488C94.9151 26.1726 94.6057 26.4819 94.4201 26.9151L93.0588 29.8853L91.9449 29.3903L94.3582 24.1306L95.472 24.6256L95.2245 25.2444C95.472 25.1206 95.7814 25.0587 96.1527 25.0587C96.524 25.0587 96.8334 25.1206 97.1428 25.3062C97.6997 25.4919 98.0709 25.7394 98.2566 26.0488Z" fill="#211F20"/>
<path d="M110.014 34.0931C110.323 34.1549 110.632 34.3406 111.004 34.5881L110.199 35.5163L110.014 35.3306C109.704 35.0212 109.333 34.8975 108.962 34.8975C108.59 34.8975 108.219 35.145 107.91 35.5781L105.868 37.8677L104.94 37.0632L108.714 32.6698L109.642 33.4743L109.085 34.1549C109.395 33.9693 109.704 34.0312 110.014 34.0931Z" fill="#211F20"/>
<path d="M115.459 44.7362L112.674 41.3328C112.365 41.6422 112.117 42.0135 112.117 42.3848C112.056 42.8179 112.179 43.1892 112.489 43.4986C112.86 43.9936 113.417 44.1793 113.974 43.9936L114.778 45.0456C114.221 45.2312 113.726 45.2312 113.169 45.1693C112.612 44.9837 112.117 44.7362 111.684 44.1793C111.375 43.7461 111.127 43.2511 111.066 42.8179C110.942 42.3229 111.066 41.8279 111.251 41.3947C111.437 40.9616 111.808 40.4665 112.241 40.1571C112.736 39.7859 113.231 39.5384 113.664 39.4765C114.159 39.3527 114.654 39.4765 115.15 39.6002C115.583 39.7859 116.016 40.0953 116.387 40.5903C116.696 41.0234 116.944 41.5185 117.006 41.9516C117.13 42.4467 117.068 42.8798 116.82 43.3748C116.635 43.808 116.325 44.2411 115.892 44.5505C115.768 44.5505 115.645 44.6743 115.459 44.7362ZM115.521 43.1892C115.83 42.8798 116.016 42.5704 116.078 42.1373C116.078 41.766 115.954 41.3947 115.645 40.9616C115.397 40.5903 115.026 40.4665 114.654 40.3428C114.221 40.2809 113.912 40.3428 113.541 40.5903L115.521 43.1892Z" fill="#211F20"/>
<path d="M121.523 48.0778L116.511 50.9861L115.954 49.9341L120.966 47.0258L121.523 48.0778ZM121.771 46.5927C121.832 46.407 121.956 46.2833 122.142 46.0976C122.327 46.0358 122.513 45.9739 122.699 46.0358C122.884 46.0976 123.008 46.2214 123.194 46.407C123.256 46.5927 123.318 46.7783 123.256 46.9639C123.194 47.1496 123.07 47.2733 122.884 47.459C122.699 47.6446 122.513 47.5827 122.327 47.5208C122.142 47.459 122.018 47.3352 121.832 47.1496C121.771 46.9639 121.709 46.7783 121.771 46.5927Z" fill="#211F20"/>
<path d="M126.968 62.6811C126.906 63.1143 126.721 63.4237 126.411 63.7331C126.102 64.0424 125.731 64.29 125.236 64.4137L121.956 65.3419L121.647 64.1662L124.741 63.2999C125.236 63.1761 125.607 62.9286 125.793 62.6192C125.978 62.3098 126.04 61.8767 125.916 61.5054C125.793 61.1341 125.545 60.7629 125.236 60.5772C124.926 60.3916 124.431 60.3916 123.998 60.5772L120.904 61.4435L120.595 60.2678L123.689 59.4015C124.184 59.2778 124.555 59.0303 124.741 58.7209C124.926 58.4115 124.988 57.9783 124.864 57.607C124.741 57.2358 124.493 56.8645 124.184 56.6789C123.874 56.4932 123.379 56.4932 122.946 56.6789L119.852 57.5452L119.543 56.3695L125.112 54.7606L125.421 55.9363L124.741 56.122C124.988 56.2457 125.298 56.4313 125.483 56.7407C125.731 56.9883 125.855 57.2358 125.978 57.607C126.102 58.1021 126.102 58.4734 126.04 58.9065C125.978 59.3397 125.793 59.6491 125.483 59.9584C125.916 60.0203 126.226 60.206 126.535 60.5154C126.845 60.8247 127.03 61.1341 127.216 61.5673C127.03 61.8767 127.092 62.3098 126.968 62.6811Z" fill="#211F20"/>
<path d="M127.03 72.8911C127.525 73.1386 127.835 73.448 128.02 73.8811C128.268 74.2524 128.392 74.7474 128.392 75.2425C128.392 75.7375 128.268 76.1088 128.082 76.4182C127.897 76.7276 127.711 77.037 127.402 77.2226L128.268 77.2226L128.268 78.4602L122.451 78.3364L122.451 77.0988L123.318 77.0988C123.07 76.8513 122.822 76.6038 122.637 76.2944C122.451 75.985 122.389 75.5519 122.389 75.0568C122.389 74.5618 122.575 74.1286 122.761 73.6955C123.008 73.3242 123.379 72.953 123.874 72.7054C124.369 72.4579 124.864 72.3342 125.421 72.396C126.102 72.4579 126.659 72.6436 127.03 72.8911ZM126.473 77.037C126.783 76.8513 126.968 76.6657 127.154 76.3563C127.278 76.1088 127.402 75.8613 127.402 75.49C127.463 75.1806 127.34 74.9331 127.154 74.6237C127.03 74.3762 126.783 74.1287 126.473 73.943C126.164 73.7574 125.855 73.6955 125.483 73.6955C125.112 73.6955 124.679 73.7574 124.431 73.8811C124.122 74.0668 123.936 74.2524 123.689 74.4999C123.441 74.7474 123.441 74.995 123.441 75.3662C123.379 75.6756 123.503 75.9231 123.689 76.2325C123.813 76.48 124.06 76.7276 124.369 76.9132C124.679 77.0988 124.988 77.1607 125.421 77.2226C125.855 77.2845 126.164 77.0988 126.473 77.037Z" fill="#211F20"/>
<path d="M126.102 89.4128C125.855 89.6603 125.607 89.9078 125.236 90.0316L126.04 90.2172L125.731 91.3929L120.038 89.9078C119.543 89.784 119.048 89.5365 118.739 89.2271C118.429 88.9177 118.182 88.5465 118.058 88.0514C117.934 87.5564 117.934 87.0614 118.12 86.5045C118.367 85.7619 118.677 85.205 119.11 84.7718C119.543 84.3387 120.162 84.2149 120.781 84.3387L120.471 85.5144C120.162 85.5763 119.852 85.6381 119.605 85.8857C119.357 86.1332 119.172 86.4426 119.048 86.8138C118.924 87.3089 118.924 87.6802 119.172 88.0514C119.419 88.4227 119.79 88.6702 120.286 88.794L121.276 89.0415C121.028 88.794 120.904 88.4227 120.781 88.0514C120.657 87.6802 120.719 87.247 120.781 86.8138C120.904 86.3188 121.152 85.9475 121.523 85.5763C121.894 85.205 122.328 85.0194 122.823 84.8956C123.318 84.7718 123.874 84.8337 124.37 84.9575C124.926 85.1431 125.421 85.3906 125.731 85.7C126.102 86.0713 126.35 86.4426 126.473 86.9376C126.597 87.4326 126.597 87.9277 126.473 88.4227C126.597 88.794 126.412 89.1034 126.102 89.4128ZM124.37 89.5365C124.679 89.4746 124.988 89.289 125.174 89.1034C125.421 88.8558 125.545 88.6083 125.607 88.2989C125.669 87.9895 125.669 87.742 125.607 87.4326C125.545 87.1232 125.421 86.8757 125.174 86.6282C124.926 86.3807 124.617 86.1951 124.246 86.0713C123.874 85.9475 123.503 85.9475 123.194 86.0094C122.884 86.0713 122.575 86.2569 122.389 86.4426C122.204 86.6282 122.018 86.9376 121.956 87.247C121.894 87.5564 121.894 87.8039 121.956 88.1133C122.018 88.4227 122.204 88.7321 122.389 88.9177C122.637 89.1652 122.946 89.3509 123.379 89.4128C123.689 89.5984 124.06 89.5984 124.37 89.5365Z" fill="#211F20"/>
<path d="M123.132 97.952L117.872 95.5388L118.367 94.4249L123.627 96.8382L123.132 97.952ZM124.493 97.3333C124.679 97.2714 124.926 97.2714 125.112 97.3333C125.298 97.3951 125.483 97.5808 125.545 97.7664C125.607 97.952 125.607 98.1996 125.545 98.3852C125.483 98.5708 125.36 98.6946 125.112 98.8183C124.865 98.9421 124.679 98.8802 124.493 98.8183C124.308 98.7565 124.122 98.5708 124.06 98.3852C123.998 98.1996 123.998 97.952 124.122 97.8283C124.184 97.5189 124.308 97.3951 124.493 97.3333Z" fill="#211F20"/>
<path d="M117.996 106.306C117.687 106.491 117.253 106.553 116.82 106.491C116.387 106.429 115.954 106.244 115.583 105.996L112.798 104.078L113.417 103.088L116.078 104.882C116.511 105.192 116.882 105.316 117.315 105.254C117.748 105.192 117.996 104.944 118.243 104.573C118.491 104.202 118.615 103.831 118.491 103.459C118.367 103.088 118.182 102.779 117.748 102.469L115.088 100.675L115.706 99.6847L120.471 102.964L119.852 103.954L119.357 103.583C119.419 103.892 119.481 104.202 119.419 104.511C119.357 104.821 119.234 105.192 119.048 105.378C118.615 105.811 118.305 106.12 117.996 106.306Z" fill="#211F20"/>
<path d="M106.486 113.979L109.704 111.009C109.395 110.699 108.962 110.513 108.59 110.513C108.219 110.513 107.786 110.699 107.477 111.009C107.043 111.442 106.858 111.999 107.043 112.555L106.053 113.422C105.806 112.927 105.744 112.37 105.93 111.813C105.991 111.256 106.363 110.761 106.858 110.266C107.229 109.895 107.724 109.647 108.219 109.523C108.714 109.4 109.209 109.4 109.704 109.647C110.199 109.771 110.632 110.08 111.004 110.575C111.437 111.009 111.684 111.504 111.808 111.999C111.932 112.494 111.932 112.989 111.746 113.422C111.622 113.917 111.313 114.35 110.88 114.659C110.509 115.031 110.014 115.278 109.58 115.34C109.085 115.464 108.652 115.402 108.157 115.278C107.724 115.093 107.229 114.845 106.92 114.412C106.734 114.35 106.548 114.164 106.486 113.979ZM108.033 113.917C108.343 114.226 108.652 114.412 109.085 114.35C109.457 114.35 109.89 114.164 110.199 113.855C110.509 113.546 110.694 113.236 110.694 112.865C110.694 112.494 110.632 112.06 110.385 111.689L108.033 113.917Z" fill="#211F20"/>
<path d="M102.65 119.3C102.65 119.795 102.526 120.29 102.341 120.723C102.093 121.095 101.722 121.466 101.351 121.714C101.041 121.899 100.67 122.023 100.237 122.085C99.8036 122.147 99.4942 122.085 99.1229 121.961L100.546 124.374L99.4942 124.931L95.5958 118.186L96.6478 117.63L97.0809 118.434C97.1428 118.125 97.2666 117.753 97.4522 117.444C97.6378 117.135 97.9472 116.825 98.3804 116.639C98.8754 116.392 99.2467 116.268 99.7417 116.268C100.237 116.268 100.67 116.454 101.165 116.701C101.598 117.011 101.969 117.382 102.217 117.877C102.464 118.372 102.65 118.805 102.65 119.3ZM98.8135 120.909C99.1229 121.095 99.4323 121.157 99.6798 121.157C99.9273 121.157 100.237 121.095 100.546 120.909C100.794 120.785 101.041 120.538 101.165 120.29C101.289 120.043 101.351 119.733 101.412 119.424C101.412 119.053 101.351 118.743 101.103 118.372C100.917 118.063 100.67 117.815 100.36 117.63C100.051 117.444 99.7417 117.382 99.4323 117.32C99.1229 117.258 98.8754 117.382 98.566 117.568C98.3185 117.691 98.071 117.939 97.9472 118.186C97.8235 118.434 97.7616 118.743 97.7616 119.115C97.7616 119.486 97.8235 119.795 98.071 120.167C98.2566 120.476 98.5041 120.724 98.8135 120.909Z" fill="#211F20"/>
<path d="M84.5813 122.394C85.0763 122.518 85.5095 122.827 85.8189 123.261C86.1283 123.694 86.3758 124.189 86.4377 124.746C86.5614 125.364 86.5614 125.859 86.3139 126.355C86.1902 126.85 85.8808 127.283 85.4476 127.592C85.0145 127.901 84.5813 128.087 84.0244 128.273C83.4675 128.335 82.9725 128.335 82.4774 128.211C81.9824 128.087 81.5492 127.778 81.2398 127.345C80.8686 126.973 80.6829 126.416 80.5592 125.921C80.4354 125.303 80.4354 124.808 80.6829 124.312C80.8067 123.817 81.1161 123.384 81.5492 123.075C81.9824 122.766 82.4774 122.518 82.9725 122.394C83.5912 122.147 84.0863 122.147 84.5813 122.394ZM82.4155 123.694C82.2299 123.879 81.9824 124.127 81.9205 124.436C81.8586 124.746 81.7968 125.179 81.8586 125.488C81.9205 125.921 82.1062 126.231 82.2918 126.54C82.4774 126.85 82.7249 126.973 83.0343 127.035C83.3437 127.097 83.6531 127.159 83.9625 127.097C84.2719 127.035 84.5194 126.911 84.7669 126.664C84.9526 126.478 85.2001 126.231 85.262 125.921C85.3239 125.612 85.3239 125.241 85.262 124.808C85.1382 124.189 84.9526 123.756 84.5194 123.446C84.0863 123.137 83.715 123.137 83.22 123.137C82.9106 123.322 82.6631 123.446 82.4155 123.694Z" fill="#211F20"/>
<path d="M70.1635 128.644C69.8542 128.458 69.5448 128.149 69.3591 127.716C69.1735 127.283 69.1116 126.85 69.1116 126.355L69.2972 122.951L70.4729 123.013L70.3492 126.231C70.3492 126.726 70.4111 127.159 70.6586 127.406C70.9061 127.654 71.2155 127.84 71.7105 127.84C72.1437 127.901 72.5149 127.778 72.8243 127.468C73.0719 127.221 73.2575 126.788 73.2575 126.293L73.3812 123.075L74.5569 123.137L74.3094 128.953L73.1337 128.892L73.1956 128.211C72.9481 128.458 72.7625 128.644 72.4531 128.706C72.1437 128.768 71.7724 128.892 71.463 128.83C70.9061 129.015 70.5348 128.892 70.1635 128.644Z" fill="#211F20"/>
<path d="M57.5403 125.179C57.169 125.55 56.7358 125.736 56.2408 125.859C55.7458 125.983 55.2507 125.859 54.6938 125.674C54.075 125.426 53.58 125.055 53.2706 124.622C52.9612 124.189 52.8375 123.57 52.8993 123.013L54.075 123.446C54.075 123.694 54.1369 124.003 54.2607 124.251C54.3844 124.498 54.6938 124.684 55.0032 124.746C55.4364 124.931 55.8695 124.869 56.3027 124.684C56.674 124.436 57.0452 124.065 57.2309 123.508C57.4165 122.951 57.4784 122.394 57.3546 122.023C57.169 121.59 56.8596 121.28 56.4264 121.095C55.8077 120.847 55.1889 120.971 54.8176 121.466L53.6419 121.033C54.0132 120.538 54.4463 120.228 55.0032 120.043C55.5601 119.857 56.117 119.919 56.7977 120.105C57.3546 120.29 57.7259 120.538 58.0353 120.971C58.3447 121.404 58.5303 121.837 58.5922 122.27C58.6541 122.704 58.5922 123.261 58.3447 123.879C58.2209 124.374 57.9734 124.869 57.5403 125.179Z" fill="#211F20"/>
<path d="M47.2065 123.137C47.2684 123.322 47.2065 123.508 47.1446 123.694C47.0827 123.879 46.8352 124.003 46.6496 124.065C46.464 124.127 46.2783 124.065 46.0927 124.003C45.907 123.941 45.7833 123.694 45.7214 123.508C45.6595 123.322 45.7214 123.137 45.7833 122.951C45.8452 122.766 46.0927 122.642 46.2783 122.58C46.464 122.518 46.6496 122.58 46.8352 122.642C47.0209 122.827 47.1446 122.951 47.2065 123.137ZM46.6496 121.714L49.5579 116.701L50.6098 117.258L47.7634 122.332L46.6496 121.714Z" fill="#211F20"/>
<path d="M41.3899 118.063C41.0805 118.001 40.7092 117.877 40.3998 117.691L41.2042 116.64L41.4518 116.763C41.823 117.011 42.1943 117.135 42.5037 117.073C42.8131 117.011 43.1844 116.763 43.5556 116.268L45.3501 113.855L46.2783 114.659L42.875 119.3L41.8849 118.558L42.3799 117.939C42.1324 118.063 41.7612 118.063 41.3899 118.063Z" fill="#211F20"/>
<path d="M37.3059 113.112C36.8109 113.236 36.3158 113.236 35.8208 113.112C35.3258 112.989 34.8926 112.679 34.5213 112.308C34.0263 111.813 33.7169 111.256 33.655 110.699C33.5932 110.142 33.655 109.585 34.0263 109.09L34.9545 110.018C34.8307 110.266 34.7689 110.575 34.8307 110.885C34.8926 111.194 35.0164 111.442 35.2639 111.689C35.6352 112.06 36.0064 112.184 36.4396 112.122C36.8727 112.06 37.3059 111.875 37.8009 111.38C38.296 110.885 38.5435 110.513 38.5435 110.018C38.6054 109.585 38.4197 109.152 38.1103 108.843C37.6153 108.348 37.1203 108.224 36.5015 108.471L35.5733 107.543C36.1302 107.234 36.6871 107.172 37.244 107.234C37.8009 107.296 38.3578 107.605 38.8529 108.1C39.2241 108.471 39.4717 108.967 39.5954 109.462C39.7192 109.957 39.7192 110.452 39.5335 110.885C39.4098 111.38 39.1004 111.813 38.6672 112.246C38.2341 112.679 37.8009 112.989 37.3059 113.112Z" fill="#211F20"/>
<path d="M25.982 100.427L30.9323 97.457L31.5511 98.4471L30.9323 98.8184C31.2417 98.8803 31.5511 98.9421 31.7986 99.1896C32.108 99.3753 32.3555 99.6228 32.4793 99.8703C32.7268 100.242 32.8506 100.613 32.9125 101.046C32.9125 101.417 32.8506 101.85 32.6031 102.222C32.3555 102.593 32.0461 102.902 31.613 103.212L28.7047 105.006L28.0859 104.016L30.8704 102.345C31.3036 102.036 31.613 101.727 31.6749 101.417C31.7986 101.046 31.6749 100.675 31.4892 100.242C31.2417 99.8703 30.9942 99.6228 30.5611 99.5609C30.1898 99.4372 29.8185 99.5609 29.3235 99.8084L26.6008 101.541L25.982 100.427Z" fill="#211F20"/>
<path d="M22.6405 95.6007C22.5787 95.7863 22.4549 95.91 22.2074 96.0338C22.0218 96.0957 21.7742 96.0957 21.5886 96.0338C21.403 95.9719 21.2792 95.8482 21.1554 95.6007C21.0936 95.415 21.0936 95.1675 21.1554 94.9819C21.2173 94.7962 21.3411 94.6725 21.5886 94.5487C21.8361 94.425 22.0218 94.4868 22.2074 94.5487C22.393 94.6106 22.5168 94.7344 22.6405 94.9819C22.7024 95.1675 22.7024 95.415 22.6405 95.6007ZM23.1356 94.1156L28.519 91.9498L29.0141 93.0636L23.6306 95.2294L23.1356 94.1156Z" fill="#211F20"/>
<path d="M22.3312 88.3608L25.4251 87.4945C25.6107 87.4327 25.7964 87.3708 25.7964 87.247C25.9201 87.1233 25.8583 86.9376 25.7964 86.752L25.6107 86.0713L26.6008 85.8238L26.8483 86.6901C26.9721 87.1851 26.9721 87.6802 26.7864 87.9896C26.6008 88.299 26.2295 88.5465 25.6726 88.7321L22.5787 89.5984L22.7643 90.2791L21.7743 90.5266L21.5886 89.8459L20.2273 90.2172L19.9179 89.0415L21.2792 88.6702L20.908 87.3089L21.898 87.0614L22.3312 88.3608Z" fill="#211F20"/>
<path d="M25.7964 82.668C25.6726 82.7918 25.487 82.9774 25.2395 82.9774C24.992 82.9774 24.8682 82.9774 24.6207 82.8537C24.4969 82.7299 24.3113 82.5443 24.3113 82.2967C24.2494 82.1111 24.3113 81.9255 24.4969 81.7398C24.6826 81.5542 24.8063 81.4304 25.0538 81.4304C25.2395 81.3686 25.4251 81.4304 25.6726 81.5542C25.7964 81.678 25.9201 81.8017 25.9201 82.0492C25.9201 82.2967 25.982 82.4824 25.7964 82.668Z" fill="#211F20"/>
</g>
<path d="M62.9408 56.0684L61.2317 56.3202C56.7187 57.2639 53.24 61.029 52.6512 65.6167C52.6162 65.8781 52.6321 66.1746 52.5589 66.4265C52.5812 66.9079 52.5303 67.402 52.5589 67.8803C52.7753 71.553 54.7709 75.0025 57.2215 77.6422L74.6212 95.0684L92.0655 77.5976C93.9337 75.5413 95.4996 73.1215 96.1775 70.3925C98.243 62.062 91.4226 54.7867 83.0012 56.4414C79.7835 57.0726 76.9128 58.9918 74.6212 61.2681C72.0528 58.6985 68.7842 56.6231 65.1146 56.164C64.8409 56.1289 64.5226 56.0843 64.2616 56.0715H62.9408V56.0684Z" fill="#1C50D8"/>
</g>
</g>
<defs>
<filter id="filter0_g_299_2474" x="0.5" y="0.5" width="147" height="148" filterUnits="userSpaceOnUse" color-interpolation-filters="sRGB">
<feFlood flood-opacity="0" result="BackgroundImageFix"/>
<feBlend mode="normal" in="SourceGraphic" in2="BackgroundImageFix" result="shape"/>
<feTurbulence type="fractalNoise" baseFrequency="2 2" numOctaves="3" seed="9034" />
<feDisplacementMap in="shape" scale="1" xChannelSelector="R" yChannelSelector="G" result="displacedImage" width="100%" height="100%" />
<feMerge result="effect1_texture_299_2474">
<feMergeNode in="displacedImage"/>
</feMerge>
</filter>
<clipPath id="clip0_299_2474">
<rect x="1" y="1" width="146" height="147" rx="73" fill="white"/>
</clipPath>
<clipPath id="clip1_299_2474">
<rect width="110" height="109.3" fill="white" transform="translate(-3.53424 74.7475) rotate(-45)"/>
</clipPath>
</defs>
</svg>
