<svg width="170" height="169" viewBox="0 0 170 169" fill="none" xmlns="http://www.w3.org/2000/svg">
<g filter="url(#filter0_g_299_2390)">
<g clip-path="url(#clip0_299_2390)">
<path d="M93.5442 20.742L93.8723 21.4832L94.3879 20.8572L107.524 4.92169L110.468 25.3631L110.584 26.1649L111.249 25.702L128.197 13.9012L125.518 34.3787L125.412 35.1824L126.178 34.9158L145.681 28.1258L137.576 47.1209L137.258 47.866L138.067 47.8162L158.679 46.5399L145.75 62.6443L145.242 63.2762L146.035 63.4461L166.227 67.7781L149.433 79.7967L148.774 80.2684L149.49 80.6453L167.765 90.2645L148.351 97.3065L147.589 97.5828L148.178 98.1395L163.179 112.332L142.585 113.876L141.778 113.936L142.195 114.631L152.809 132.345L132.564 128.274L131.769 128.115L131.983 128.896L137.425 148.816L119.029 139.435L118.307 139.067L118.301 139.878L118.167 160.528L102.984 146.531L102.388 145.981L102.164 146.761L96.4631 166.609L85.6204 149.034L85.1946 148.345L84.7688 149.034L73.925 166.609L68.2249 146.761L68.0012 145.981L67.4055 146.531L52.2209 160.528L52.0881 139.878L52.0823 139.067L51.3606 139.435L32.9631 148.816L38.4065 128.896L38.6204 128.115L37.8254 128.274L17.5793 132.345L28.1946 114.631L28.6116 113.936L27.804 113.876L7.20923 112.332L22.2112 98.1395L22.8 97.5828L22.0383 97.3065L2.62329 90.2645L20.8987 80.6453L21.6155 80.2684L20.9563 79.7967L4.16138 67.7781L24.3538 63.4461L25.1467 63.2762L24.6389 62.6443L11.7092 46.5399L32.3225 47.8162L33.1311 47.866L32.8127 47.1209L24.7073 28.1258L44.2112 34.9158L44.9768 35.1824L44.8713 34.3787L42.1917 13.9012L59.1399 25.702L59.8049 26.1649L59.9211 25.3631L62.8645 4.92169L76.0012 20.8572L76.5168 21.4832L76.845 20.742L85.1946 1.85236L93.5442 20.742Z" fill="#1C50D8" stroke="#211F20"/>
<g clip-path="url(#clip1_299_2390)">
<path d="M31.3518 79.0596C30.8568 78.6883 30.4855 78.0695 30.2998 77.5126C30.0523 76.8938 30.0523 76.275 30.1142 75.5944C30.238 74.8518 30.5474 74.1711 31.0424 73.6761C31.5374 73.1811 32.1562 72.8098 32.8369 72.6242L32.6512 74.0474C32.28 74.1711 31.9087 74.4187 31.6612 74.6662C31.4137 74.9137 31.228 75.3468 31.1661 75.78C31.0424 76.275 31.1043 76.7082 31.2899 77.1413C31.4755 77.5745 31.6612 77.8839 32.0943 78.1933C32.5275 78.5027 32.8988 78.6264 33.3938 78.7502C33.9507 78.8121 34.4457 78.8121 34.817 78.6883C35.1883 78.5645 35.6214 78.2552 35.8689 78.0076C36.1165 77.7601 36.364 77.2651 36.4259 76.8319C36.4877 76.3988 36.4877 76.0275 36.364 75.6562C36.2402 75.285 35.9927 75.0375 35.6833 74.7281L35.8689 73.3048C36.4877 73.6761 36.9828 74.1711 37.2303 74.9137C37.5397 75.5944 37.6015 76.275 37.4159 77.0795C37.354 77.7601 37.0446 78.317 36.6115 78.8739C36.1783 79.4309 35.6833 79.8021 35.1264 79.9878C34.5695 80.1734 33.8269 80.2972 33.1463 80.1115C32.4656 79.9259 31.7849 79.4927 31.3518 79.0596Z" fill="#F3F3F4"/>
<path d="M40.0149 66.4363C39.5818 66.7457 39.1486 66.9313 38.6536 66.9313C38.0967 66.9932 37.6017 66.8694 37.1066 66.6219C36.6116 66.3744 36.1784 66.065 35.8691 65.6318C35.5597 65.1987 35.374 64.7655 35.3121 64.2086C35.3121 63.7136 35.374 63.1567 35.6215 62.6617C35.8072 62.2285 36.1166 61.7953 36.4878 61.5478C36.921 61.2384 37.3541 61.0528 37.9111 60.9909C38.468 60.929 38.963 61.0528 39.5199 61.2384C40.0149 61.486 40.4481 61.7953 40.7575 62.2285C41.0669 62.6617 41.2525 63.0948 41.3144 63.6517C41.3763 64.2086 41.2525 64.7037 41.005 65.1987C40.7575 65.6937 40.4481 66.1269 40.0149 66.4363ZM40.2006 63.8992C40.1387 63.5898 40.0768 63.2804 39.8293 63.0329C39.6437 62.7235 39.3343 62.5379 38.963 62.4141C38.5917 62.2904 38.2204 62.1666 37.9111 62.2285C37.6017 62.2904 37.2923 62.3523 37.0447 62.5998C36.8591 62.7854 36.6116 63.0329 36.4878 63.2804C36.3641 63.528 36.3022 63.8374 36.3641 64.1467C36.426 64.4561 36.4878 64.7655 36.7354 65.0131C36.9829 65.2606 37.2304 65.5081 37.6017 65.6318C38.2204 65.8794 38.6536 65.9412 39.0868 65.7556C39.5199 65.57 39.8912 65.3224 40.0768 64.8893C40.2006 64.518 40.2625 64.2086 40.2006 63.8992Z" fill="#F3F3F4"/>
<path d="M43.1707 50.9047C43.542 50.7809 43.9133 50.6572 44.3464 50.719C44.7796 50.7809 45.2127 50.9666 45.584 51.3378L48.3067 53.4417L47.626 54.3699L45.0271 52.3898C44.5939 52.0804 44.2227 51.9566 43.8514 51.9566C43.4801 51.9566 43.1089 52.2041 42.8613 52.5754C42.6138 52.9467 42.4901 53.318 42.5519 53.6273C42.6138 54.0605 42.8613 54.308 43.2326 54.6793L45.8315 56.6594L45.089 57.6495L40.4481 54.1224L41.1906 53.1323L41.7475 53.5655C41.6856 53.2561 41.6856 53.0086 41.8094 52.6373C41.9332 52.266 42.0569 52.0185 42.2426 51.7091C42.4901 51.3378 42.7376 51.0903 43.1707 50.9047Z" fill="#F3F3F4"/>
<path d="M52.0814 42.1179C52.5145 42.056 52.8858 42.056 53.2571 42.1798C53.6284 42.3035 54.0615 42.6129 54.3709 43.0461L56.5367 45.7069L55.6704 46.4494L53.6284 43.9124C53.319 43.4792 52.9477 43.2317 52.5764 43.2317C52.2051 43.2317 51.8339 43.3555 51.4626 43.603C51.1532 43.9124 50.9676 44.2218 50.9057 44.6549C50.8438 45.0881 50.9676 45.4593 51.277 45.8925L53.3808 48.3677L52.4527 49.1721L48.7399 44.7168L49.6681 43.9124L50.1013 44.4693C50.1013 44.2218 50.225 43.8505 50.3488 43.603C50.5344 43.2936 50.6582 43.0461 50.9676 42.8604C51.277 42.4273 51.7101 42.2416 52.0814 42.1179Z" fill="#F3F3F4"/>
<path d="M65.1997 38.0339L61.2395 40.014C61.487 40.3853 61.7964 40.6947 62.2295 40.7565C62.6008 40.8803 63.034 40.8184 63.4671 40.6328C64.024 40.3234 64.3334 39.8902 64.3334 39.2714L65.5091 38.7145C65.571 39.2714 65.5091 39.8283 65.2616 40.3234C65.0141 40.8184 64.5809 41.2516 63.9621 41.4991C63.4671 41.7466 62.9721 41.8704 62.4771 41.8704C61.982 41.8704 61.3014 41.6847 60.8682 41.3753C60.4351 41.0659 60.1257 40.6328 59.8781 40.1377C59.6306 39.6427 59.445 39.0858 59.5069 38.5289C59.5069 38.0339 59.6306 37.5388 59.94 37.1057C60.2494 36.6725 60.6207 36.3012 61.1776 36.1156C61.6726 35.8681 62.1677 35.7443 62.6627 35.7443C63.1577 35.7443 63.5909 35.93 64.024 36.2394C64.4572 36.5488 64.7047 36.92 64.9522 37.4151C65.0141 37.7245 65.076 37.9101 65.1997 38.0339ZM63.6528 37.7245C63.4671 37.2913 63.1577 37.1057 62.7864 36.9819C62.4152 36.8582 61.982 36.92 61.5489 37.1057C61.1776 37.2294 60.9301 37.6007 60.7444 37.9101C60.6207 38.2814 60.6207 38.6526 60.7444 39.1477L63.6528 37.7245Z" fill="#F3F3F4"/>
<path d="M70.2738 34.0736C70.3976 33.5786 70.6451 33.2073 71.0163 32.8361C71.3876 32.4648 71.8208 32.2792 72.3777 32.0935C73.0583 31.9079 73.6771 31.9079 74.1722 32.1554C74.7291 32.341 75.1004 32.7123 75.4097 33.2692L74.1103 33.5786C73.9865 33.3311 73.6771 33.1455 73.4296 33.0217C73.1821 32.898 72.8727 32.9598 72.5014 32.9598C72.1302 33.2073 71.7589 33.4549 71.5733 33.888C71.3876 34.3212 71.3876 34.8162 71.5114 35.435C71.6351 36.0538 71.9445 36.4869 72.3158 36.7344C72.6871 36.982 73.1202 37.0438 73.5534 36.982C74.234 36.7963 74.6053 36.425 74.6672 35.7444L75.9667 35.435C75.9667 36.0538 75.7191 36.5488 75.3479 37.0438C74.9766 37.5389 74.4816 37.7864 73.8009 37.972C73.3059 38.0958 72.8108 38.0958 72.3158 37.972C71.8208 37.8483 71.4495 37.6007 71.0782 37.2295C70.707 36.8582 70.4594 36.3632 70.3976 35.8063C70.3357 35.2493 70.15 34.5687 70.2738 34.0736Z" fill="#F3F3F4"/>
<path d="M81.9069 31.7223L82.1544 34.94C82.1544 35.1875 82.2782 35.3112 82.3401 35.3731C82.402 35.435 82.5876 35.4969 82.8351 35.4969L83.5777 35.4969L83.6395 36.5488L82.7114 36.6107C82.1544 36.6726 81.7832 36.5488 81.4119 36.3013C81.0406 36.0538 80.9169 35.6825 80.9169 35.0637L80.6694 31.846L79.9887 31.9079L79.9268 30.9797L80.6075 30.9178L80.5456 29.4946L81.7213 29.4327L81.7832 30.856L83.2064 30.7941L83.2683 31.7223L81.9069 31.7223Z" fill="#F3F3F4"/>
<path d="M88.3424 30.7322L88.0948 36.5488L86.9192 36.4869L87.1667 30.6703L88.3424 30.7322ZM87.2904 29.6802C87.1667 29.5565 87.1048 29.3708 87.1048 29.1233C87.1048 28.8758 87.2285 28.752 87.3523 28.6283C87.4761 28.5045 87.6617 28.4427 87.9092 28.4427C88.1567 28.4427 88.2805 28.5664 88.4042 28.6902C88.528 28.8139 88.5899 28.9996 88.5899 29.2471C88.5899 29.4946 88.4661 29.6183 88.3424 29.7421C88.2186 29.8659 88.033 29.9277 87.7855 29.9277C87.6617 29.9277 87.4761 29.8659 87.2904 29.6802Z" fill="#F3F3F4"/>
<path d="M93.8495 36.8583C93.4782 36.487 93.2307 36.1157 93.045 35.5588C92.9213 35.0638 92.8594 34.5069 93.045 33.9499C93.1688 33.3312 93.3544 32.898 93.7257 32.5267C94.097 32.1555 94.5301 31.8461 95.0252 31.7223C95.5202 31.5986 96.0152 31.5985 96.5721 31.6604C97.0672 31.7842 97.5622 32.0317 97.9954 32.3411C98.3666 32.7124 98.6141 33.0836 98.8617 33.5787C98.9854 34.0737 99.0473 34.6306 98.9235 35.2494C98.7998 35.8682 98.6141 36.3013 98.2429 36.6726C97.8716 37.0439 97.4384 37.3533 96.9434 37.477C96.4484 37.6008 95.8915 37.6627 95.3964 37.5389C94.6539 37.4152 94.2207 37.2295 93.8495 36.8583ZM96.3246 36.487C96.634 36.4251 96.8815 36.1776 97.0672 35.9919C97.3147 35.7444 97.4384 35.3732 97.5622 35.0019C97.6241 34.5687 97.6241 34.1975 97.5622 33.8881C97.5003 33.5787 97.3147 33.2693 97.0672 33.1455C96.8815 32.9599 96.5721 32.7742 96.2627 32.7124C95.9533 32.6505 95.7058 32.6505 95.3964 32.7124C95.087 32.7742 94.9014 32.9599 94.6539 33.2074C94.4064 33.4549 94.2826 33.8262 94.1589 34.1975C94.0351 34.8163 94.0351 35.3113 94.3445 35.7444C94.592 36.1157 94.9633 36.3632 95.4583 36.487C95.7058 36.6107 96.0152 36.5489 96.3246 36.487Z" fill="#F3F3F4"/>
<path d="M109.629 36.5488C109.876 36.9201 110 37.2913 110 37.6626C110 38.0339 109.876 38.5289 109.752 39.024L108.267 42.1179L107.154 41.6229L108.515 38.6527C108.762 38.1576 108.762 37.7864 108.639 37.4151C108.515 37.0438 108.267 36.7963 107.834 36.6107C107.401 36.425 107.03 36.425 106.658 36.5488C106.287 36.6726 105.978 36.9819 105.792 37.4151L104.431 40.3853L103.317 39.8903L105.73 34.6306L106.844 35.1256L106.597 35.7444C106.844 35.6206 107.153 35.5587 107.525 35.5587C107.896 35.5587 108.205 35.6206 108.515 35.8062C109.072 35.9919 109.443 36.2394 109.629 36.5488Z" fill="#F3F3F4"/>
<path d="M121.386 44.5931C121.695 44.655 122.004 44.8406 122.376 45.0881L121.571 46.0163L121.386 45.8307C121.076 45.5213 120.705 45.3975 120.334 45.3975C119.962 45.3975 119.591 45.6451 119.282 46.0782L117.24 48.3677L116.312 47.5633L120.086 43.1699L121.014 43.9743L120.457 44.655C120.767 44.4694 121.076 44.5312 121.386 44.5931Z" fill="#F3F3F4"/>
<path d="M126.831 55.2361L124.046 51.8328C123.737 52.1422 123.49 52.5134 123.49 52.8847C123.428 53.3179 123.551 53.6891 123.861 53.9985C124.232 54.4936 124.789 54.6792 125.346 54.4936L126.15 55.5455C125.593 55.7311 125.098 55.7311 124.542 55.6693C123.985 55.4836 123.49 55.2361 123.056 54.6792C122.747 54.2461 122.5 53.751 122.438 53.3179C122.314 52.8228 122.438 52.3278 122.623 51.8947C122.809 51.4615 123.18 50.9665 123.613 50.6571C124.108 50.2858 124.603 50.0383 125.037 49.9764C125.532 49.8527 126.027 49.9764 126.522 50.1002C126.955 50.2858 127.388 50.5952 127.759 51.0902C128.069 51.5234 128.316 52.0184 128.378 52.4516C128.502 52.9466 128.44 53.3798 128.192 53.8748C128.007 54.3079 127.697 54.7411 127.264 55.0505C127.14 55.0505 127.017 55.1742 126.831 55.2361ZM126.893 53.6891C127.202 53.3797 127.388 53.0704 127.45 52.6372C127.45 52.2659 127.326 51.8947 127.017 51.4615C126.769 51.0902 126.398 50.9665 126.027 50.8427C125.593 50.7808 125.284 50.8427 124.913 51.0902L126.893 53.6891Z" fill="#F3F3F4"/>
<path d="M132.895 58.5777L127.883 61.486L127.326 60.4341L132.338 57.5258L132.895 58.5777ZM133.143 57.0926C133.205 56.907 133.328 56.7832 133.514 56.5976C133.7 56.5357 133.885 56.4738 134.071 56.5357C134.256 56.5976 134.38 56.7213 134.566 56.907C134.628 57.0926 134.69 57.2782 134.628 57.4639C134.566 57.6495 134.442 57.7733 134.256 57.9589C134.071 58.1445 133.885 58.0827 133.7 58.0208C133.514 57.9589 133.39 57.8352 133.205 57.6495C133.143 57.4639 133.081 57.2782 133.143 57.0926Z" fill="#F3F3F4"/>
<path d="M138.34 73.1811C138.279 73.6143 138.093 73.9237 137.784 74.2331C137.474 74.5424 137.103 74.79 136.608 74.9137L133.328 75.8419L133.019 74.6662L136.113 73.7999C136.608 73.6761 136.979 73.4286 137.165 73.1192C137.35 72.8098 137.412 72.3767 137.288 72.0054C137.165 71.6341 136.917 71.2629 136.608 71.0772C136.298 70.8916 135.803 70.8916 135.37 71.0772L132.276 71.9435L131.967 70.7678L135.061 69.9015C135.556 69.7778 135.927 69.5303 136.113 69.2209C136.298 68.9115 136.36 68.4783 136.237 68.107C136.113 67.7358 135.865 67.3645 135.556 67.1789C135.246 66.9932 134.751 66.9932 134.318 67.1789L131.224 68.0452L130.915 66.8695L136.484 65.2606L136.793 66.4363L136.113 66.622C136.36 66.7457 136.67 66.9313 136.855 67.2407C137.103 67.4883 137.227 67.7358 137.35 68.107C137.474 68.6021 137.474 68.9734 137.412 69.4065C137.35 69.8397 137.165 70.1491 136.855 70.4584C137.288 70.5203 137.598 70.706 137.907 71.0154C138.217 71.3247 138.402 71.6341 138.588 72.0673C138.402 72.3767 138.464 72.8098 138.34 73.1811Z" fill="#F3F3F4"/>
<path d="M138.402 83.3911C138.897 83.6386 139.207 83.948 139.392 84.3811C139.64 84.7524 139.764 85.2474 139.764 85.7425C139.764 86.2375 139.64 86.6088 139.454 86.9182C139.269 87.2276 139.083 87.537 138.774 87.7226L139.64 87.7226L139.64 88.9602L133.823 88.8364L133.823 87.5988L134.69 87.5988C134.442 87.3513 134.194 87.1038 134.009 86.7944C133.823 86.485 133.761 86.0519 133.761 85.5568C133.761 85.0618 133.947 84.6286 134.133 84.1955C134.38 83.8242 134.751 83.453 135.246 83.2054C135.741 82.9579 136.237 82.8342 136.793 82.896C137.474 82.9579 138.031 83.1436 138.402 83.3911ZM137.845 87.537C138.155 87.3513 138.34 87.1657 138.526 86.8563C138.65 86.6088 138.774 86.3613 138.774 85.99C138.835 85.6806 138.712 85.4331 138.526 85.1237C138.402 84.8762 138.155 84.6287 137.845 84.443C137.536 84.2574 137.227 84.1955 136.855 84.1955C136.484 84.1955 136.051 84.2574 135.803 84.3811C135.494 84.5668 135.308 84.7524 135.061 84.9999C134.813 85.2474 134.813 85.495 134.813 85.8662C134.751 86.1756 134.875 86.4231 135.061 86.7325C135.185 86.98 135.432 87.2276 135.741 87.4132C136.051 87.5988 136.36 87.6607 136.793 87.7226C137.227 87.7845 137.536 87.5988 137.845 87.537Z" fill="#F3F3F4"/>
<path d="M137.474 99.9128C137.227 100.16 136.979 100.408 136.608 100.532L137.412 100.717L137.103 101.893L131.41 100.408C130.915 100.284 130.42 100.037 130.11 99.7272C129.801 99.4178 129.554 99.0465 129.43 98.5515C129.306 98.0565 129.306 97.5614 129.492 97.0045C129.739 96.262 130.049 95.7051 130.482 95.2719C130.915 94.8388 131.534 94.715 132.152 94.8388L131.843 96.0145C131.534 96.0763 131.224 96.1382 130.977 96.3857C130.729 96.6332 130.544 96.9426 130.42 97.3139C130.296 97.8089 130.296 98.1802 130.544 98.5515C130.791 98.9228 131.162 99.1703 131.657 99.294L132.648 99.5415C132.4 99.294 132.276 98.9228 132.152 98.5515C132.029 98.1802 132.091 97.7471 132.152 97.3139C132.276 96.8189 132.524 96.4476 132.895 96.0763C133.266 95.7051 133.699 95.5194 134.194 95.3957C134.69 95.2719 135.246 95.3338 135.741 95.4575C136.298 95.6432 136.793 95.8907 137.103 96.2001C137.474 96.5714 137.722 96.9426 137.845 97.4377C137.969 97.9327 137.969 98.4277 137.845 98.9228C137.969 99.294 137.783 99.6034 137.474 99.9128ZM135.741 100.037C136.051 99.9747 136.36 99.7891 136.546 99.6034C136.793 99.3559 136.917 99.1084 136.979 98.799C137.041 98.4896 137.041 98.2421 136.979 97.9327C136.917 97.6233 136.793 97.3758 136.546 97.1283C136.298 96.8808 135.989 96.6951 135.618 96.5714C135.246 96.4476 134.875 96.4476 134.566 96.5095C134.256 96.5714 133.947 96.757 133.761 96.9426C133.576 97.1283 133.39 97.4377 133.328 97.7471C133.266 98.0565 133.266 98.304 133.328 98.6134C133.39 98.9228 133.576 99.2321 133.761 99.4178C134.009 99.6653 134.318 99.8509 134.751 99.9128C135.061 100.098 135.432 100.098 135.741 100.037Z" fill="#F3F3F4"/>
<path d="M134.504 108.452L129.244 106.039L129.739 104.925L134.999 107.338L134.504 108.452ZM135.865 107.833C136.051 107.771 136.298 107.771 136.484 107.833C136.67 107.895 136.855 108.081 136.917 108.266C136.979 108.452 136.979 108.699 136.917 108.885C136.855 109.071 136.732 109.195 136.484 109.318C136.237 109.442 136.051 109.38 135.865 109.318C135.68 109.256 135.494 109.071 135.432 108.885C135.37 108.699 135.37 108.452 135.494 108.328C135.556 108.019 135.68 107.895 135.865 107.833Z" fill="#F3F3F4"/>
<path d="M129.368 116.806C129.059 116.991 128.626 117.053 128.192 116.991C127.759 116.929 127.326 116.744 126.955 116.496L124.17 114.578L124.789 113.588L127.45 115.382C127.883 115.692 128.254 115.816 128.687 115.754C129.121 115.692 129.368 115.444 129.616 115.073C129.863 114.702 129.987 114.331 129.863 113.959C129.739 113.588 129.554 113.279 129.121 112.969L126.46 111.175L127.079 110.185L131.843 113.464L131.224 114.454L130.729 114.083C130.791 114.392 130.853 114.702 130.791 115.011C130.729 115.321 130.606 115.692 130.42 115.878C129.987 116.311 129.677 116.62 129.368 116.806Z" fill="#F3F3F4"/>
<path d="M117.858 124.479L121.076 121.509C120.767 121.199 120.334 121.013 119.962 121.013C119.591 121.013 119.158 121.199 118.849 121.509C118.415 121.942 118.23 122.499 118.415 123.055L117.425 123.922C117.178 123.427 117.116 122.87 117.302 122.313C117.363 121.756 117.735 121.261 118.23 120.766C118.601 120.395 119.096 120.147 119.591 120.023C120.086 119.9 120.581 119.9 121.076 120.147C121.571 120.271 122.004 120.58 122.376 121.075C122.809 121.509 123.056 122.004 123.18 122.499C123.304 122.994 123.304 123.489 123.118 123.922C122.994 124.417 122.685 124.85 122.252 125.159C121.881 125.531 121.386 125.778 120.952 125.84C120.457 125.964 120.024 125.902 119.529 125.778C119.096 125.593 118.601 125.345 118.292 124.912C118.106 124.85 117.92 124.664 117.858 124.479ZM119.405 124.417C119.715 124.726 120.024 124.912 120.457 124.85C120.829 124.85 121.262 124.664 121.571 124.355C121.881 124.046 122.066 123.736 122.066 123.365C122.066 122.994 122.004 122.56 121.757 122.189L119.405 124.417Z" fill="#F3F3F4"/>
<path d="M114.022 129.8C114.022 130.295 113.898 130.79 113.713 131.223C113.465 131.595 113.094 131.966 112.723 132.214C112.413 132.399 112.042 132.523 111.609 132.585C111.176 132.647 110.866 132.585 110.495 132.461L111.918 134.874L110.866 135.431L106.968 128.686L108.02 128.13L108.453 128.934C108.515 128.625 108.638 128.253 108.824 127.944C109.01 127.635 109.319 127.325 109.752 127.139C110.247 126.892 110.619 126.768 111.114 126.768C111.609 126.768 112.042 126.954 112.537 127.201C112.97 127.511 113.341 127.882 113.589 128.377C113.836 128.872 114.022 129.305 114.022 129.8ZM110.185 131.409C110.495 131.595 110.804 131.657 111.052 131.657C111.299 131.657 111.609 131.595 111.918 131.409C112.166 131.285 112.413 131.038 112.537 130.79C112.661 130.543 112.723 130.233 112.784 129.924C112.784 129.553 112.723 129.243 112.475 128.872C112.289 128.563 112.042 128.315 111.732 128.13C111.423 127.944 111.114 127.882 110.804 127.82C110.495 127.758 110.247 127.882 109.938 128.068C109.69 128.191 109.443 128.439 109.319 128.686C109.195 128.934 109.134 129.243 109.134 129.615C109.134 129.986 109.195 130.295 109.443 130.667C109.629 130.976 109.876 131.224 110.185 131.409Z" fill="#F3F3F4"/>
<path d="M95.9534 132.894C96.4485 133.018 96.8816 133.327 97.191 133.761C97.5004 134.194 97.7479 134.689 97.8098 135.246C97.9336 135.864 97.9336 136.359 97.6861 136.855C97.5623 137.35 97.2529 137.783 96.8197 138.092C96.3866 138.401 95.9534 138.587 95.3965 138.773C94.8396 138.835 94.3446 138.835 93.8496 138.711C93.3545 138.587 92.9214 138.278 92.612 137.845C92.2407 137.473 92.0551 136.916 91.9313 136.421C91.8076 135.803 91.8076 135.308 92.0551 134.812C92.1788 134.317 92.4882 133.884 92.9214 133.575C93.3545 133.266 93.8496 133.018 94.3446 132.894C94.9634 132.647 95.4584 132.647 95.9534 132.894ZM93.7877 134.194C93.602 134.379 93.3545 134.627 93.2926 134.936C93.2308 135.246 93.1689 135.679 93.2308 135.988C93.2926 136.421 93.4783 136.731 93.6639 137.04C93.8496 137.35 94.0971 137.473 94.4065 137.535C94.7159 137.597 95.0253 137.659 95.3347 137.597C95.644 137.535 95.8916 137.411 96.1391 137.164C96.3247 136.978 96.5722 136.731 96.6341 136.421C96.696 136.112 96.696 135.741 96.6341 135.308C96.5103 134.689 96.3247 134.256 95.8916 133.946C95.4584 133.637 95.0871 133.637 94.5921 133.637C94.2827 133.822 94.0352 133.946 93.7877 134.194Z" fill="#F3F3F4"/>
<path d="M81.5357 139.144C81.2263 138.958 80.9169 138.649 80.7313 138.216C80.5456 137.783 80.4837 137.349 80.4837 136.854L80.6694 133.451L81.8451 133.513L81.7213 136.731C81.7213 137.226 81.7832 137.659 82.0307 137.906C82.2782 138.154 82.5876 138.34 83.0826 138.34C83.5158 138.401 83.8871 138.278 84.1965 137.968C84.444 137.721 84.6296 137.288 84.6296 136.793L84.7534 133.575L85.9291 133.637L85.6816 139.453L84.5059 139.391L84.5677 138.711C84.3202 138.958 84.1346 139.144 83.8252 139.206C83.5158 139.268 83.1445 139.391 82.8351 139.33C82.2782 139.515 81.9069 139.391 81.5357 139.144Z" fill="#F3F3F4"/>
<path d="M68.9123 135.679C68.5411 136.05 68.1079 136.236 67.6129 136.359C67.1178 136.483 66.6228 136.359 66.0659 136.174C65.4471 135.926 64.9521 135.555 64.6427 135.122C64.3333 134.689 64.2095 134.07 64.2714 133.513L65.4471 133.946C65.4471 134.194 65.509 134.503 65.6327 134.751C65.7565 134.998 66.0659 135.184 66.3753 135.246C66.8084 135.431 67.2416 135.369 67.6748 135.184C68.046 134.936 68.4173 134.565 68.6029 134.008C68.7886 133.451 68.8505 132.894 68.7267 132.523C68.5411 132.09 68.2317 131.78 67.7985 131.595C67.1797 131.347 66.5609 131.471 66.1897 131.966L65.014 131.533C65.3852 131.038 65.8184 130.729 66.3753 130.543C66.9322 130.357 67.4891 130.419 68.1698 130.605C68.7267 130.79 69.098 131.038 69.4074 131.471C69.7168 131.904 69.9024 132.337 69.9643 132.771C70.0261 133.204 69.9643 133.761 69.7168 134.379C69.593 134.874 69.3455 135.369 68.9123 135.679Z" fill="#F3F3F4"/>
<path d="M58.5786 133.637C58.6404 133.822 58.5786 134.008 58.5167 134.194C58.4548 134.379 58.2073 134.503 58.0217 134.565C57.836 134.627 57.6504 134.565 57.4647 134.503C57.2791 134.441 57.1554 134.194 57.0935 134.008C57.0316 133.822 57.0935 133.637 57.1554 133.451C57.2172 133.266 57.4647 133.142 57.6504 133.08C57.836 133.018 58.0217 133.08 58.2073 133.142C58.3929 133.327 58.5167 133.451 58.5786 133.637ZM58.0217 132.214L60.93 127.201L61.9819 127.758L59.1355 132.832L58.0217 132.214Z" fill="#F3F3F4"/>
<path d="M52.762 128.563C52.4526 128.501 52.0813 128.377 51.7719 128.191L52.5764 127.139L52.8239 127.263C53.1952 127.511 53.5664 127.634 53.8758 127.573C54.1852 127.511 54.5565 127.263 54.9278 126.768L56.7223 124.355L57.6504 125.159L54.2471 129.8L53.257 129.058L53.7521 128.439C53.5046 128.563 53.1333 128.563 52.762 128.563Z" fill="#F3F3F4"/>
<path d="M48.678 123.612C48.183 123.736 47.688 123.736 47.1929 123.612C46.6979 123.489 46.2647 123.179 45.8935 122.808C45.3984 122.313 45.0891 121.756 45.0272 121.199C44.9653 120.642 45.0272 120.085 45.3984 119.59L46.3266 120.518C46.2029 120.766 46.141 121.075 46.2029 121.385C46.2648 121.694 46.3885 121.942 46.636 122.189C47.0073 122.56 47.3786 122.684 47.8117 122.622C48.2449 122.56 48.678 122.375 49.1731 121.88C49.6681 121.385 49.9156 121.013 49.9156 120.518C49.9775 120.085 49.7918 119.652 49.4825 119.343C48.9874 118.848 48.4924 118.724 47.8736 118.971L46.9454 118.043C47.5023 117.734 48.0592 117.672 48.6161 117.734C49.1731 117.796 49.73 118.105 50.225 118.6C50.5963 118.971 50.8438 119.467 50.9675 119.962C51.0913 120.457 51.0913 120.952 50.9057 121.385C50.7819 121.88 50.4725 122.313 50.0394 122.746C49.6062 123.179 49.1731 123.489 48.678 123.612Z" fill="#F3F3F4"/>
<path d="M37.3541 110.927L42.3044 107.957L42.9232 108.947L42.3044 109.318C42.6138 109.38 42.9232 109.442 43.1707 109.69C43.4801 109.875 43.7276 110.123 43.8514 110.37C44.0989 110.742 44.2226 111.113 44.2845 111.546C44.2845 111.917 44.2226 112.35 43.9751 112.722C43.7276 113.093 43.4182 113.402 42.9851 113.712L40.0768 115.506L39.458 114.516L42.2425 112.845C42.6757 112.536 42.9851 112.227 43.0469 111.917C43.1707 111.546 43.0469 111.175 42.8613 110.742C42.6138 110.37 42.3663 110.123 41.9331 110.061C41.5619 109.937 41.1906 110.061 40.6955 110.308L37.9729 112.041L37.3541 110.927Z" fill="#F3F3F4"/>
<path d="M34.0127 106.101C33.9508 106.286 33.827 106.41 33.5795 106.534C33.3939 106.596 33.1464 106.596 32.9607 106.534C32.7751 106.472 32.6513 106.348 32.5276 106.101C32.4657 105.915 32.4657 105.668 32.5276 105.482C32.5895 105.296 32.7132 105.172 32.9607 105.049C33.2082 104.925 33.3939 104.987 33.5795 105.049C33.7652 105.111 33.8889 105.234 34.0127 105.482C34.0746 105.668 34.0746 105.915 34.0127 106.101ZM34.5077 104.616L39.8912 102.45L40.3862 103.564L35.0027 105.729L34.5077 104.616Z" fill="#F3F3F4"/>
<path d="M33.7032 98.8609L36.7971 97.9946C36.9828 97.9327 37.1684 97.8708 37.1684 97.7471C37.2922 97.6233 37.2303 97.4377 37.1684 97.2521L36.9828 96.5714L37.9728 96.3239L38.2203 97.1902C38.3441 97.6852 38.3441 98.1802 38.1585 98.4896C37.9728 98.799 37.6015 99.0465 37.0446 99.2322L33.9507 100.098L34.1363 100.779L33.1463 101.027L32.9606 100.346L31.5993 100.717L31.2899 99.5416L32.6512 99.1703L32.28 97.809L33.27 97.5615L33.7032 98.8609Z" fill="#F3F3F4"/>
<path d="M37.1685 93.168C37.0448 93.2917 36.8591 93.4773 36.6116 93.4773C36.3641 93.4773 36.2403 93.4773 35.9928 93.3536C35.8691 93.2298 35.6834 93.0442 35.6834 92.7967C35.6215 92.611 35.6834 92.4254 35.8691 92.2398C36.0547 92.0541 36.1784 91.9304 36.426 91.9304C36.6116 91.8685 36.7972 91.9304 37.0448 92.0541C37.1685 92.1779 37.2923 92.3017 37.2923 92.5492C37.2923 92.7967 37.3541 92.9823 37.1685 93.168Z" fill="#F3F3F4"/>
</g>
<path d="M74.185 65.0684L72.4759 65.3202C67.9628 66.2639 64.4842 70.029 63.8954 74.6167C63.8604 74.8781 63.8763 75.1746 63.8031 75.4265C63.8253 75.9079 63.7744 76.402 63.8031 76.8803C64.0195 80.553 66.015 84.0025 68.4657 86.6422L85.8654 104.068L103.31 86.5976C105.178 84.5413 106.744 82.1215 107.422 79.3925C109.487 71.062 102.667 63.7867 94.2454 65.4414C91.0277 66.0726 88.1569 67.9918 85.8654 70.2681C83.2969 67.6985 80.0283 65.6231 76.3587 65.164C76.085 65.1289 75.7667 65.0843 75.5058 65.0715H74.185V65.0684Z" fill="#E2FF65"/>
</g>
</g>
<defs>
<filter id="filter0_g_299_2390" x="0.37207" y="0.5" width="170" height="169" filterUnits="userSpaceOnUse" color-interpolation-filters="sRGB">
<feFlood flood-opacity="0" result="BackgroundImageFix"/>
<feBlend mode="normal" in="SourceGraphic" in2="BackgroundImageFix" result="shape"/>
<feTurbulence type="fractalNoise" baseFrequency="2 2" numOctaves="3" seed="9034" />
<feDisplacementMap in="shape" scale="1" xChannelSelector="R" yChannelSelector="G" result="displacedImage" width="100%" height="100%" />
<feMerge result="effect1_texture_299_2390">
<feMergeNode in="displacedImage"/>
</feMerge>
</filter>
<clipPath id="clip0_299_2390">
<rect x="0.87207" y="1" width="169" height="168" rx="84" fill="white"/>
</clipPath>
<clipPath id="clip1_299_2390">
<rect width="110" height="109.3" fill="white" transform="translate(7.83789 85.2476) rotate(-45)"/>
</clipPath>
</defs>
</svg>
