<svg width="140" height="139" viewBox="0 0 140 139" fill="none" xmlns="http://www.w3.org/2000/svg">
<g filter="url(#filter0_g_299_2557)">
<g clip-path="url(#clip0_299_2557)">
<rect x="1" y="1" width="138" height="137" rx="68.5" fill="#1C50D8"/>
<g clip-path="url(#clip1_299_2557)">
<path d="M15.9798 63.5596C15.4847 63.1883 15.1135 62.5695 14.9278 62.0126C14.6803 61.3938 14.6803 60.775 14.7422 60.0944C14.866 59.3518 15.1753 58.6711 15.6704 58.1761C16.1654 57.6811 16.7842 57.3098 17.4649 57.1242L17.2792 58.5474C16.908 58.6711 16.5367 58.9187 16.2892 59.1662C16.0417 59.4137 15.856 59.8468 15.7941 60.28C15.6704 60.775 15.7323 61.2082 15.9179 61.6413C16.1035 62.0745 16.2892 62.3839 16.7223 62.6933C17.1555 63.0027 17.5267 63.1264 18.0218 63.2502C18.5787 63.3121 19.0737 63.3121 19.445 63.1883C19.8163 63.0645 20.2494 62.7552 20.4969 62.5076C20.7444 62.2601 20.992 61.7651 21.0538 61.3319C21.1157 60.8988 21.1157 60.5275 20.992 60.1562C20.8682 59.785 20.6207 59.5375 20.3113 59.2281L20.4969 57.8048C21.1157 58.1761 21.6108 58.6711 21.8583 59.4137C22.1677 60.0944 22.2295 60.775 22.0439 61.5795C21.982 62.2601 21.6726 62.817 21.2395 63.3739C20.8063 63.9309 20.3113 64.3021 19.7544 64.4878C19.1975 64.6734 18.4549 64.7972 17.7743 64.6115C17.0936 64.4259 16.4129 63.9927 15.9798 63.5596Z" fill="#F3F3F4"/>
<path d="M24.6429 50.9363C24.2097 51.2457 23.7766 51.4313 23.2815 51.4313C22.7246 51.4932 22.2296 51.3694 21.7346 51.1219C21.2395 50.8744 20.8064 50.565 20.497 50.1318C20.1876 49.6987 20.0019 49.2655 19.9401 48.7086C19.9401 48.2136 20.0019 47.6567 20.2495 47.1617C20.4351 46.7285 20.7445 46.2953 21.1158 46.0478C21.5489 45.7384 21.9821 45.5528 22.539 45.4909C23.0959 45.429 23.5909 45.5528 24.1478 45.7384C24.6429 45.986 25.076 46.2953 25.3854 46.7285C25.6948 47.1617 25.8804 47.5948 25.9423 48.1517C26.0042 48.7086 25.8804 49.2037 25.6329 49.6987C25.3854 50.1937 25.076 50.6269 24.6429 50.9363ZM24.8285 48.3992C24.7666 48.0898 24.7047 47.7804 24.4572 47.5329C24.2716 47.2235 23.9622 47.0379 23.5909 46.9141C23.2196 46.7904 22.8484 46.6666 22.539 46.7285C22.2296 46.7904 21.9202 46.8523 21.6727 47.0998C21.487 47.2854 21.2395 47.5329 21.1158 47.7804C20.992 48.028 20.9301 48.3374 20.992 48.6467C21.0539 48.9561 21.1158 49.2655 21.3633 49.5131C21.6108 49.7606 21.8583 50.0081 22.2296 50.1318C22.8484 50.3794 23.2815 50.4412 23.7147 50.2556C24.1478 50.07 24.5191 49.8224 24.7047 49.3893C24.8285 49.018 24.8904 48.7086 24.8285 48.3992Z" fill="#F3F3F4"/>
<path d="M27.7987 35.4047C28.1699 35.2809 28.5412 35.1572 28.9744 35.219C29.4075 35.2809 29.8407 35.4666 30.2119 35.8378L32.9346 37.9417L32.2539 38.8699L29.655 36.8898C29.2219 36.5804 28.8506 36.4566 28.4793 36.4566C28.1081 36.4566 27.7368 36.7041 27.4893 37.0754C27.2418 37.4467 27.118 37.818 27.1799 38.1273C27.2418 38.5605 27.4893 38.808 27.8605 39.1793L30.4595 41.1594L29.7169 42.1495L25.076 38.6224L25.8185 37.6323L26.3754 38.0655C26.3136 37.7561 26.3136 37.5086 26.4373 37.1373C26.5611 36.766 26.6848 36.5185 26.8705 36.2091C27.118 35.8378 27.3655 35.5903 27.7987 35.4047Z" fill="#F3F3F4"/>
<path d="M36.7093 26.6179C37.1424 26.556 37.5137 26.556 37.885 26.6798C38.2562 26.8035 38.6894 27.1129 38.9988 27.5461L41.1645 30.2069L40.2982 30.9494L38.2562 28.4124C37.9468 27.9792 37.5756 27.7317 37.2043 27.7317C36.833 27.7317 36.4617 27.8555 36.0905 28.103C35.7811 28.4124 35.5954 28.7218 35.5336 29.1549C35.4717 29.5881 35.5954 29.9593 35.9048 30.3925L38.0087 32.8677L37.0805 33.6721L33.3678 29.2168L34.296 28.4124L34.7291 28.9693C34.7291 28.7218 34.8529 28.3505 34.9766 28.103C35.1623 27.7936 35.286 27.5461 35.5954 27.3604C35.9048 26.9273 36.338 26.7416 36.7093 26.6179Z" fill="#F3F3F4"/>
<path d="M49.8276 22.5339L45.8673 24.514C46.1149 24.8853 46.4243 25.1947 46.8574 25.2566C47.2287 25.3803 47.6618 25.3185 48.095 25.1328C48.6519 24.8234 48.9613 24.3903 48.9613 23.7715L50.137 23.2146C50.1989 23.7715 50.137 24.3284 49.8895 24.8234C49.642 25.3185 49.2088 25.7516 48.59 25.9991C48.095 26.2467 47.6 26.3704 47.1049 26.3704C46.6099 26.3704 45.9292 26.1848 45.4961 25.8754C45.0629 25.566 44.7535 25.1328 44.506 24.6378C44.2585 24.1428 44.0729 23.5859 44.1347 23.029C44.1347 22.5339 44.2585 22.0389 44.5679 21.6057C44.8773 21.1726 45.2486 20.8013 45.8055 20.6157C46.3005 20.3682 46.7955 20.2444 47.2906 20.2444C47.7856 20.2444 48.2187 20.43 48.6519 20.7394C49.085 21.0488 49.3326 21.4201 49.5801 21.9151C49.642 22.2245 49.7038 22.4102 49.8276 22.5339ZM48.2806 22.2245C48.095 21.7914 47.7856 21.6057 47.4143 21.482C47.043 21.3582 46.6099 21.4201 46.1767 21.6057C45.8055 21.7295 45.558 22.1008 45.3723 22.4102C45.2486 22.7814 45.2486 23.1527 45.3723 23.6477L48.2806 22.2245Z" fill="#F3F3F4"/>
<path d="M54.9016 18.5737C55.0254 18.0787 55.2729 17.7074 55.6442 17.3361C56.0154 16.9649 56.4486 16.7792 57.0055 16.5936C57.6862 16.408 58.3049 16.4079 58.8 16.6555C59.3569 16.8411 59.7282 17.2124 60.0376 17.7693L58.7381 18.0787C58.6143 17.8312 58.3049 17.6455 58.0574 17.5218C57.8099 17.398 57.5005 17.4599 57.1292 17.4599C56.758 17.7074 56.3867 17.9549 56.2011 18.3881C56.0154 18.8212 56.0154 19.3163 56.1392 19.935C56.2629 20.5538 56.5723 20.987 56.9436 21.2345C57.3149 21.482 57.748 21.5439 58.1812 21.482C58.8619 21.2964 59.2331 20.9251 59.295 20.2444L60.5945 19.935C60.5945 20.5538 60.3469 21.0489 59.9757 21.5439C59.6044 22.0389 59.1094 22.2864 58.4287 22.4721C57.9337 22.5958 57.4386 22.5958 56.9436 22.4721C56.4486 22.3483 56.0773 22.1008 55.706 21.7295C55.3348 21.3583 55.0872 20.8632 55.0254 20.3063C54.9635 19.7494 54.7779 19.0687 54.9016 18.5737Z" fill="#F3F3F4"/>
<path d="M66.5349 16.2223L66.7824 19.44C66.7824 19.6875 66.9061 19.8112 66.968 19.8731C67.0299 19.935 67.2155 19.9969 67.463 19.9969L68.2056 19.9969L68.2675 21.0488L67.3393 21.1107C66.7824 21.1726 66.4111 21.0488 66.0398 20.8013C65.6686 20.5538 65.5448 20.1825 65.5448 19.5637L65.2973 16.346L64.6166 16.4079L64.5547 15.4797L65.2354 15.4178L65.1735 13.9946L66.3492 13.9327L66.4111 15.356L67.8343 15.2941L67.8962 16.2223L66.5349 16.2223Z" fill="#F3F3F4"/>
<path d="M72.9703 15.2322L72.7228 21.0488L71.5471 20.9869L71.7946 15.1703L72.9703 15.2322ZM71.9184 14.1802C71.7946 14.0565 71.7327 13.8708 71.7327 13.6233C71.7327 13.3758 71.8565 13.252 71.9802 13.1283C72.104 13.0045 72.2896 12.9427 72.5371 12.9427C72.7847 12.9427 72.9084 13.0664 73.0322 13.1902C73.1559 13.3139 73.2178 13.4996 73.2178 13.7471C73.2178 13.9946 73.0941 14.1183 72.9703 14.2421C72.8465 14.3659 72.6609 14.4277 72.4134 14.4277C72.2896 14.4277 72.104 14.3659 71.9184 14.1802Z" fill="#F3F3F4"/>
<path d="M78.4774 21.3582C78.1061 20.9869 77.8586 20.6156 77.673 20.0587C77.5492 19.5637 77.4873 19.0068 77.673 18.4499C77.7967 17.8311 77.9824 17.3979 78.3536 17.0267C78.7249 16.6554 79.1581 16.346 79.6531 16.2222C80.1481 16.0985 80.6432 16.0985 81.2001 16.1604C81.6951 16.2841 82.1901 16.5316 82.6233 16.841C82.9946 17.2123 83.2421 17.5836 83.4896 18.0786C83.6133 18.5736 83.6752 19.1306 83.5515 19.7493C83.4277 20.3681 83.2421 20.8013 82.8708 21.1726C82.4995 21.5438 82.0664 21.8532 81.5713 21.977C81.0763 22.1007 80.5194 22.1626 80.0244 22.0389C79.2818 21.9151 78.8487 21.7295 78.4774 21.3582ZM80.9526 20.9869C81.2619 20.925 81.5095 20.6775 81.6951 20.4919C81.9426 20.2444 82.0664 19.8731 82.1901 19.5018C82.252 19.0687 82.252 18.6974 82.1901 18.388C82.1283 18.0786 81.9426 17.7692 81.6951 17.6455C81.5095 17.4598 81.2001 17.2742 80.8907 17.2123C80.5813 17.1504 80.3338 17.1504 80.0244 17.2123C79.715 17.2742 79.5293 17.4598 79.2818 17.7073C79.0343 17.9549 78.9105 18.3261 78.7868 18.6974C78.663 19.3162 78.663 19.8112 78.9724 20.2444C79.2199 20.6156 79.5912 20.8632 80.0862 20.9869C80.3338 21.1107 80.6432 21.0488 80.9526 20.9869Z" fill="#F3F3F4"/>
<path d="M94.2566 21.0488C94.5041 21.4201 94.6279 21.7913 94.6279 22.1626C94.6279 22.5339 94.5041 23.0289 94.3803 23.524L92.8952 26.6179L91.7814 26.1229L93.1428 23.1527C93.3903 22.6576 93.3903 22.2864 93.2665 21.9151C93.1428 21.5438 92.8952 21.2963 92.4621 21.1107C92.0289 20.925 91.6577 20.925 91.2864 21.0488C90.9151 21.1726 90.6057 21.4819 90.4201 21.9151L89.0588 24.8853L87.9449 24.3903L90.3582 19.1306L91.472 19.6256L91.2245 20.2444C91.472 20.1206 91.7814 20.0587 92.1527 20.0587C92.524 20.0587 92.8334 20.1206 93.1428 20.3062C93.6997 20.4919 94.0709 20.7394 94.2566 21.0488Z" fill="#F3F3F4"/>
<path d="M106.014 29.0931C106.323 29.155 106.632 29.3406 107.004 29.5881L106.199 30.5163L106.014 30.3307C105.704 30.0213 105.333 29.8975 104.962 29.8975C104.59 29.8975 104.219 30.1451 103.91 30.5782L101.868 32.8677L100.94 32.0633L104.714 27.6699L105.642 28.4743L105.085 29.155C105.395 28.9694 105.704 29.0312 106.014 29.0931Z" fill="#F3F3F4"/>
<path d="M111.459 39.7362L108.674 36.3329C108.365 36.6423 108.117 37.0136 108.117 37.3848C108.056 37.818 108.179 38.1893 108.489 38.4987C108.86 38.9937 109.417 39.1793 109.974 38.9937L110.778 40.0456C110.221 40.2313 109.726 40.2313 109.169 40.1694C108.612 39.9838 108.117 39.7362 107.684 39.1793C107.375 38.7462 107.127 38.2511 107.065 37.818C106.942 37.323 107.065 36.8279 107.251 36.3948C107.437 35.9616 107.808 35.4666 108.241 35.1572C108.736 34.7859 109.231 34.5384 109.664 34.4765C110.159 34.3528 110.654 34.4765 111.149 34.6003C111.583 34.7859 112.016 35.0953 112.387 35.5904C112.696 36.0235 112.944 36.5185 113.006 36.9517C113.13 37.4467 113.068 37.8799 112.82 38.3749C112.635 38.8081 112.325 39.2412 111.892 39.5506C111.768 39.5506 111.644 39.6744 111.459 39.7362ZM111.521 38.1893C111.83 37.8799 112.016 37.5705 112.078 37.1373C112.078 36.7661 111.954 36.3948 111.644 35.9616C111.397 35.5904 111.026 35.4666 110.654 35.3428C110.221 35.281 109.912 35.3428 109.541 35.5904L111.521 38.1893Z" fill="#F3F3F4"/>
<path d="M117.523 43.0778L112.511 45.9861L111.954 44.9341L116.966 42.0258L117.523 43.0778ZM117.771 41.5927C117.832 41.407 117.956 41.2833 118.142 41.0976C118.327 41.0358 118.513 40.9739 118.699 41.0358C118.884 41.0976 119.008 41.2214 119.194 41.407C119.256 41.5927 119.318 41.7783 119.256 41.9639C119.194 42.1496 119.07 42.2733 118.884 42.459C118.699 42.6446 118.513 42.5827 118.327 42.5208C118.142 42.459 118.018 42.3352 117.832 42.1496C117.771 41.9639 117.709 41.7783 117.771 41.5927Z" fill="#F3F3F4"/>
<path d="M122.968 57.6811C122.906 58.1142 122.721 58.4236 122.411 58.733C122.102 59.0424 121.731 59.2899 121.236 59.4137L117.956 60.3418L117.647 59.1661L120.741 58.2998C121.236 58.1761 121.607 57.9286 121.793 57.6192C121.978 57.3098 122.04 56.8766 121.916 56.5054C121.793 56.1341 121.545 55.7628 121.236 55.5772C120.926 55.3915 120.431 55.3915 119.998 55.5772L116.904 56.4435L116.595 55.2678L119.689 54.4015C120.184 54.2777 120.555 54.0302 120.741 53.7208C120.926 53.4114 120.988 52.9783 120.864 52.607C120.741 52.2357 120.493 51.8644 120.184 51.6788C119.874 51.4932 119.379 51.4932 118.946 51.6788L115.852 52.5451L115.543 51.3694L121.112 49.7606L121.421 50.9363L120.741 51.1219C120.988 51.2457 121.298 51.4313 121.483 51.7407C121.731 51.9882 121.855 52.2357 121.978 52.607C122.102 53.102 122.102 53.4733 122.04 53.9064C121.978 54.3396 121.793 54.649 121.483 54.9584C121.916 55.0203 122.226 55.2059 122.535 55.5153C122.845 55.8247 123.03 56.1341 123.216 56.5672C123.03 56.8766 123.092 57.3098 122.968 57.6811Z" fill="#F3F3F4"/>
<path d="M123.03 67.8911C123.525 68.1386 123.835 68.448 124.02 68.8811C124.268 69.2524 124.392 69.7474 124.392 70.2425C124.392 70.7375 124.268 71.1088 124.082 71.4182C123.896 71.7276 123.711 72.037 123.401 72.2226L124.268 72.2226L124.268 73.4602L118.451 73.3364L118.451 72.0988L119.317 72.0988C119.07 71.8513 118.822 71.6038 118.637 71.2944C118.451 70.985 118.389 70.5519 118.389 70.0568C118.389 69.5618 118.575 69.1286 118.761 68.6955C119.008 68.3242 119.379 67.953 119.874 67.7054C120.369 67.4579 120.864 67.3342 121.421 67.396C122.102 67.4579 122.659 67.6436 123.03 67.8911ZM122.473 72.037C122.783 71.8513 122.968 71.6657 123.154 71.3563C123.278 71.1088 123.401 70.8613 123.401 70.49C123.463 70.1806 123.34 69.9331 123.154 69.6237C123.03 69.3762 122.783 69.1287 122.473 68.943C122.164 68.7574 121.854 68.6955 121.483 68.6955C121.112 68.6955 120.679 68.7574 120.431 68.8811C120.122 69.0668 119.936 69.2524 119.689 69.4999C119.441 69.7474 119.441 69.995 119.441 70.3662C119.379 70.6756 119.503 70.9231 119.689 71.2325C119.812 71.48 120.06 71.7276 120.369 71.9132C120.679 72.0988 120.988 72.1607 121.421 72.2226C121.854 72.2845 122.164 72.0988 122.473 72.037Z" fill="#F3F3F4"/>
<path d="M122.102 84.4129C121.854 84.6604 121.607 84.9079 121.236 85.0317L122.04 85.2173L121.731 86.393L116.038 84.9079C115.543 84.7842 115.048 84.5366 114.738 84.2272C114.429 83.9179 114.182 83.5466 114.058 83.0515C113.934 82.5565 113.934 82.0615 114.12 81.5046C114.367 80.762 114.677 80.2051 115.11 79.772C115.543 79.3388 116.162 79.2151 116.78 79.3388L116.471 80.5145C116.162 80.5764 115.852 80.6383 115.605 80.8858C115.357 81.1333 115.172 81.4427 115.048 81.814C114.924 82.309 114.924 82.6803 115.172 83.0515C115.419 83.4228 115.79 83.6703 116.285 83.7941L117.275 84.0416C117.028 83.7941 116.904 83.4228 116.78 83.0515C116.657 82.6803 116.719 82.2471 116.78 81.814C116.904 81.3189 117.152 80.9477 117.523 80.5764C117.894 80.2051 118.327 80.0195 118.822 79.8957C119.317 79.772 119.874 79.8338 120.369 79.9576C120.926 80.1432 121.421 80.3908 121.731 80.7002C122.102 81.0714 122.35 81.4427 122.473 81.9377C122.597 82.4328 122.597 82.9278 122.473 83.4228C122.597 83.7941 122.411 84.1035 122.102 84.4129ZM120.369 84.5366C120.679 84.4748 120.988 84.2891 121.174 84.1035C121.421 83.856 121.545 83.6085 121.607 83.2991C121.669 82.9897 121.669 82.7422 121.607 82.4328C121.545 82.1234 121.421 81.8758 121.174 81.6283C120.926 81.3808 120.617 81.1952 120.246 81.0714C119.874 80.9477 119.503 80.9477 119.194 81.0095C118.884 81.0714 118.575 81.2571 118.389 81.4427C118.204 81.6283 118.018 81.9377 117.956 82.2471C117.894 82.5565 117.894 82.804 117.956 83.1134C118.018 83.4228 118.204 83.7322 118.389 83.9178C118.637 84.1654 118.946 84.351 119.379 84.4129C119.689 84.5985 120.06 84.5985 120.369 84.5366Z" fill="#F3F3F4"/>
<path d="M119.132 92.952L113.872 90.5388L114.367 89.4249L119.627 91.8382L119.132 92.952ZM120.493 92.3333C120.679 92.2714 120.926 92.2714 121.112 92.3333C121.298 92.3951 121.483 92.5808 121.545 92.7664C121.607 92.952 121.607 93.1996 121.545 93.3852C121.483 93.5708 121.359 93.6946 121.112 93.8183C120.864 93.9421 120.679 93.8802 120.493 93.8183C120.308 93.7565 120.122 93.5708 120.06 93.3852C119.998 93.1996 119.998 92.952 120.122 92.8283C120.184 92.5189 120.308 92.3951 120.493 92.3333Z" fill="#F3F3F4"/>
<path d="M113.996 101.306C113.687 101.491 113.253 101.553 112.82 101.491C112.387 101.43 111.954 101.244 111.583 100.996L108.798 99.0781L109.417 98.0881L112.078 99.8825C112.511 100.192 112.882 100.316 113.315 100.254C113.748 100.192 113.996 99.9444 114.243 99.5731C114.491 99.2019 114.615 98.8306 114.491 98.4593C114.367 98.0881 114.182 97.7787 113.748 97.4693L111.088 95.6748L111.706 94.6847L116.471 97.9643L115.852 98.9544L115.357 98.5831C115.419 98.8925 115.481 99.2019 115.419 99.5113C115.357 99.8207 115.233 100.192 115.048 100.378C114.615 100.811 114.305 101.12 113.996 101.306Z" fill="#F3F3F4"/>
<path d="M102.486 108.979L105.704 106.009C105.395 105.699 104.962 105.514 104.59 105.514C104.219 105.514 103.786 105.699 103.476 106.009C103.043 106.442 102.858 106.999 103.043 107.556L102.053 108.422C101.806 107.927 101.744 107.37 101.93 106.813C101.991 106.256 102.363 105.761 102.858 105.266C103.229 104.895 103.724 104.647 104.219 104.523C104.714 104.4 105.209 104.4 105.704 104.647C106.199 104.771 106.632 105.08 107.004 105.575C107.437 106.009 107.684 106.504 107.808 106.999C107.932 107.494 107.932 107.989 107.746 108.422C107.622 108.917 107.313 109.35 106.88 109.659C106.509 110.031 106.014 110.278 105.58 110.34C105.085 110.464 104.652 110.402 104.157 110.278C103.724 110.093 103.229 109.845 102.92 109.412C102.734 109.35 102.548 109.164 102.486 108.979ZM104.033 108.917C104.343 109.226 104.652 109.412 105.085 109.35C105.457 109.35 105.89 109.164 106.199 108.855C106.509 108.546 106.694 108.236 106.694 107.865C106.694 107.494 106.632 107.061 106.385 106.689L104.033 108.917Z" fill="#F3F3F4"/>
<path d="M98.65 114.3C98.65 114.795 98.5263 115.29 98.3406 115.723C98.0931 116.095 97.7218 116.466 97.3506 116.714C97.0412 116.899 96.6699 117.023 96.2367 117.085C95.8036 117.147 95.4942 117.085 95.1229 116.961L96.5461 119.374L95.4942 119.931L91.5958 113.186L92.6478 112.63L93.0809 113.434C93.1428 113.125 93.2666 112.753 93.4522 112.444C93.6378 112.135 93.9472 111.825 94.3804 111.639C94.8754 111.392 95.2467 111.268 95.7417 111.268C96.2367 111.268 96.6699 111.454 97.1649 111.701C97.5981 112.011 97.9693 112.382 98.2169 112.877C98.4644 113.372 98.65 113.805 98.65 114.3ZM94.8135 115.909C95.1229 116.095 95.4323 116.157 95.6798 116.157C95.9273 116.157 96.2367 116.095 96.5461 115.909C96.7936 115.785 97.0412 115.538 97.1649 115.29C97.2887 115.043 97.3506 114.733 97.4124 114.424C97.4124 114.053 97.3506 113.743 97.103 113.372C96.9174 113.063 96.6699 112.815 96.3605 112.63C96.0511 112.444 95.7417 112.382 95.4323 112.32C95.1229 112.258 94.8754 112.382 94.566 112.568C94.3185 112.691 94.071 112.939 93.9472 113.186C93.8235 113.434 93.7616 113.743 93.7616 114.115C93.7616 114.486 93.8235 114.795 94.071 115.167C94.2566 115.476 94.5041 115.724 94.8135 115.909Z" fill="#F3F3F4"/>
<path d="M80.5814 117.394C81.0764 117.518 81.5096 117.827 81.8189 118.261C82.1283 118.694 82.3759 119.189 82.4377 119.746C82.5615 120.364 82.5615 120.859 82.314 121.355C82.1902 121.85 81.8808 122.283 81.4477 122.592C81.0145 122.901 80.5814 123.087 80.0245 123.273C79.4676 123.335 78.9725 123.335 78.4775 123.211C77.9825 123.087 77.5493 122.778 77.2399 122.345C76.8686 121.973 76.683 121.416 76.5592 120.921C76.4355 120.303 76.4355 119.808 76.683 119.312C76.8068 118.817 77.1162 118.384 77.5493 118.075C77.9825 117.766 78.4775 117.518 78.9725 117.394C79.5913 117.147 80.0863 117.147 80.5814 117.394ZM78.4156 118.694C78.23 118.879 77.9825 119.127 77.9206 119.436C77.8587 119.746 77.7968 120.179 77.8587 120.488C77.9206 120.921 78.1062 121.231 78.2918 121.54C78.4775 121.85 78.725 121.973 79.0344 122.035C79.3438 122.097 79.6532 122.159 79.9626 122.097C80.272 122.035 80.5195 121.911 80.767 121.664C80.9526 121.478 81.2002 121.231 81.262 120.921C81.3239 120.612 81.3239 120.241 81.262 119.808C81.1383 119.189 80.9526 118.756 80.5195 118.446C80.0863 118.137 79.7151 118.137 79.22 118.137C78.9106 118.322 78.6631 118.446 78.4156 118.694Z" fill="#F3F3F4"/>
<path d="M66.1635 123.644C65.8541 123.458 65.5447 123.149 65.3591 122.716C65.1734 122.283 65.1115 121.85 65.1115 121.355L65.2972 117.951L66.4729 118.013L66.3491 121.231C66.3491 121.726 66.411 122.159 66.6585 122.406C66.906 122.654 67.2154 122.84 67.7105 122.84C68.1436 122.901 68.5149 122.778 68.8243 122.468C69.0718 122.221 69.2574 121.788 69.2574 121.293L69.3812 118.075L70.5569 118.137L70.3094 123.953L69.1337 123.892L69.1955 123.211C68.948 123.458 68.7624 123.644 68.453 123.706C68.1436 123.768 67.7723 123.892 67.4629 123.83C66.906 124.015 66.5348 123.892 66.1635 123.644Z" fill="#F3F3F4"/>
<path d="M53.5403 120.179C53.169 120.55 52.7358 120.736 52.2408 120.859C51.7458 120.983 51.2507 120.859 50.6938 120.674C50.075 120.426 49.58 120.055 49.2706 119.622C48.9612 119.189 48.8375 118.57 48.8993 118.013L50.075 118.446C50.075 118.694 50.1369 119.003 50.2607 119.251C50.3844 119.498 50.6938 119.684 51.0032 119.746C51.4364 119.931 51.8695 119.869 52.3027 119.684C52.674 119.436 53.0452 119.065 53.2309 118.508C53.4165 117.951 53.4784 117.394 53.3546 117.023C53.169 116.59 52.8596 116.28 52.4264 116.095C51.8077 115.847 51.1889 115.971 50.8176 116.466L49.6419 116.033C50.0132 115.538 50.4463 115.228 51.0032 115.043C51.5601 114.857 52.117 114.919 52.7977 115.105C53.3546 115.29 53.7259 115.538 54.0353 115.971C54.3447 116.404 54.5303 116.837 54.5922 117.27C54.6541 117.704 54.5922 118.261 54.3447 118.879C54.2209 119.374 53.9734 119.869 53.5403 120.179Z" fill="#F3F3F4"/>
<path d="M43.2065 118.137C43.2684 118.322 43.2065 118.508 43.1446 118.694C43.0827 118.879 42.8352 119.003 42.6496 119.065C42.464 119.127 42.2783 119.065 42.0927 119.003C41.907 118.941 41.7833 118.694 41.7214 118.508C41.6595 118.322 41.7214 118.137 41.7833 117.951C41.8452 117.766 42.0927 117.642 42.2783 117.58C42.464 117.518 42.6496 117.58 42.8352 117.642C43.0209 117.827 43.1446 117.951 43.2065 118.137ZM42.6496 116.714L45.5579 111.701L46.6098 112.258L43.7634 117.332L42.6496 116.714Z" fill="#F3F3F4"/>
<path d="M37.3899 113.063C37.0805 113.001 36.7092 112.877 36.3998 112.691L37.2042 111.64L37.4518 111.763C37.823 112.011 38.1943 112.135 38.5037 112.073C38.8131 112.011 39.1844 111.763 39.5556 111.268L41.3501 108.855L42.2783 109.659L38.875 114.3L37.8849 113.558L38.3799 112.939C38.1324 113.063 37.7612 113.063 37.3899 113.063Z" fill="#F3F3F4"/>
<path d="M33.3059 108.112C32.8109 108.236 32.3158 108.236 31.8208 108.112C31.3258 107.989 30.8926 107.679 30.5213 107.308C30.0263 106.813 29.7169 106.256 29.655 105.699C29.5932 105.142 29.655 104.585 30.0263 104.09L30.9545 105.018C30.8307 105.266 30.7689 105.575 30.8307 105.885C30.8926 106.194 31.0164 106.442 31.2639 106.689C31.6352 107.06 32.0064 107.184 32.4396 107.122C32.8727 107.06 33.3059 106.875 33.8009 106.38C34.296 105.885 34.5435 105.513 34.5435 105.018C34.6054 104.585 34.4197 104.152 34.1103 103.843C33.6153 103.348 33.1203 103.224 32.5015 103.471L31.5733 102.543C32.1302 102.234 32.6871 102.172 33.244 102.234C33.8009 102.296 34.3578 102.605 34.8529 103.1C35.2241 103.471 35.4717 103.967 35.5954 104.462C35.7192 104.957 35.7192 105.452 35.5335 105.885C35.4098 106.38 35.1004 106.813 34.6672 107.246C34.2341 107.679 33.8009 107.989 33.3059 108.112Z" fill="#F3F3F4"/>
<path d="M21.982 95.4272L26.9323 92.457L27.5511 93.4471L26.9323 93.8184C27.2417 93.8803 27.5511 93.9421 27.7986 94.1896C28.108 94.3753 28.3555 94.6228 28.4793 94.8703C28.7268 95.2416 28.8506 95.6129 28.9125 96.046C28.9125 96.4173 28.8506 96.8504 28.6031 97.2217C28.3555 97.593 28.0461 97.9024 27.613 98.2118L24.7047 100.006L24.0859 99.0162L26.8704 97.3455C27.3036 97.0361 27.613 96.7267 27.6749 96.4173C27.7986 96.046 27.6749 95.6747 27.4892 95.2416C27.2417 94.8703 26.9942 94.6228 26.5611 94.5609C26.1898 94.4372 25.8185 94.5609 25.3235 94.8084L22.6008 96.541L21.982 95.4272Z" fill="#F3F3F4"/>
<path d="M18.6405 90.6007C18.5787 90.7863 18.4549 90.91 18.2074 91.0338C18.0218 91.0957 17.7742 91.0957 17.5886 91.0338C17.403 90.9719 17.2792 90.8482 17.1554 90.6007C17.0936 90.415 17.0936 90.1675 17.1554 89.9819C17.2173 89.7962 17.3411 89.6725 17.5886 89.5487C17.8361 89.425 18.0218 89.4868 18.2074 89.5487C18.393 89.6106 18.5168 89.7344 18.6405 89.9819C18.7024 90.1675 18.7024 90.415 18.6405 90.6007ZM19.1356 89.1156L24.519 86.9498L25.0141 88.0636L19.6306 90.2294L19.1356 89.1156Z" fill="#F3F3F4"/>
<path d="M18.3312 83.3608L21.4251 82.4945C21.6107 82.4327 21.7964 82.3708 21.7964 82.247C21.9201 82.1233 21.8583 81.9376 21.7964 81.752L21.6107 81.0713L22.6008 80.8238L22.8483 81.6901C22.9721 82.1851 22.9721 82.6802 22.7864 82.9896C22.6008 83.299 22.2295 83.5465 21.6726 83.7321L18.5787 84.5984L18.7643 85.2791L17.7743 85.5266L17.5886 84.8459L16.2273 85.2172L15.9179 84.0415L17.2792 83.6702L16.908 82.3089L17.898 82.0614L18.3312 83.3608Z" fill="#F3F3F4"/>
<path d="M21.7964 77.668C21.6726 77.7918 21.487 77.9774 21.2395 77.9774C20.992 77.9774 20.8682 77.9774 20.6207 77.8537C20.4969 77.7299 20.3113 77.5443 20.3113 77.2967C20.2494 77.1111 20.3113 76.9255 20.4969 76.7398C20.6826 76.5542 20.8063 76.4304 21.0538 76.4304C21.2395 76.3686 21.4251 76.4304 21.6726 76.5542C21.7964 76.678 21.9201 76.8017 21.9201 77.0492C21.9201 77.2967 21.982 77.4824 21.7964 77.668Z" fill="#F3F3F4"/>
</g>
<path d="M88.9368 63.7142H51.9368V74.7837H88.9368V63.7142Z" fill="#E2FF65"/>
</g>
<rect x="1.5" y="1.5" width="137" height="136" rx="68" stroke="#211F20"/>
</g>
<defs>
<filter id="filter0_g_299_2557" x="0.5" y="0.5" width="139" height="138" filterUnits="userSpaceOnUse" color-interpolation-filters="sRGB">
<feFlood flood-opacity="0" result="BackgroundImageFix"/>
<feBlend mode="normal" in="SourceGraphic" in2="BackgroundImageFix" result="shape"/>
<feTurbulence type="fractalNoise" baseFrequency="2 2" numOctaves="3" seed="9034" />
<feDisplacementMap in="shape" scale="1" xChannelSelector="R" yChannelSelector="G" result="displacedImage" width="100%" height="100%" />
<feMerge result="effect1_texture_299_2557">
<feMergeNode in="displacedImage"/>
</feMerge>
</filter>
<clipPath id="clip0_299_2557">
<rect x="1" y="1" width="138" height="137" rx="68.5" fill="white"/>
</clipPath>
<clipPath id="clip1_299_2557">
<rect width="110" height="109.3" fill="white" transform="translate(-7.53424 69.7475) rotate(-45)"/>
</clipPath>
</defs>
</svg>
