<svg width="158" height="158" viewBox="0 0 158 158" fill="none" xmlns="http://www.w3.org/2000/svg">
<g filter="url(#filter0_g_299_2515)">
<path d="M76.8037 8.31348C77.9762 7.00735 80.0238 7.00735 81.1963 8.31348C82.5766 9.85087 84.8972 10.0584 86.5244 8.82129L86.6797 8.69727C87.9805 7.60245 89.923 7.83521 90.9336 9.1748L91.0283 9.30859C92.2184 11.0786 94.5992 11.5841 96.4062 10.4512C97.8468 9.54826 99.7376 10.0494 100.552 11.5166L100.627 11.6621C101.559 13.5803 103.846 14.4122 105.793 13.542C107.395 12.8257 109.265 13.6581 109.805 15.3281C110.461 17.3576 112.61 18.5001 114.659 17.9092C116.293 17.4381 117.972 18.4411 118.351 20.0762L118.384 20.2363C118.751 22.3373 120.719 23.7677 122.831 23.4678C124.569 23.221 126.136 24.536 126.195 26.29C126.267 28.4217 128.017 30.1125 130.149 30.1094C131.85 30.1068 133.188 31.534 133.101 33.21L133.088 33.373C132.862 35.4938 134.36 37.4114 136.473 37.7051C138.157 37.9393 139.284 39.5389 138.964 41.1865L138.929 41.3457C138.41 43.4144 139.626 45.5215 141.677 46.1064C143.365 46.5877 144.262 48.4273 143.603 50.0537C142.801 52.0299 143.712 54.2856 145.661 55.1504C147.266 55.8619 147.898 57.8084 147.019 59.3271C145.949 61.1727 146.538 63.5336 148.349 64.6611C149.838 65.589 150.194 67.6048 149.111 68.9863C147.796 70.665 148.05 73.0845 149.686 74.4531C151.032 75.5794 151.103 77.6254 149.839 78.8428C148.303 80.3221 148.218 82.7541 149.647 84.3369C150.823 85.6395 150.61 87.6746 149.188 88.7041C147.461 89.9552 147.038 92.3517 148.233 94.1182C149.217 95.5718 148.722 97.5572 147.171 98.3789C145.286 99.3774 144.535 101.692 145.473 103.607C146.244 105.184 145.477 107.082 143.827 107.68C141.885 108.384 140.823 110.458 141.36 112.43L141.417 112.62C141.962 114.289 140.939 116.061 139.222 116.424C137.135 116.864 135.774 118.882 136.147 120.981C136.455 122.709 135.194 124.322 133.443 124.441C131.316 124.587 129.688 126.396 129.766 128.527C129.829 130.281 128.357 131.703 126.606 131.578C124.479 131.426 122.614 132.99 122.395 135.111C122.214 136.857 120.558 138.06 118.842 137.692C116.756 137.246 114.693 138.535 114.18 140.605C113.758 142.309 111.951 143.27 110.303 142.668C108.3 141.936 106.076 142.925 105.28 144.903C104.646 146.481 102.821 147.187 101.3 146.479L100.976 146.316C99.1267 145.445 96.8995 146.13 95.8691 147.921C94.9938 149.442 92.9917 149.868 91.5732 148.834C89.8497 147.578 87.4405 147.916 86.1299 149.599C85.0514 150.983 83.0098 151.126 81.749 149.905C80.217 148.421 77.783 148.421 76.251 149.905C74.9902 151.126 72.9486 150.983 71.8701 149.599C70.5595 147.916 68.1503 147.578 66.4268 148.834C65.0083 149.868 63.0062 149.442 62.1309 147.921C61.1005 146.13 58.8733 145.445 57.0244 146.316L56.7002 146.479C55.2281 147.164 53.4722 146.525 52.7852 145.054L52.7197 144.903C51.9236 142.925 49.7004 141.936 47.6973 142.668C46.0489 143.27 44.2424 142.309 43.8203 140.605C43.3073 138.535 41.2436 137.246 39.1582 137.692C37.4419 138.06 35.7864 136.857 35.6055 135.111C35.3926 133.056 33.6364 131.524 31.5928 131.568L31.3936 131.578C29.6431 131.703 28.1707 130.281 28.2344 128.527C28.312 126.396 26.6844 124.587 24.5566 124.441C22.8602 124.325 21.6242 122.808 21.8281 121.143L21.8525 120.981C22.226 118.882 20.8652 116.864 18.7783 116.424C17.061 116.061 16.0381 114.289 16.583 112.62C17.2242 110.656 16.2431 108.543 14.3584 107.752L14.1729 107.68C12.5741 107.1 11.8046 105.301 12.46 103.756L12.5273 103.607C13.4652 101.692 12.7138 99.3774 10.8291 98.3789C9.32659 97.5829 8.81494 95.6947 9.67871 94.2559L9.7666 94.1182C10.9247 92.4068 10.5642 90.1038 8.96973 88.8242L8.81152 88.7041C7.43459 87.7066 7.19138 85.7655 8.24707 84.4609L8.35254 84.3369C9.73732 82.8036 9.70107 80.4734 8.30078 78.9844L8.16113 78.8428C6.93625 77.6634 6.96452 75.7066 8.19141 74.5615L8.31445 74.4531C9.89897 73.1273 10.1875 70.8149 9.00781 69.1455L8.88867 68.9863C7.8061 67.6048 8.16152 65.589 9.65137 64.6611C11.4618 63.5336 12.0506 61.1727 10.9814 59.3271C10.1291 57.8557 10.6961 55.983 12.1914 55.2207L12.3389 55.1504C14.2883 54.2856 15.1993 52.0299 14.3975 50.0537C13.7376 48.4273 14.6353 46.5877 16.3232 46.1064C18.3742 45.5215 19.5903 43.4144 19.0713 41.3457C18.6441 39.6433 19.7889 37.9468 21.5273 37.7051C23.6398 37.4114 25.1381 35.4938 24.9121 33.373C24.726 31.6277 26.0954 30.1068 27.8506 30.1094C29.9834 30.1125 31.7334 28.4217 31.8047 26.29C31.8635 24.536 33.4314 23.221 35.1689 23.4678C37.2806 23.7677 39.2489 22.3373 39.6162 20.2363C39.909 18.5614 41.5473 17.4913 43.1826 17.8682L43.3408 17.9092C45.3902 18.5001 47.5392 17.3576 48.1953 15.3281C48.7353 13.6581 50.6047 12.8257 52.207 13.542C54.0932 14.385 56.2978 13.6306 57.2812 11.8389L57.373 11.6621C58.1401 10.0835 60.1067 9.51909 61.5938 10.4512C63.4008 11.5841 65.7816 11.0786 66.9717 9.30859C67.9205 7.89744 69.8517 7.58604 71.1924 8.5957L71.3203 8.69727C72.9521 10.0705 75.3789 9.90043 76.8037 8.31348Z" fill="#1C50D8" stroke="#211F20"/>
<path d="M101 73.1939H58.0001V86.0584H101V73.1939Z" fill="#E2FF65"/>
<g clip-path="url(#clip0_299_2515)">
<path d="M24.9798 73.0596C24.4848 72.6883 24.1135 72.0695 23.9279 71.5126C23.6804 70.8938 23.6804 70.275 23.7423 69.5944C23.866 68.8518 24.1754 68.1711 24.6704 67.6761C25.1655 67.1811 25.7843 66.8098 26.4649 66.6242L26.2793 68.0474C25.908 68.1711 25.5367 68.4187 25.2892 68.6662C25.0417 68.9137 24.8561 69.3468 24.7942 69.78C24.6704 70.275 24.7323 70.7082 24.918 71.1413C25.1036 71.5745 25.2892 71.8839 25.7224 72.1933C26.1555 72.5027 26.5268 72.6264 27.0218 72.7502C27.5787 72.8121 28.0738 72.8121 28.4451 72.6883C28.8163 72.5645 29.2495 72.2552 29.497 72.0076C29.7445 71.7601 29.992 71.2651 30.0539 70.8319C30.1158 70.3988 30.1158 70.0275 29.992 69.6562C29.8683 69.285 29.6208 69.0375 29.3114 68.7281L29.497 67.3048C30.1158 67.6761 30.6108 68.1711 30.8583 68.9137C31.1677 69.5944 31.2296 70.275 31.044 71.0795C30.9821 71.7601 30.6727 72.317 30.2395 72.8739C29.8064 73.4309 29.3114 73.8021 28.7544 73.9878C28.1975 74.1734 27.455 74.2972 26.7743 74.1115C26.0937 73.9259 25.413 73.4927 24.9798 73.0596Z" fill="#F3F3F3"/>
<path d="M33.6429 60.4363C33.2097 60.7457 32.7766 60.9313 32.2815 60.9313C31.7246 60.9932 31.2296 60.8694 30.7346 60.6219C30.2395 60.3744 29.8064 60.065 29.497 59.6318C29.1876 59.1987 29.0019 58.7655 28.9401 58.2086C28.9401 57.7136 29.0019 57.1567 29.2495 56.6617C29.4351 56.2285 29.7445 55.7953 30.1158 55.5478C30.5489 55.2384 30.9821 55.0528 31.539 54.9909C32.0959 54.929 32.5909 55.0528 33.1478 55.2384C33.6429 55.486 34.076 55.7953 34.3854 56.2285C34.6948 56.6617 34.8804 57.0948 34.9423 57.6517C35.0042 58.2086 34.8804 58.7037 34.6329 59.1987C34.3854 59.6937 34.076 60.1269 33.6429 60.4363ZM33.8285 57.8992C33.7666 57.5898 33.7047 57.2804 33.4572 57.0329C33.2716 56.7235 32.9622 56.5379 32.5909 56.4141C32.2196 56.2904 31.8484 56.1666 31.539 56.2285C31.2296 56.2904 30.9202 56.3523 30.6727 56.5998C30.487 56.7854 30.2395 57.0329 30.1158 57.2804C29.992 57.528 29.9301 57.8374 29.992 58.1467C30.0539 58.4561 30.1158 58.7655 30.3633 59.0131C30.6108 59.2606 30.8583 59.5081 31.2296 59.6318C31.8484 59.8794 32.2815 59.9412 32.7147 59.7556C33.1478 59.57 33.5191 59.3224 33.7047 58.8893C33.8285 58.518 33.8904 58.2086 33.8285 57.8992Z" fill="#F3F3F3"/>
<path d="M36.7987 44.9047C37.1699 44.7809 37.5412 44.6572 37.9744 44.719C38.4075 44.7809 38.8407 44.9666 39.2119 45.3378L41.9346 47.4417L41.2539 48.3699L38.655 46.3898C38.2219 46.0804 37.8506 45.9566 37.4793 45.9566C37.1081 45.9566 36.7368 46.2041 36.4893 46.5754C36.2418 46.9467 36.118 47.318 36.1799 47.6273C36.2418 48.0605 36.4893 48.308 36.8605 48.6793L39.4595 50.6594L38.7169 51.6495L34.076 48.1224L34.8185 47.1323L35.3754 47.5655C35.3136 47.2561 35.3136 47.0086 35.4373 46.6373C35.5611 46.266 35.6848 46.0185 35.8705 45.7091C36.118 45.3378 36.3655 45.0903 36.7987 44.9047Z" fill="#F3F3F3"/>
<path d="M45.7093 36.1179C46.1425 36.0561 46.5137 36.0561 46.885 36.1798C47.2563 36.3036 47.6894 36.613 47.9988 37.0461L50.1646 39.7069L49.2983 40.4495L47.2563 37.9124C46.9469 37.4793 46.5756 37.2318 46.2043 37.2318C45.8331 37.2318 45.4618 37.3555 45.0905 37.603C44.7811 37.9124 44.5955 38.2218 44.5336 38.655C44.4717 39.0881 44.5955 39.4594 44.9049 39.8926L47.0088 42.3677L46.0806 43.1721L42.3679 38.7169L43.296 37.9124L43.7292 38.4693C43.7292 38.2218 43.853 37.8506 43.9767 37.603C44.1623 37.2936 44.2861 37.0461 44.5955 36.8605C44.9049 36.4273 45.338 36.2417 45.7093 36.1179Z" fill="#F3F3F3"/>
<path d="M58.8277 32.0339L54.8674 34.014C55.1149 34.3853 55.4243 34.6947 55.8575 34.7566C56.2287 34.8803 56.6619 34.8185 57.095 34.6328C57.652 34.3234 57.9614 33.8903 57.9614 33.2715L59.137 32.7146C59.1989 33.2715 59.137 33.8284 58.8895 34.3234C58.642 34.8185 58.2089 35.2516 57.5901 35.4991C57.095 35.7467 56.6 35.8704 56.105 35.8704C55.61 35.8704 54.9293 35.6848 54.4961 35.3754C54.063 35.066 53.7536 34.6328 53.5061 34.1378C53.2586 33.6428 53.0729 33.0859 53.1348 32.529C53.1348 32.0339 53.2586 31.5389 53.5679 31.1057C53.8773 30.6726 54.2486 30.3013 54.8055 30.1157C55.3006 29.8682 55.7956 29.7444 56.2906 29.7444C56.7857 29.7444 57.2188 29.93 57.652 30.2394C58.0851 30.5488 58.3326 30.9201 58.5801 31.4151C58.642 31.7245 58.7039 31.9102 58.8277 32.0339ZM57.2807 31.7245C57.095 31.2914 56.7857 31.1057 56.4144 30.982C56.0431 30.8582 55.61 30.9201 55.1768 31.1057C54.8055 31.2295 54.558 31.6008 54.3724 31.9102C54.2486 32.2814 54.2486 32.6527 54.3724 33.1477L57.2807 31.7245Z" fill="#F3F3F3"/>
<path d="M63.9017 28.0736C64.0255 27.5786 64.273 27.2073 64.6443 26.8361C65.0155 26.4648 65.4487 26.2792 66.0056 26.0935C66.6863 25.9079 67.3051 25.9079 67.8001 26.1554C68.357 26.341 68.7283 26.7123 69.0377 27.2692L67.7382 27.5786C67.6145 27.3311 67.3051 27.1455 67.0575 27.0217C66.81 26.898 66.5006 26.9598 66.1294 26.9598C65.7581 27.2073 65.3868 27.4549 65.2012 27.888C65.0155 28.3212 65.0155 28.8162 65.1393 29.435C65.2631 30.0538 65.5725 30.4869 65.9437 30.7344C66.315 30.982 66.7482 31.0438 67.1813 30.982C67.862 30.7963 68.2333 30.425 68.2951 29.7444L69.5946 29.435C69.5946 30.0538 69.3471 30.5488 68.9758 31.0438C68.6045 31.5389 68.1095 31.7864 67.4288 31.972C66.9338 32.0958 66.4388 32.0958 65.9437 31.972C65.4487 31.8483 65.0774 31.6007 64.7062 31.2295C64.3349 30.8582 64.0874 30.3632 64.0255 29.8063C63.9636 29.2493 63.778 28.5687 63.9017 28.0736Z" fill="#F3F3F3"/>
<path d="M75.5349 25.7223L75.7824 28.94C75.7824 29.1875 75.9061 29.3112 75.968 29.3731C76.0299 29.435 76.2155 29.4969 76.463 29.4969L77.2056 29.4969L77.2675 30.5488L76.3393 30.6107C75.7824 30.6726 75.4111 30.5488 75.0398 30.3013C74.6686 30.0538 74.5448 29.6825 74.5448 29.0637L74.2973 25.846L73.6166 25.9079L73.5547 24.9797L74.2354 24.9178L74.1735 23.4946L75.3492 23.4327L75.4111 24.856L76.8343 24.7941L76.8962 25.7223L75.5349 25.7223Z" fill="#F3F3F3"/>
<path d="M81.9703 24.7322L81.7228 30.5488L80.5471 30.4869L80.7946 24.6703L81.9703 24.7322ZM80.9184 23.6802C80.7946 23.5565 80.7327 23.3708 80.7327 23.1233C80.7327 22.8758 80.8565 22.752 80.9802 22.6283C81.104 22.5045 81.2896 22.4427 81.5371 22.4427C81.7847 22.4427 81.9084 22.5664 82.0322 22.6902C82.1559 22.8139 82.2178 22.9996 82.2178 23.2471C82.2178 23.4946 82.0941 23.6183 81.9703 23.7421C81.8465 23.8659 81.6609 23.9277 81.4134 23.9277C81.2896 23.9277 81.104 23.8659 80.9184 23.6802Z" fill="#F3F3F3"/>
<path d="M87.4775 30.8582C87.1062 30.4869 86.8587 30.1156 86.6731 29.5587C86.5493 29.0637 86.4875 28.5068 86.6731 27.9499C86.7969 27.3311 86.9825 26.8979 87.3538 26.5267C87.725 26.1554 88.1582 25.846 88.6532 25.7222C89.1482 25.5985 89.6433 25.5985 90.2002 25.6604C90.6952 25.7841 91.1903 26.0316 91.6234 26.341C91.9947 26.7123 92.2422 27.0836 92.4897 27.5786C92.6135 28.0736 92.6753 28.6306 92.5516 29.2493C92.4278 29.8681 92.2422 30.3013 91.8709 30.6726C91.4996 31.0438 91.0665 31.3532 90.5715 31.477C90.0764 31.6007 89.5195 31.6626 89.0245 31.5389C88.2819 31.4151 87.8488 31.2295 87.4775 30.8582ZM89.9527 30.4869C90.2621 30.425 90.5096 30.1775 90.6952 29.9919C90.9427 29.7444 91.0665 29.3731 91.1903 29.0018C91.2521 28.5687 91.2521 28.1974 91.1903 27.888C91.1284 27.5786 90.9427 27.2692 90.6952 27.1455C90.5096 26.9598 90.2002 26.7742 89.8908 26.7123C89.5814 26.6504 89.3339 26.6504 89.0245 26.7123C88.7151 26.7742 88.5295 26.9598 88.2819 27.2073C88.0344 27.4549 87.9107 27.8261 87.7869 28.1974C87.6632 28.8162 87.6632 29.3112 87.9726 29.7444C88.2201 30.1156 88.5913 30.3632 89.0864 30.4869C89.3339 30.6107 89.6433 30.5488 89.9527 30.4869Z" fill="#F3F3F3"/>
<path d="M103.257 30.5488C103.504 30.9201 103.628 31.2913 103.628 31.6626C103.628 32.0339 103.504 32.5289 103.38 33.024L101.895 36.1179L100.782 35.6229L102.143 32.6527C102.39 32.1576 102.39 31.7864 102.267 31.4151C102.143 31.0438 101.895 30.7963 101.462 30.6107C101.029 30.425 100.658 30.425 100.287 30.5488C99.9152 30.6726 99.6059 30.9819 99.4202 31.4151L98.0589 34.3853L96.9451 33.8903L99.3583 28.6306L100.472 29.1256L100.225 29.7444C100.472 29.6206 100.782 29.5587 101.153 29.5587C101.524 29.5587 101.833 29.6206 102.143 29.8062C102.7 29.9919 103.071 30.2394 103.257 30.5488Z" fill="#F3F3F3"/>
<path d="M115.014 38.5931C115.323 38.6549 115.632 38.8406 116.004 39.0881L115.199 40.0163L115.014 39.8306C114.704 39.5212 114.333 39.3975 113.962 39.3975C113.59 39.3975 113.219 39.645 112.91 40.0781L110.868 42.3677L109.94 41.5632L113.714 37.1698L114.642 37.9743L114.086 38.6549C114.395 38.4693 114.704 38.5312 115.014 38.5931Z" fill="#F3F3F3"/>
<path d="M120.459 49.2362L117.674 45.8328C117.365 46.1422 117.118 46.5135 117.118 46.8848C117.056 47.3179 117.179 47.6892 117.489 47.9986C117.86 48.4936 118.417 48.6793 118.974 48.4936L119.778 49.5456C119.221 49.7312 118.726 49.7312 118.169 49.6693C117.613 49.4837 117.118 49.2362 116.684 48.6793C116.375 48.2461 116.127 47.7511 116.066 47.3179C115.942 46.8229 116.066 46.3279 116.251 45.8947C116.437 45.4616 116.808 44.9665 117.241 44.6571C117.736 44.2859 118.231 44.0384 118.664 43.9765C119.16 43.8527 119.655 43.9765 120.15 44.1002C120.583 44.2859 121.016 44.5953 121.387 45.0903C121.697 45.5234 121.944 46.0185 122.006 46.4516C122.13 46.9467 122.068 47.3798 121.82 47.8748C121.635 48.308 121.325 48.7411 120.892 49.0505C120.768 49.0505 120.645 49.1743 120.459 49.2362ZM120.521 47.6892C120.83 47.3798 121.016 47.0704 121.078 46.6373C121.078 46.266 120.954 45.8947 120.645 45.4616C120.397 45.0903 120.026 44.9665 119.655 44.8428C119.221 44.7809 118.912 44.8428 118.541 45.0903L120.521 47.6892Z" fill="#F3F3F3"/>
<path d="M126.523 52.5778L121.511 55.4861L120.954 54.4341L125.966 51.5258L126.523 52.5778ZM126.771 51.0927C126.833 50.907 126.956 50.7833 127.142 50.5976C127.328 50.5358 127.513 50.4739 127.699 50.5358C127.884 50.5976 128.008 50.7214 128.194 50.907C128.256 51.0927 128.318 51.2783 128.256 51.4639C128.194 51.6496 128.07 51.7733 127.884 51.959C127.699 52.1446 127.513 52.0827 127.328 52.0208C127.142 51.959 127.018 51.8352 126.833 51.6496C126.771 51.4639 126.709 51.2783 126.771 51.0927Z" fill="#F3F3F3"/>
<path d="M131.968 67.1811C131.906 67.6143 131.721 67.9237 131.411 68.2331C131.102 68.5424 130.731 68.79 130.236 68.9137L126.956 69.8419L126.647 68.6662L129.741 67.7999C130.236 67.6761 130.607 67.4286 130.793 67.1192C130.978 66.8098 131.04 66.3767 130.916 66.0054C130.793 65.6341 130.545 65.2629 130.236 65.0772C129.926 64.8916 129.431 64.8916 128.998 65.0772L125.904 65.9435L125.595 64.7678L128.689 63.9015C129.184 63.7778 129.555 63.5303 129.741 63.2209C129.926 62.9115 129.988 62.4783 129.864 62.107C129.741 61.7358 129.493 61.3645 129.184 61.1789C128.874 60.9932 128.379 60.9932 127.946 61.1789L124.852 62.0452L124.543 60.8695L130.112 59.2606L130.421 60.4363L129.741 60.622C129.988 60.7457 130.298 60.9313 130.483 61.2407C130.731 61.4883 130.855 61.7358 130.978 62.107C131.102 62.6021 131.102 62.9734 131.04 63.4065C130.978 63.8397 130.793 64.1491 130.483 64.4584C130.916 64.5203 131.226 64.706 131.535 65.0154C131.845 65.3247 132.03 65.6341 132.216 66.0673C132.03 66.3767 132.092 66.8098 131.968 67.1811Z" fill="#F3F3F3"/>
<path d="M132.03 77.3911C132.525 77.6386 132.835 77.948 133.02 78.3811C133.268 78.7524 133.392 79.2474 133.392 79.7425C133.392 80.2375 133.268 80.6088 133.082 80.9182C132.897 81.2276 132.711 81.537 132.402 81.7226L133.268 81.7226L133.268 82.9602L127.451 82.8364L127.451 81.5988L128.318 81.5988C128.07 81.3513 127.823 81.1038 127.637 80.7944C127.451 80.485 127.389 80.0519 127.389 79.5568C127.389 79.0618 127.575 78.6286 127.761 78.1955C128.008 77.8242 128.379 77.453 128.874 77.2054C129.37 76.9579 129.865 76.8342 130.421 76.896C131.102 76.9579 131.659 77.1436 132.03 77.3911ZM131.473 81.537C131.783 81.3513 131.968 81.1657 132.154 80.8563C132.278 80.6088 132.402 80.3613 132.402 79.99C132.463 79.6806 132.34 79.4331 132.154 79.1237C132.03 78.8762 131.783 78.6287 131.473 78.443C131.164 78.2574 130.855 78.1955 130.483 78.1955C130.112 78.1955 129.679 78.2574 129.431 78.3811C129.122 78.5668 128.936 78.7524 128.689 78.9999C128.441 79.2474 128.441 79.495 128.441 79.8662C128.379 80.1756 128.503 80.4231 128.689 80.7325C128.813 80.98 129.06 81.2276 129.37 81.4132C129.679 81.5988 129.988 81.6607 130.421 81.7226C130.855 81.7845 131.164 81.5988 131.473 81.537Z" fill="#F3F3F3"/>
<path d="M131.102 93.9128C130.855 94.1603 130.607 94.4078 130.236 94.5316L131.04 94.7172L130.731 95.8929L125.038 94.4078C124.543 94.284 124.048 94.0365 123.739 93.7271C123.429 93.4177 123.182 93.0465 123.058 92.5514C122.934 92.0564 122.934 91.5614 123.12 91.0045C123.367 90.2619 123.677 89.705 124.11 89.2718C124.543 88.8387 125.162 88.7149 125.781 88.8387L125.471 90.0144C125.162 90.0763 124.852 90.1381 124.605 90.3857C124.357 90.6332 124.172 90.9426 124.048 91.3138C123.924 91.8089 123.924 92.1802 124.172 92.5514C124.419 92.9227 124.79 93.1702 125.286 93.294L126.276 93.5415C126.028 93.294 125.904 92.9227 125.781 92.5514C125.657 92.1802 125.719 91.747 125.781 91.3138C125.904 90.8188 126.152 90.4475 126.523 90.0763C126.894 89.705 127.328 89.5194 127.823 89.3956C128.318 89.2718 128.874 89.3337 129.37 89.4575C129.926 89.6431 130.421 89.8906 130.731 90.2C131.102 90.5713 131.35 90.9426 131.473 91.4376C131.597 91.9326 131.597 92.4277 131.473 92.9227C131.597 93.294 131.412 93.6034 131.102 93.9128ZM129.37 94.0365C129.679 93.9746 129.988 93.789 130.174 93.6034C130.421 93.3558 130.545 93.1083 130.607 92.7989C130.669 92.4895 130.669 92.242 130.607 91.9326C130.545 91.6232 130.421 91.3757 130.174 91.1282C129.926 90.8807 129.617 90.6951 129.246 90.5713C128.874 90.4475 128.503 90.4475 128.194 90.5094C127.884 90.5713 127.575 90.7569 127.389 90.9426C127.204 91.1282 127.018 91.4376 126.956 91.747C126.894 92.0564 126.894 92.3039 126.956 92.6133C127.018 92.9227 127.204 93.2321 127.389 93.4177C127.637 93.6652 127.946 93.8509 128.379 93.9128C128.689 94.0984 129.06 94.0984 129.37 94.0365Z" fill="#F3F3F3"/>
<path d="M128.132 102.452L122.872 100.039L123.367 98.9249L128.627 101.338L128.132 102.452ZM129.493 101.833C129.679 101.771 129.926 101.771 130.112 101.833C130.298 101.895 130.483 102.081 130.545 102.266C130.607 102.452 130.607 102.7 130.545 102.885C130.483 103.071 130.36 103.195 130.112 103.318C129.865 103.442 129.679 103.38 129.493 103.318C129.308 103.256 129.122 103.071 129.06 102.885C128.998 102.7 128.998 102.452 129.122 102.328C129.184 102.019 129.308 101.895 129.493 101.833Z" fill="#F3F3F3"/>
<path d="M122.996 110.806C122.687 110.991 122.253 111.053 121.82 110.991C121.387 110.929 120.954 110.744 120.583 110.496L117.798 108.578L118.417 107.588L121.078 109.382C121.511 109.692 121.882 109.816 122.315 109.754C122.749 109.692 122.996 109.444 123.244 109.073C123.491 108.702 123.615 108.331 123.491 107.959C123.367 107.588 123.182 107.279 122.749 106.969L120.088 105.175L120.707 104.185L125.471 107.464L124.852 108.454L124.357 108.083C124.419 108.392 124.481 108.702 124.419 109.011C124.357 109.321 124.234 109.692 124.048 109.878C123.615 110.311 123.305 110.62 122.996 110.806Z" fill="#F3F3F3"/>
<path d="M111.487 118.479L114.704 115.509C114.395 115.199 113.962 115.013 113.59 115.013C113.219 115.013 112.786 115.199 112.477 115.509C112.043 115.942 111.858 116.499 112.043 117.055L111.053 117.922C110.806 117.427 110.744 116.87 110.93 116.313C110.992 115.756 111.363 115.261 111.858 114.766C112.229 114.395 112.724 114.147 113.219 114.023C113.714 113.9 114.209 113.9 114.704 114.147C115.199 114.271 115.632 114.58 116.004 115.075C116.437 115.509 116.684 116.004 116.808 116.499C116.932 116.994 116.932 117.489 116.746 117.922C116.622 118.417 116.313 118.85 115.88 119.159C115.509 119.531 115.014 119.778 114.58 119.84C114.085 119.964 113.652 119.902 113.157 119.778C112.724 119.593 112.229 119.345 111.92 118.912C111.734 118.85 111.548 118.664 111.487 118.479ZM113.034 118.417C113.343 118.726 113.652 118.912 114.085 118.85C114.457 118.85 114.89 118.664 115.199 118.355C115.509 118.046 115.694 117.736 115.694 117.365C115.694 116.994 115.632 116.56 115.385 116.189L113.034 118.417Z" fill="#F3F3F3"/>
<path d="M107.65 123.8C107.65 124.295 107.526 124.79 107.341 125.223C107.093 125.595 106.722 125.966 106.351 126.214C106.041 126.399 105.67 126.523 105.237 126.585C104.804 126.647 104.494 126.585 104.123 126.461L105.546 128.874L104.494 129.431L100.596 122.686L101.648 122.13L102.081 122.934C102.143 122.625 102.267 122.253 102.452 121.944C102.638 121.635 102.947 121.325 103.38 121.139C103.875 120.892 104.247 120.768 104.742 120.768C105.237 120.768 105.67 120.954 106.165 121.201C106.598 121.511 106.969 121.882 107.217 122.377C107.464 122.872 107.65 123.305 107.65 123.8ZM103.814 125.409C104.123 125.595 104.432 125.657 104.68 125.657C104.927 125.657 105.237 125.595 105.546 125.409C105.794 125.285 106.041 125.038 106.165 124.79C106.289 124.543 106.351 124.233 106.412 123.924C106.412 123.553 106.351 123.243 106.103 122.872C105.917 122.563 105.67 122.315 105.36 122.13C105.051 121.944 104.742 121.882 104.432 121.82C104.123 121.758 103.875 121.882 103.566 122.068C103.318 122.191 103.071 122.439 102.947 122.686C102.823 122.934 102.762 123.243 102.762 123.615C102.762 123.986 102.823 124.295 103.071 124.667C103.257 124.976 103.504 125.224 103.814 125.409Z" fill="#F3F3F3"/>
<path d="M89.5814 126.894C90.0764 127.018 90.5096 127.327 90.8189 127.761C91.1283 128.194 91.3759 128.689 91.4377 129.246C91.5615 129.864 91.5615 130.359 91.314 130.855C91.1902 131.35 90.8808 131.783 90.4477 132.092C90.0145 132.401 89.5814 132.587 89.0245 132.773C88.4676 132.835 87.9725 132.835 87.4775 132.711C86.9825 132.587 86.5493 132.278 86.2399 131.845C85.8686 131.473 85.683 130.916 85.5592 130.421C85.4355 129.803 85.4355 129.308 85.683 128.812C85.8068 128.317 86.1162 127.884 86.5493 127.575C86.9825 127.266 87.4775 127.018 87.9725 126.894C88.5913 126.647 89.0863 126.647 89.5814 126.894ZM87.4156 128.194C87.23 128.379 86.9825 128.627 86.9206 128.936C86.8587 129.246 86.7968 129.679 86.8587 129.988C86.9206 130.421 87.1062 130.731 87.2918 131.04C87.4775 131.35 87.725 131.473 88.0344 131.535C88.3438 131.597 88.6532 131.659 88.9626 131.597C89.272 131.535 89.5195 131.411 89.767 131.164C89.9526 130.978 90.2002 130.731 90.262 130.421C90.3239 130.112 90.3239 129.741 90.262 129.308C90.1383 128.689 89.9526 128.256 89.5195 127.946C89.0863 127.637 88.7151 127.637 88.22 127.637C87.9106 127.822 87.6631 127.946 87.4156 128.194Z" fill="#F3F3F3"/>
<path d="M75.1636 133.144C74.8542 132.958 74.5448 132.649 74.3592 132.216C74.1735 131.783 74.1117 131.35 74.1117 130.855L74.2973 127.451L75.473 127.513L75.3492 130.731C75.3492 131.226 75.4111 131.659 75.6586 131.906C75.9062 132.154 76.2155 132.34 76.7106 132.34C77.1437 132.401 77.515 132.278 77.8244 131.968C78.0719 131.721 78.2575 131.288 78.2575 130.793L78.3813 127.575L79.557 127.637L79.3095 133.453L78.1338 133.392L78.1957 132.711C77.9482 132.958 77.7625 133.144 77.4531 133.206C77.1437 133.268 76.7725 133.392 76.4631 133.33C75.9062 133.515 75.5349 133.392 75.1636 133.144Z" fill="#F3F3F3"/>
<path d="M62.5404 129.679C62.1691 130.05 61.736 130.236 61.2409 130.359C60.7459 130.483 60.2509 130.359 59.694 130.174C59.0752 129.926 58.5801 129.555 58.2707 129.122C57.9613 128.689 57.8376 128.07 57.8995 127.513L59.0752 127.946C59.0752 128.194 59.137 128.503 59.2608 128.751C59.3846 128.998 59.694 129.184 60.0033 129.246C60.4365 129.431 60.8696 129.369 61.3028 129.184C61.6741 128.936 62.0454 128.565 62.231 128.008C62.4166 127.451 62.4785 126.894 62.3547 126.523C62.1691 126.09 61.8597 125.78 61.4266 125.595C60.8078 125.347 60.189 125.471 59.8177 125.966L58.642 125.533C59.0133 125.038 59.4464 124.728 60.0033 124.543C60.5603 124.357 61.1172 124.419 61.7978 124.605C62.3547 124.79 62.726 125.038 63.0354 125.471C63.3448 125.904 63.5304 126.337 63.5923 126.77C63.6542 127.204 63.5923 127.761 63.3448 128.379C63.221 128.874 62.9735 129.369 62.5404 129.679Z" fill="#F3F3F3"/>
<path d="M52.2065 127.637C52.2684 127.822 52.2065 128.008 52.1446 128.194C52.0827 128.379 51.8352 128.503 51.6496 128.565C51.464 128.627 51.2783 128.565 51.0927 128.503C50.907 128.441 50.7833 128.194 50.7214 128.008C50.6595 127.822 50.7214 127.637 50.7833 127.451C50.8452 127.266 51.0927 127.142 51.2783 127.08C51.464 127.018 51.6496 127.08 51.8352 127.142C52.0209 127.327 52.1446 127.451 52.2065 127.637ZM51.6496 126.214L54.5579 121.201L55.6098 121.758L52.7634 126.832L51.6496 126.214Z" fill="#F3F3F3"/>
<path d="M46.3899 122.563C46.0806 122.501 45.7093 122.377 45.3999 122.191L46.2043 121.14L46.4518 121.263C46.8231 121.511 47.1944 121.635 47.5038 121.573C47.8132 121.511 48.1844 121.263 48.5557 120.768L50.3502 118.355L51.2784 119.159L47.875 123.8L46.885 123.058L47.38 122.439C47.1325 122.563 46.7612 122.563 46.3899 122.563Z" fill="#F3F3F3"/>
<path d="M42.306 117.612C41.8109 117.736 41.3159 117.736 40.8209 117.612C40.3258 117.489 39.8927 117.179 39.5214 116.808C39.0264 116.313 38.717 115.756 38.6551 115.199C38.5932 114.642 38.6551 114.085 39.0264 113.59L39.9546 114.518C39.8308 114.766 39.7689 115.075 39.8308 115.385C39.8927 115.694 40.0164 115.942 40.264 116.189C40.6352 116.56 41.0065 116.684 41.4397 116.622C41.8728 116.56 42.306 116.375 42.801 115.88C43.296 115.385 43.5435 115.013 43.5435 114.518C43.6054 114.085 43.4198 113.652 43.1104 113.343C42.6154 112.848 42.1203 112.724 41.5015 112.971L40.5733 112.043C41.1303 111.734 41.6872 111.672 42.2441 111.734C42.801 111.796 43.3579 112.105 43.8529 112.6C44.2242 112.971 44.4717 113.467 44.5955 113.962C44.7192 114.457 44.7192 114.952 44.5336 115.385C44.4098 115.88 44.1004 116.313 43.6673 116.746C43.2341 117.179 42.801 117.489 42.306 117.612Z" fill="#F3F3F3"/>
<path d="M30.9821 104.927L35.9324 101.957L36.5512 102.947L35.9324 103.318C36.2418 103.38 36.5512 103.442 36.7988 103.69C37.1081 103.875 37.3557 104.123 37.4794 104.37C37.7269 104.742 37.8507 105.113 37.9126 105.546C37.9126 105.917 37.8507 106.35 37.6032 106.722C37.3557 107.093 37.0463 107.402 36.6131 107.712L33.7048 109.506L33.086 108.516L35.8706 106.845C36.3037 106.536 36.6131 106.227 36.675 105.917C36.7988 105.546 36.675 105.175 36.4894 104.742C36.2418 104.37 35.9943 104.123 35.5612 104.061C35.1899 103.937 34.8186 104.061 34.3236 104.308L31.6009 106.041L30.9821 104.927Z" fill="#F3F3F3"/>
<path d="M27.6406 100.101C27.5787 100.286 27.455 100.41 27.2074 100.534C27.0218 100.596 26.7743 100.596 26.5887 100.534C26.403 100.472 26.2793 100.348 26.1555 100.101C26.0936 99.915 26.0936 99.6675 26.1555 99.4819C26.2174 99.2962 26.3411 99.1725 26.5887 99.0487C26.8362 98.925 27.0218 98.9868 27.2074 99.0487C27.3931 99.1106 27.5168 99.2344 27.6406 99.4819C27.7025 99.6675 27.7025 99.915 27.6406 100.101ZM28.1356 98.6156L33.5191 96.4498L34.0141 97.5636L28.6307 99.7294L28.1356 98.6156Z" fill="#F3F3F3"/>
<path d="M27.3312 92.8608L30.4252 91.9945C30.6108 91.9327 30.7964 91.8708 30.7964 91.747C30.9202 91.6233 30.8583 91.4376 30.7964 91.252L30.6108 90.5713L31.6009 90.3238L31.8484 91.1901C31.9721 91.6851 31.9721 92.1802 31.7865 92.4896C31.6009 92.799 31.2296 93.0465 30.6727 93.2321L27.5787 94.0984L27.7644 94.7791L26.7743 95.0266L26.5887 94.3459L25.2273 94.7172L24.918 93.5415L26.2793 93.1702L25.908 91.8089L26.8981 91.5614L27.3312 92.8608Z" fill="#F3F3F3"/>
<path d="M30.7964 87.168C30.6727 87.2918 30.487 87.4774 30.2395 87.4774C29.992 87.4774 29.8683 87.4774 29.6207 87.3537C29.497 87.2299 29.3113 87.0443 29.3113 86.7967C29.2495 86.6111 29.3113 86.4255 29.497 86.2398C29.6826 86.0542 29.8064 85.9304 30.0539 85.9304C30.2395 85.8686 30.4252 85.9304 30.6727 86.0542C30.7964 86.178 30.9202 86.3017 30.9202 86.5492C30.9202 86.7967 30.9821 86.9824 30.7964 87.168Z" fill="#F3F3F3"/>
</g>
</g>
<defs>
<filter id="filter0_g_299_2515" x="0.96582" y="0.965759" width="156.068" height="156.068" filterUnits="userSpaceOnUse" color-interpolation-filters="sRGB">
<feFlood flood-opacity="0" result="BackgroundImageFix"/>
<feBlend mode="normal" in="SourceGraphic" in2="BackgroundImageFix" result="shape"/>
<feTurbulence type="fractalNoise" baseFrequency="2 2" numOctaves="3" seed="9034" />
<feDisplacementMap in="shape" scale="1" xChannelSelector="R" yChannelSelector="G" result="displacedImage" width="100%" height="100%" />
<feMerge result="effect1_texture_299_2515">
<feMergeNode in="displacedImage"/>
</feMerge>
</filter>
<clipPath id="clip0_299_2515">
<rect width="110" height="109.3" fill="white" transform="translate(1.46582 79.2475) rotate(-45)"/>
</clipPath>
</defs>
</svg>
