<svg width="140" height="139" viewBox="0 0 140 139" fill="none" xmlns="http://www.w3.org/2000/svg">
<g filter="url(#filter0_g_467_243)">
<g clip-path="url(#clip0_467_243)">
<rect x="1" y="1" width="138" height="137" rx="68.5" fill="#211F20"/>
<g clip-path="url(#clip1_467_243)">
<path d="M15.9798 63.5596C15.4848 63.1883 15.1135 62.5695 14.9279 62.0126C14.6804 61.3938 14.6804 60.775 14.7423 60.0944C14.866 59.3518 15.1754 58.6711 15.6704 58.1761C16.1655 57.6811 16.7843 57.3098 17.4649 57.1242L17.2793 58.5474C16.908 58.6711 16.5367 58.9187 16.2892 59.1662C16.0417 59.4137 15.8561 59.8468 15.7942 60.28C15.6704 60.775 15.7323 61.2082 15.918 61.6413C16.1036 62.0745 16.2892 62.3839 16.7224 62.6933C17.1555 63.0027 17.5268 63.1264 18.0218 63.2502C18.5787 63.3121 19.0738 63.3121 19.4451 63.1883C19.8163 63.0645 20.2495 62.7552 20.497 62.5076C20.7445 62.2601 20.992 61.7651 21.0539 61.3319C21.1158 60.8988 21.1158 60.5275 20.992 60.1562C20.8683 59.785 20.6208 59.5375 20.3114 59.2281L20.497 57.8048C21.1158 58.1761 21.6108 58.6711 21.8583 59.4137C22.1677 60.0944 22.2296 60.775 22.044 61.5795C21.9821 62.2601 21.6727 62.817 21.2395 63.3739C20.8064 63.9309 20.3114 64.3021 19.7544 64.4878C19.1975 64.6734 18.455 64.7972 17.7743 64.6115C17.0937 64.4259 16.413 63.9927 15.9798 63.5596Z" fill="#F3F3F4"/>
<path d="M24.6429 50.9363C24.2097 51.2457 23.7766 51.4313 23.2815 51.4313C22.7246 51.4932 22.2296 51.3694 21.7346 51.1219C21.2395 50.8744 20.8064 50.565 20.497 50.1318C20.1876 49.6987 20.0019 49.2655 19.9401 48.7086C19.9401 48.2136 20.0019 47.6567 20.2495 47.1617C20.4351 46.7285 20.7445 46.2953 21.1158 46.0478C21.5489 45.7384 21.9821 45.5528 22.539 45.4909C23.0959 45.429 23.5909 45.5528 24.1478 45.7384C24.6429 45.986 25.076 46.2953 25.3854 46.7285C25.6948 47.1617 25.8804 47.5948 25.9423 48.1517C26.0042 48.7086 25.8804 49.2037 25.6329 49.6987C25.3854 50.1937 25.076 50.6269 24.6429 50.9363ZM24.8285 48.3992C24.7666 48.0898 24.7047 47.7804 24.4572 47.5329C24.2716 47.2235 23.9622 47.0379 23.5909 46.9141C23.2196 46.7904 22.8484 46.6666 22.539 46.7285C22.2296 46.7904 21.9202 46.8523 21.6727 47.0998C21.487 47.2854 21.2395 47.5329 21.1158 47.7804C20.992 48.028 20.9301 48.3374 20.992 48.6467C21.0539 48.9561 21.1158 49.2655 21.3633 49.5131C21.6108 49.7606 21.8583 50.0081 22.2296 50.1318C22.8484 50.3794 23.2815 50.4412 23.7147 50.2556C24.1478 50.07 24.5191 49.8224 24.7047 49.3893C24.8285 49.018 24.8904 48.7086 24.8285 48.3992Z" fill="#F3F3F4"/>
<path d="M27.7987 35.4047C28.1699 35.2809 28.5412 35.1572 28.9744 35.219C29.4075 35.2809 29.8407 35.4666 30.2119 35.8378L32.9346 37.9417L32.2539 38.8699L29.655 36.8898C29.2219 36.5804 28.8506 36.4566 28.4793 36.4566C28.1081 36.4566 27.7368 36.7041 27.4893 37.0754C27.2418 37.4467 27.118 37.818 27.1799 38.1273C27.2418 38.5605 27.4893 38.808 27.8605 39.1793L30.4595 41.1594L29.7169 42.1495L25.076 38.6224L25.8185 37.6323L26.3754 38.0655C26.3136 37.7561 26.3136 37.5086 26.4373 37.1373C26.5611 36.766 26.6848 36.5185 26.8705 36.2091C27.118 35.8378 27.3655 35.5903 27.7987 35.4047Z" fill="#F3F3F4"/>
<path d="M36.7093 26.6179C37.1425 26.556 37.5137 26.556 37.885 26.6798C38.2563 26.8035 38.6894 27.1129 38.9988 27.5461L41.1646 30.2069L40.2983 30.9494L38.2563 28.4124C37.9469 27.9792 37.5756 27.7317 37.2043 27.7317C36.8331 27.7317 36.4618 27.8555 36.0905 28.103C35.7811 28.4124 35.5955 28.7218 35.5336 29.1549C35.4717 29.5881 35.5955 29.9593 35.9049 30.3925L38.0088 32.8677L37.0806 33.6721L33.3679 29.2168L34.296 28.4124L34.7292 28.9693C34.7292 28.7218 34.853 28.3505 34.9767 28.103C35.1623 27.7936 35.2861 27.5461 35.5955 27.3604C35.9049 26.9273 36.338 26.7416 36.7093 26.6179Z" fill="#F3F3F4"/>
<path d="M49.8277 22.5339L45.8674 24.514C46.1149 24.8853 46.4243 25.1947 46.8575 25.2566C47.2287 25.3803 47.6619 25.3185 48.095 25.1328C48.652 24.8234 48.9614 24.3903 48.9614 23.7715L50.137 23.2146C50.1989 23.7715 50.137 24.3284 49.8895 24.8234C49.642 25.3185 49.2089 25.7516 48.5901 25.9991C48.095 26.2467 47.6 26.3704 47.105 26.3704C46.61 26.3704 45.9293 26.1848 45.4961 25.8754C45.063 25.566 44.7536 25.1328 44.5061 24.6378C44.2586 24.1428 44.0729 23.5859 44.1348 23.029C44.1348 22.5339 44.2586 22.0389 44.5679 21.6057C44.8773 21.1726 45.2486 20.8013 45.8055 20.6157C46.3006 20.3682 46.7956 20.2444 47.2906 20.2444C47.7857 20.2444 48.2188 20.43 48.652 20.7394C49.0851 21.0488 49.3326 21.4201 49.5801 21.9151C49.642 22.2245 49.7039 22.4102 49.8277 22.5339ZM48.2807 22.2245C48.095 21.7914 47.7857 21.6057 47.4144 21.482C47.0431 21.3582 46.61 21.4201 46.1768 21.6057C45.8055 21.7295 45.558 22.1008 45.3724 22.4102C45.2486 22.7814 45.2486 23.1527 45.3724 23.6477L48.2807 22.2245Z" fill="#F3F3F4"/>
<path d="M54.9016 18.5737C55.0254 18.0787 55.2729 17.7074 55.6442 17.3361C56.0154 16.9649 56.4486 16.7792 57.0055 16.5936C57.6862 16.408 58.3049 16.4079 58.8 16.6555C59.3569 16.8411 59.7282 17.2124 60.0376 17.7693L58.7381 18.0787C58.6143 17.8312 58.3049 17.6455 58.0574 17.5218C57.8099 17.398 57.5005 17.4599 57.1292 17.4599C56.758 17.7074 56.3867 17.9549 56.2011 18.3881C56.0154 18.8212 56.0154 19.3163 56.1392 19.935C56.2629 20.5538 56.5723 20.987 56.9436 21.2345C57.3149 21.482 57.748 21.5439 58.1812 21.482C58.8619 21.2964 59.2331 20.9251 59.295 20.2444L60.5945 19.935C60.5945 20.5538 60.3469 21.0489 59.9757 21.5439C59.6044 22.0389 59.1094 22.2864 58.4287 22.4721C57.9337 22.5958 57.4386 22.5958 56.9436 22.4721C56.4486 22.3483 56.0773 22.1008 55.706 21.7295C55.3348 21.3583 55.0872 20.8632 55.0254 20.3063C54.9635 19.7494 54.7779 19.0687 54.9016 18.5737Z" fill="#F3F3F4"/>
<path d="M66.5349 16.2223L66.7824 19.44C66.7824 19.6875 66.9061 19.8112 66.968 19.8731C67.0299 19.935 67.2155 19.9969 67.463 19.9969L68.2056 19.9969L68.2675 21.0488L67.3393 21.1107C66.7824 21.1726 66.4111 21.0488 66.0398 20.8013C65.6686 20.5538 65.5448 20.1825 65.5448 19.5637L65.2973 16.346L64.6166 16.4079L64.5547 15.4797L65.2354 15.4178L65.1735 13.9946L66.3492 13.9327L66.4111 15.356L67.8343 15.2941L67.8962 16.2223L66.5349 16.2223Z" fill="#F3F3F4"/>
<path d="M72.9703 15.2322L72.7228 21.0488L71.5471 20.9869L71.7946 15.1703L72.9703 15.2322ZM71.9184 14.1802C71.7946 14.0565 71.7327 13.8708 71.7327 13.6233C71.7327 13.3758 71.8565 13.252 71.9802 13.1283C72.104 13.0045 72.2896 12.9427 72.5371 12.9427C72.7847 12.9427 72.9084 13.0664 73.0322 13.1902C73.1559 13.3139 73.2178 13.4996 73.2178 13.7471C73.2178 13.9946 73.0941 14.1183 72.9703 14.2421C72.8465 14.3659 72.6609 14.4277 72.4134 14.4277C72.2896 14.4277 72.104 14.3659 71.9184 14.1802Z" fill="#F3F3F4"/>
<path d="M78.4775 21.3582C78.1062 20.9869 77.8587 20.6156 77.6731 20.0587C77.5493 19.5637 77.4875 19.0068 77.6731 18.4499C77.7969 17.8311 77.9825 17.3979 78.3538 17.0267C78.725 16.6554 79.1582 16.346 79.6532 16.2222C80.1482 16.0985 80.6433 16.0985 81.2002 16.1604C81.6952 16.2841 82.1903 16.5316 82.6234 16.841C82.9947 17.2123 83.2422 17.5836 83.4897 18.0786C83.6135 18.5736 83.6753 19.1306 83.5516 19.7493C83.4278 20.3681 83.2422 20.8013 82.8709 21.1726C82.4996 21.5438 82.0665 21.8532 81.5715 21.977C81.0764 22.1007 80.5195 22.1626 80.0245 22.0389C79.2819 21.9151 78.8488 21.7295 78.4775 21.3582ZM80.9527 20.9869C81.2621 20.925 81.5096 20.6775 81.6952 20.4919C81.9427 20.2444 82.0665 19.8731 82.1903 19.5018C82.2521 19.0687 82.2521 18.6974 82.1903 18.388C82.1284 18.0786 81.9427 17.7692 81.6952 17.6455C81.5096 17.4598 81.2002 17.2742 80.8908 17.2123C80.5814 17.1504 80.3339 17.1504 80.0245 17.2123C79.7151 17.2742 79.5295 17.4598 79.2819 17.7073C79.0344 17.9549 78.9107 18.3261 78.7869 18.6974C78.6632 19.3162 78.6632 19.8112 78.9726 20.2444C79.2201 20.6156 79.5913 20.8632 80.0864 20.9869C80.3339 21.1107 80.6433 21.0488 80.9527 20.9869Z" fill="#F3F3F4"/>
<path d="M94.2567 21.0488C94.5042 21.4201 94.628 21.7913 94.628 22.1626C94.628 22.5339 94.5042 23.0289 94.3805 23.524L92.8954 26.6179L91.7816 26.1229L93.1429 23.1527C93.3904 22.6576 93.3904 22.2864 93.2666 21.9151C93.1429 21.5438 92.8954 21.2963 92.4622 21.1107C92.0291 20.925 91.6578 20.925 91.2865 21.0488C90.9152 21.1726 90.6059 21.4819 90.4202 21.9151L89.0589 24.8853L87.9451 24.3903L90.3583 19.1306L91.4722 19.6256L91.2246 20.2444C91.4722 20.1206 91.7816 20.0587 92.1528 20.0587C92.5241 20.0587 92.8335 20.1206 93.1429 20.3062C93.6998 20.4919 94.0711 20.7394 94.2567 21.0488Z" fill="#F3F3F4"/>
<path d="M106.014 29.0931C106.323 29.155 106.632 29.3406 107.004 29.5881L106.199 30.5163L106.014 30.3307C105.704 30.0213 105.333 29.8975 104.962 29.8975C104.59 29.8975 104.219 30.1451 103.91 30.5782L101.868 32.8677L100.94 32.0633L104.714 27.6699L105.642 28.4743L105.085 29.155C105.395 28.9694 105.704 29.0312 106.014 29.0931Z" fill="#F3F3F4"/>
<path d="M111.459 39.7362L108.674 36.3329C108.365 36.6423 108.118 37.0136 108.118 37.3848C108.056 37.818 108.179 38.1893 108.489 38.4987C108.86 38.9937 109.417 39.1793 109.974 38.9937L110.778 40.0456C110.221 40.2313 109.726 40.2313 109.169 40.1694C108.613 39.9838 108.118 39.7362 107.684 39.1793C107.375 38.7462 107.127 38.2511 107.066 37.818C106.942 37.323 107.066 36.8279 107.251 36.3948C107.437 35.9616 107.808 35.4666 108.241 35.1572C108.736 34.7859 109.231 34.5384 109.664 34.4765C110.16 34.3528 110.655 34.4765 111.15 34.6003C111.583 34.7859 112.016 35.0953 112.387 35.5904C112.697 36.0235 112.944 36.5185 113.006 36.9517C113.13 37.4467 113.068 37.8799 112.82 38.3749C112.635 38.8081 112.325 39.2412 111.892 39.5506C111.768 39.5506 111.645 39.6744 111.459 39.7362ZM111.521 38.1893C111.83 37.8799 112.016 37.5705 112.078 37.1373C112.078 36.7661 111.954 36.3948 111.645 35.9616C111.397 35.5904 111.026 35.4666 110.655 35.3428C110.221 35.281 109.912 35.3428 109.541 35.5904L111.521 38.1893Z" fill="#F3F3F4"/>
<path d="M117.523 43.0778L112.511 45.9861L111.954 44.9341L116.966 42.0258L117.523 43.0778ZM117.771 41.5927C117.833 41.407 117.956 41.2833 118.142 41.0976C118.328 41.0358 118.513 40.9739 118.699 41.0358C118.884 41.0976 119.008 41.2214 119.194 41.407C119.256 41.5927 119.318 41.7783 119.256 41.9639C119.194 42.1496 119.07 42.2733 118.884 42.459C118.699 42.6446 118.513 42.5827 118.328 42.5208C118.142 42.459 118.018 42.3352 117.833 42.1496C117.771 41.9639 117.709 41.7783 117.771 41.5927Z" fill="#F3F3F4"/>
<path d="M122.968 57.6811C122.907 58.1142 122.721 58.4236 122.412 58.733C122.102 59.0424 121.731 59.2899 121.236 59.4137L117.956 60.3418L117.647 59.1661L120.741 58.2998C121.236 58.1761 121.607 57.9286 121.793 57.6192C121.978 57.3098 122.04 56.8766 121.917 56.5054C121.793 56.1341 121.545 55.7628 121.236 55.5772C120.926 55.3915 120.431 55.3915 119.998 55.5772L116.904 56.4435L116.595 55.2678L119.689 54.4015C120.184 54.2777 120.555 54.0302 120.741 53.7208C120.926 53.4114 120.988 52.9783 120.865 52.607C120.741 52.2357 120.493 51.8644 120.184 51.6788C119.875 51.4932 119.38 51.4932 118.946 51.6788L115.852 52.5451L115.543 51.3694L121.112 49.7606L121.422 50.9363L120.741 51.1219C120.988 51.2457 121.298 51.4313 121.483 51.7407C121.731 51.9882 121.855 52.2357 121.978 52.607C122.102 53.102 122.102 53.4733 122.04 53.9064C121.978 54.3396 121.793 54.649 121.483 54.9584C121.917 55.0203 122.226 55.2059 122.535 55.5153C122.845 55.8247 123.03 56.1341 123.216 56.5672C123.03 56.8766 123.092 57.3098 122.968 57.6811Z" fill="#F3F3F4"/>
<path d="M123.03 67.8911C123.525 68.1386 123.835 68.448 124.02 68.8811C124.268 69.2524 124.392 69.7474 124.392 70.2425C124.392 70.7375 124.268 71.1088 124.082 71.4182C123.897 71.7276 123.711 72.037 123.402 72.2226H124.268V73.4602L118.451 73.3364V72.0988L119.318 72.0988C119.07 71.8513 118.823 71.6038 118.637 71.2944C118.451 70.985 118.389 70.5519 118.389 70.0568C118.389 69.5618 118.575 69.1286 118.761 68.6955C119.008 68.3242 119.379 67.953 119.874 67.7054C120.37 67.4579 120.865 67.3342 121.421 67.396C122.102 67.4579 122.659 67.6436 123.03 67.8911ZM122.473 72.037C122.783 71.8513 122.968 71.6657 123.154 71.3563C123.278 71.1088 123.402 70.8613 123.402 70.49C123.463 70.1806 123.34 69.9331 123.154 69.6237C123.03 69.3762 122.783 69.1287 122.473 68.943C122.164 68.7574 121.855 68.6955 121.483 68.6955C121.112 68.6955 120.679 68.7574 120.431 68.8811C120.122 69.0668 119.936 69.2524 119.689 69.4999C119.441 69.7474 119.441 69.995 119.441 70.3662C119.379 70.6756 119.503 70.9231 119.689 71.2325C119.813 71.48 120.06 71.7276 120.37 71.9132C120.679 72.0988 120.988 72.1607 121.421 72.2226C121.855 72.2845 122.164 72.0988 122.473 72.037Z" fill="#F3F3F4"/>
<path d="M122.102 84.4129C121.855 84.6604 121.607 84.9079 121.236 85.0317L122.04 85.2173L121.731 86.393L116.038 84.9079C115.543 84.7842 115.048 84.5366 114.739 84.2272C114.429 83.9179 114.182 83.5466 114.058 83.0515C113.934 82.5565 113.934 82.0615 114.12 81.5046C114.367 80.762 114.677 80.2051 115.11 79.772C115.543 79.3388 116.162 79.2151 116.781 79.3388L116.471 80.5145C116.162 80.5764 115.852 80.6383 115.605 80.8858C115.357 81.1333 115.172 81.4427 115.048 81.814C114.924 82.309 114.924 82.6803 115.172 83.0515C115.419 83.4228 115.79 83.6703 116.286 83.7941L117.276 84.0416C117.028 83.7941 116.904 83.4228 116.781 83.0515C116.657 82.6803 116.719 82.2471 116.781 81.814C116.904 81.3189 117.152 80.9477 117.523 80.5764C117.894 80.2051 118.328 80.0195 118.823 79.8957C119.318 79.772 119.874 79.8338 120.37 79.9576C120.926 80.1432 121.421 80.3908 121.731 80.7002C122.102 81.0714 122.35 81.4427 122.473 81.9377C122.597 82.4328 122.597 82.9278 122.473 83.4228C122.597 83.7941 122.412 84.1035 122.102 84.4129ZM120.37 84.5366C120.679 84.4748 120.988 84.2891 121.174 84.1035C121.421 83.856 121.545 83.6085 121.607 83.2991C121.669 82.9897 121.669 82.7422 121.607 82.4328C121.545 82.1234 121.421 81.8758 121.174 81.6283C120.926 81.3808 120.617 81.1952 120.246 81.0714C119.874 80.9477 119.503 80.9477 119.194 81.0095C118.884 81.0714 118.575 81.2571 118.389 81.4427C118.204 81.6283 118.018 81.9377 117.956 82.2471C117.894 82.5565 117.894 82.804 117.956 83.1134C118.018 83.4228 118.204 83.7322 118.389 83.9178C118.637 84.1654 118.946 84.351 119.379 84.4129C119.689 84.5985 120.06 84.5985 120.37 84.5366Z" fill="#F3F3F4"/>
<path d="M119.132 92.952L113.872 90.5388L114.367 89.4249L119.627 91.8382L119.132 92.952ZM120.493 92.3333C120.679 92.2714 120.926 92.2714 121.112 92.3333C121.298 92.3951 121.483 92.5808 121.545 92.7664C121.607 92.952 121.607 93.1996 121.545 93.3852C121.483 93.5708 121.36 93.6946 121.112 93.8183C120.865 93.9421 120.679 93.8802 120.493 93.8183C120.308 93.7565 120.122 93.5708 120.06 93.3852C119.998 93.1996 119.998 92.952 120.122 92.8283C120.184 92.5189 120.308 92.3951 120.493 92.3333Z" fill="#F3F3F4"/>
<path d="M113.996 101.306C113.687 101.491 113.253 101.553 112.82 101.491C112.387 101.43 111.954 101.244 111.583 100.996L108.798 99.0781L109.417 98.0881L112.078 99.8825C112.511 100.192 112.882 100.316 113.315 100.254C113.749 100.192 113.996 99.9444 114.244 99.5731C114.491 99.2019 114.615 98.8306 114.491 98.4593C114.367 98.0881 114.182 97.7787 113.749 97.4693L111.088 95.6748L111.707 94.6847L116.471 97.9643L115.852 98.9544L115.357 98.5831C115.419 98.8925 115.481 99.2019 115.419 99.5113C115.357 99.8207 115.234 100.192 115.048 100.378C114.615 100.811 114.305 101.12 113.996 101.306Z" fill="#F3F3F4"/>
<path d="M102.486 108.979L105.704 106.009C105.395 105.699 104.962 105.514 104.59 105.514C104.219 105.514 103.786 105.699 103.476 106.009C103.043 106.442 102.858 106.999 103.043 107.556L102.053 108.422C101.806 107.927 101.744 107.37 101.93 106.813C101.991 106.256 102.363 105.761 102.858 105.266C103.229 104.895 103.724 104.647 104.219 104.523C104.714 104.4 105.209 104.4 105.704 104.647C106.199 104.771 106.632 105.08 107.004 105.575C107.437 106.009 107.684 106.504 107.808 106.999C107.932 107.494 107.932 107.989 107.746 108.422C107.622 108.917 107.313 109.35 106.88 109.659C106.509 110.031 106.014 110.278 105.58 110.34C105.085 110.464 104.652 110.402 104.157 110.278C103.724 110.093 103.229 109.845 102.92 109.412C102.734 109.35 102.548 109.164 102.486 108.979ZM104.033 108.917C104.343 109.226 104.652 109.412 105.085 109.35C105.457 109.35 105.89 109.164 106.199 108.855C106.509 108.546 106.694 108.236 106.694 107.865C106.694 107.494 106.632 107.061 106.385 106.689L104.033 108.917Z" fill="#F3F3F4"/>
<path d="M98.65 114.3C98.65 114.795 98.5263 115.29 98.3406 115.723C98.0931 116.095 97.7218 116.466 97.3506 116.714C97.0412 116.899 96.6699 117.023 96.2367 117.085C95.8036 117.147 95.4942 117.085 95.1229 116.961L96.5461 119.374L95.4942 119.931L91.5958 113.186L92.6478 112.63L93.0809 113.434C93.1428 113.125 93.2666 112.753 93.4522 112.444C93.6378 112.135 93.9472 111.825 94.3804 111.639C94.8754 111.392 95.2467 111.268 95.7417 111.268C96.2367 111.268 96.6699 111.454 97.1649 111.701C97.5981 112.011 97.9693 112.382 98.2169 112.877C98.4644 113.372 98.65 113.805 98.65 114.3ZM94.8135 115.909C95.1229 116.095 95.4323 116.157 95.6798 116.157C95.9273 116.157 96.2367 116.095 96.5461 115.909C96.7936 115.785 97.0412 115.538 97.1649 115.29C97.2887 115.043 97.3506 114.733 97.4124 114.424C97.4124 114.053 97.3506 113.743 97.103 113.372C96.9174 113.063 96.6699 112.815 96.3605 112.63C96.0511 112.444 95.7417 112.382 95.4323 112.32C95.1229 112.258 94.8754 112.382 94.566 112.568C94.3185 112.691 94.071 112.939 93.9472 113.186C93.8235 113.434 93.7616 113.743 93.7616 114.115C93.7616 114.486 93.8235 114.795 94.071 115.167C94.2566 115.476 94.5041 115.724 94.8135 115.909Z" fill="#F3F3F4"/>
<path d="M80.5814 117.394C81.0764 117.518 81.5096 117.827 81.8189 118.261C82.1283 118.694 82.3759 119.189 82.4377 119.746C82.5615 120.364 82.5615 120.859 82.314 121.355C82.1902 121.85 81.8808 122.283 81.4477 122.592C81.0145 122.901 80.5814 123.087 80.0245 123.273C79.4676 123.335 78.9725 123.335 78.4775 123.211C77.9825 123.087 77.5493 122.778 77.2399 122.345C76.8686 121.973 76.683 121.416 76.5592 120.921C76.4355 120.303 76.4355 119.808 76.683 119.312C76.8068 118.817 77.1162 118.384 77.5493 118.075C77.9825 117.766 78.4775 117.518 78.9725 117.394C79.5913 117.147 80.0863 117.147 80.5814 117.394ZM78.4156 118.694C78.23 118.879 77.9825 119.127 77.9206 119.436C77.8587 119.746 77.7968 120.179 77.8587 120.488C77.9206 120.921 78.1062 121.231 78.2918 121.54C78.4775 121.85 78.725 121.973 79.0344 122.035C79.3438 122.097 79.6532 122.159 79.9626 122.097C80.272 122.035 80.5195 121.911 80.767 121.664C80.9526 121.478 81.2002 121.231 81.262 120.921C81.3239 120.612 81.3239 120.241 81.262 119.808C81.1383 119.189 80.9526 118.756 80.5195 118.446C80.0863 118.137 79.7151 118.137 79.22 118.137C78.9106 118.322 78.6631 118.446 78.4156 118.694Z" fill="#F3F3F4"/>
<path d="M66.1636 123.644C65.8542 123.458 65.5448 123.149 65.3592 122.716C65.1735 122.283 65.1117 121.85 65.1117 121.355L65.2973 117.951L66.473 118.013L66.3492 121.231C66.3492 121.726 66.4111 122.159 66.6586 122.406C66.9062 122.654 67.2155 122.84 67.7106 122.84C68.1437 122.901 68.515 122.778 68.8244 122.468C69.0719 122.221 69.2575 121.788 69.2575 121.293L69.3813 118.075L70.557 118.137L70.3095 123.953L69.1338 123.892L69.1957 123.211C68.9482 123.458 68.7625 123.644 68.4531 123.706C68.1437 123.768 67.7725 123.892 67.4631 123.83C66.9062 124.015 66.5349 123.892 66.1636 123.644Z" fill="#F3F3F4"/>
<path d="M53.5404 120.179C53.1691 120.55 52.736 120.736 52.2409 120.859C51.7459 120.983 51.2509 120.859 50.694 120.674C50.0752 120.426 49.5801 120.055 49.2707 119.622C48.9613 119.189 48.8376 118.57 48.8995 118.013L50.0752 118.446C50.0752 118.694 50.137 119.003 50.2608 119.251C50.3846 119.498 50.694 119.684 51.0033 119.746C51.4365 119.931 51.8696 119.869 52.3028 119.684C52.6741 119.436 53.0454 119.065 53.231 118.508C53.4166 117.951 53.4785 117.394 53.3547 117.023C53.1691 116.59 52.8597 116.28 52.4266 116.095C51.8078 115.847 51.189 115.971 50.8177 116.466L49.642 116.033C50.0133 115.538 50.4464 115.228 51.0033 115.043C51.5603 114.857 52.1172 114.919 52.7978 115.105C53.3547 115.29 53.726 115.538 54.0354 115.971C54.3448 116.404 54.5304 116.837 54.5923 117.27C54.6542 117.704 54.5923 118.261 54.3448 118.879C54.221 119.374 53.9735 119.869 53.5404 120.179Z" fill="#F3F3F4"/>
<path d="M43.2065 118.137C43.2684 118.322 43.2065 118.508 43.1446 118.694C43.0827 118.879 42.8352 119.003 42.6496 119.065C42.464 119.127 42.2783 119.065 42.0927 119.003C41.907 118.941 41.7833 118.694 41.7214 118.508C41.6595 118.322 41.7214 118.137 41.7833 117.951C41.8452 117.766 42.0927 117.642 42.2783 117.58C42.464 117.518 42.6496 117.58 42.8352 117.642C43.0209 117.827 43.1446 117.951 43.2065 118.137ZM42.6496 116.714L45.5579 111.701L46.6098 112.258L43.7634 117.332L42.6496 116.714Z" fill="#F3F3F4"/>
<path d="M37.3899 113.063C37.0806 113.001 36.7093 112.877 36.3999 112.691L37.2043 111.64L37.4518 111.763C37.8231 112.011 38.1944 112.135 38.5038 112.073C38.8132 112.011 39.1844 111.763 39.5557 111.268L41.3502 108.855L42.2784 109.659L38.875 114.3L37.885 113.558L38.38 112.939C38.1325 113.063 37.7612 113.063 37.3899 113.063Z" fill="#F3F3F4"/>
<path d="M33.306 108.112C32.8109 108.236 32.3159 108.236 31.8209 108.112C31.3258 107.989 30.8927 107.679 30.5214 107.308C30.0264 106.813 29.717 106.256 29.6551 105.699C29.5932 105.142 29.6551 104.585 30.0264 104.09L30.9546 105.018C30.8308 105.266 30.7689 105.575 30.8308 105.885C30.8927 106.194 31.0164 106.442 31.264 106.689C31.6352 107.06 32.0065 107.184 32.4397 107.122C32.8728 107.06 33.306 106.875 33.801 106.38C34.296 105.885 34.5435 105.513 34.5435 105.018C34.6054 104.585 34.4198 104.152 34.1104 103.843C33.6154 103.348 33.1203 103.224 32.5015 103.471L31.5733 102.543C32.1303 102.234 32.6872 102.172 33.2441 102.234C33.801 102.296 34.3579 102.605 34.8529 103.1C35.2242 103.471 35.4717 103.967 35.5955 104.462C35.7192 104.957 35.7192 105.452 35.5336 105.885C35.4098 106.38 35.1004 106.813 34.6673 107.246C34.2341 107.679 33.801 107.989 33.306 108.112Z" fill="#F3F3F4"/>
<path d="M21.9821 95.4272L26.9324 92.457L27.5512 93.4471L26.9324 93.8184C27.2418 93.8803 27.5512 93.9421 27.7988 94.1896C28.1081 94.3753 28.3557 94.6228 28.4794 94.8703C28.7269 95.2416 28.8507 95.6129 28.9126 96.046C28.9126 96.4173 28.8507 96.8504 28.6032 97.2217C28.3557 97.593 28.0463 97.9024 27.6131 98.2118L24.7048 100.006L24.086 99.0162L26.8706 97.3455C27.3037 97.0361 27.6131 96.7267 27.675 96.4173C27.7988 96.046 27.675 95.6747 27.4894 95.2416C27.2418 94.8703 26.9943 94.6228 26.5612 94.5609C26.1899 94.4372 25.8186 94.5609 25.3236 94.8084L22.6009 96.541L21.9821 95.4272Z" fill="#F3F3F4"/>
<path d="M18.6406 90.6007C18.5787 90.7863 18.455 90.91 18.2074 91.0338C18.0218 91.0957 17.7743 91.0957 17.5887 91.0338C17.403 90.9719 17.2793 90.8482 17.1555 90.6007C17.0936 90.415 17.0936 90.1675 17.1555 89.9819C17.2174 89.7962 17.3411 89.6725 17.5887 89.5487C17.8362 89.425 18.0218 89.4868 18.2074 89.5487C18.3931 89.6106 18.5168 89.7344 18.6406 89.9819C18.7025 90.1675 18.7025 90.415 18.6406 90.6007ZM19.1356 89.1156L24.5191 86.9498L25.0141 88.0636L19.6307 90.2294L19.1356 89.1156Z" fill="#F3F3F4"/>
<path d="M18.3312 83.3608L21.4252 82.4945C21.6108 82.4327 21.7964 82.3708 21.7964 82.247C21.9202 82.1233 21.8583 81.9376 21.7964 81.752L21.6108 81.0713L22.6009 80.8238L22.8484 81.6901C22.9721 82.1851 22.9721 82.6802 22.7865 82.9896C22.6009 83.299 22.2296 83.5465 21.6727 83.7321L18.5787 84.5984L18.7644 85.2791L17.7743 85.5266L17.5887 84.8459L16.2273 85.2172L15.918 84.0415L17.2793 83.6702L16.908 82.3089L17.8981 82.0614L18.3312 83.3608Z" fill="#F3F3F4"/>
<path d="M21.7964 77.668C21.6727 77.7918 21.487 77.9774 21.2395 77.9774C20.992 77.9774 20.8683 77.9774 20.6207 77.8537C20.497 77.7299 20.3113 77.5443 20.3113 77.2967C20.2495 77.1111 20.3113 76.9255 20.497 76.7398C20.6826 76.5542 20.8064 76.4304 21.0539 76.4304C21.2395 76.3686 21.4252 76.4304 21.6727 76.5542C21.7964 76.678 21.9202 76.8017 21.9202 77.0492C21.9202 77.2967 21.9821 77.4824 21.7964 77.668Z" fill="#F3F3F4"/>
</g>
<path d="M88.9369 63.7142H51.9369V74.7837H88.9369V63.7142Z" fill="#E2FF65"/>
<path d="M64.9021 50.749L64.9021 87.749L75.9716 87.749L75.9716 50.749L64.9021 50.749Z" fill="#E2FF65"/>
</g>
<rect x="1.5" y="1.5" width="137" height="136" rx="68" stroke="#211F20"/>
</g>
<defs>
<filter id="filter0_g_467_243" x="0.5" y="0.5" width="139" height="138" filterUnits="userSpaceOnUse" color-interpolation-filters="sRGB">
<feFlood flood-opacity="0" result="BackgroundImageFix"/>
<feBlend mode="normal" in="SourceGraphic" in2="BackgroundImageFix" result="shape"/>
<feTurbulence type="fractalNoise" baseFrequency="2 2" numOctaves="3" seed="9034" />
<feDisplacementMap in="shape" scale="1" xChannelSelector="R" yChannelSelector="G" result="displacedImage" width="100%" height="100%" />
<feMerge result="effect1_texture_467_243">
<feMergeNode in="displacedImage"/>
</feMerge>
</filter>
<clipPath id="clip0_467_243">
<rect x="1" y="1" width="138" height="137" rx="68.5" fill="white"/>
</clipPath>
<clipPath id="clip1_467_243">
<rect width="110" height="109.3" fill="white" transform="translate(-7.53418 69.7475) rotate(-45)"/>
</clipPath>
</defs>
</svg>
