<svg width="190" height="72" viewBox="0 0 190 72" fill="none" xmlns="http://www.w3.org/2000/svg">
<g clip-path="url(#clip0_419_95)">
<g opacity="0.5">
<path d="M161.876 15.7389C165.664 16.6582 169.367 17.9022 172.942 19.4572C176.632 21.0241 180.081 23.1066 183.186 25.6424C183.974 26.3126 184.726 27.0238 185.439 27.7731L185.711 28.0526L185.991 28.3889L186.545 29.0683C186.901 29.53 187.195 30.043 187.51 30.5346C188.626 32.5804 189.186 34.8837 189.132 37.2137C189.078 39.5438 188.413 41.8188 187.203 43.8109L186.985 44.1825L186.733 44.5334L186.224 45.23C185.857 45.6711 185.467 46.0978 185.063 46.504L184.417 47.0739C184.207 47.2687 183.982 47.4473 183.745 47.6081C183.307 47.9296 182.853 48.2286 182.384 48.504C175.305 52.7471 167.58 55.634 159.856 57.8934C154.697 59.4152 149.485 60.6368 144.285 61.7615C141.685 62.3257 139.083 62.8451 136.482 63.3892C133.878 63.9181 131.265 64.4075 128.657 64.9187C118.207 66.8848 107.68 68.5211 97.0845 69.6824C86.4755 70.8731 75.8097 71.4865 65.1342 71.5199C54.4274 71.553 43.732 70.8197 33.1299 69.3256C32.3104 69.2332 31.5 69.0728 30.6853 68.9429L28.2451 68.5284C26.6181 68.2446 24.9943 67.9901 23.3654 67.6456C20.0302 67.0115 16.755 66.0948 13.5753 64.9054C11.9443 64.2726 10.3647 63.5146 8.85061 62.6382C8.46985 62.4148 8.08908 62.1918 7.72049 61.9441C7.3328 61.7068 6.95968 61.4465 6.60313 61.1645L5.48591 60.2804C5.1383 59.9564 4.80861 59.6106 4.47274 59.2736C4.13534 58.9371 3.82575 58.5738 3.54699 58.1872C3.24246 57.821 2.96509 57.4329 2.71709 57.0263C2.47238 56.6178 2.22315 56.2116 1.99009 55.7976L1.40413 54.4981C0.703072 52.7368 0.30644 50.8693 0.23118 48.9751C0.197763 47.0858 0.478909 45.2042 1.0631 43.4072C1.66477 41.6121 2.5825 39.9391 3.773 38.4671L4.7021 37.3986C5.0418 37.0736 5.3944 36.7611 5.743 36.4449C5.915 36.2954 6.0999 36.1134 6.26201 35.9922L6.75419 35.6116L7.73863 34.8505C8.39653 34.3456 9.04721 33.8303 9.71173 33.3344L11.7303 31.881C14.4195 29.9395 17.211 28.1506 20.0296 26.4119C21.4578 25.5752 22.8816 24.7295 24.3257 23.922L26.5071 22.7387L27.5978 22.1472L28.7043 21.5868C34.5913 18.5834 40.6565 15.9429 46.866 13.6803C53.0661 11.432 59.3826 9.51882 65.7882 7.94898C78.5842 4.8059 91.6255 2.89146 104.688 1.74108C112.571 1.03519 120.553 0.758055 128.346 0.635634C135.812 0.529811 140.644 0.917411 143.639 1.45534C145.819 1.84711 145.813 2.28047 143.946 2.66325C142.079 3.04604 138.352 3.36871 133.089 3.62151C126.429 3.93747 119.159 4.24931 112.293 4.68034C96.4936 5.67514 80.7557 7.69997 65.505 11.6619C50.283 15.6241 35.5265 21.5169 22.2402 29.794C18.588 32.0941 14.9861 34.6224 11.5315 37.2837C10.6764 37.9595 9.82314 38.6338 8.97183 39.3065C8.58234 39.6361 8.27695 39.946 7.92065 40.259C7.59175 40.5855 7.31569 40.958 7.00475 41.2977C5.87533 42.7375 5.09935 44.4221 4.73913 46.2163C4.47067 47.637 4.45717 49.0942 4.69927 50.5196L4.80246 51.0512C4.8281 51.2299 4.86984 51.406 4.92717 51.5772L5.2516 52.6096L5.69265 53.5955L5.80226 53.8427L5.94274 54.073L6.22091 54.5353C6.31447 54.6888 6.40116 54.8471 6.49873 54.9981L6.83219 55.4222C7.0396 55.7165 7.27006 55.9939 7.5214 56.2518L8.28284 57.0202L9.13979 57.6887C9.43912 57.9268 9.75399 58.1446 10.0823 58.3407C10.4074 58.56 10.7534 58.7514 11.0928 58.9519C11.7765 59.3466 12.4878 59.7014 13.2081 60.0426C16.2006 61.3512 19.3264 62.3308 22.5305 62.9642C25.7847 63.6802 29.1649 64.116 32.4841 64.692C34.1533 64.9467 35.8345 65.1263 37.509 65.347L40.0231 65.6637C40.8626 65.7567 41.7058 65.8201 42.5469 65.8999L47.5963 66.353L52.6593 66.6429C53.5033 66.6853 54.3457 66.755 55.1909 66.7754L57.7261 66.8437C59.4164 66.8789 61.105 66.9606 62.7958 66.9617C66.1775 66.9545 69.5576 66.9932 72.9374 66.8697C93.0444 66.3792 113.16 63.4385 133.007 59.6179C141.857 57.8712 150.723 56.1453 159.277 53.639C163.542 52.4045 167.723 50.8996 171.796 49.1337C172.796 48.6676 173.813 48.2331 174.79 47.7261C175.281 47.4783 175.778 47.239 176.266 46.9845L177.714 46.1959C178.201 45.9399 178.673 45.6607 179.143 45.377C179.609 45.097 180.1 44.8148 180.545 44.537C180.934 44.2831 181.305 44.0013 181.654 43.6938C181.833 43.5463 182.003 43.3885 182.164 43.2212L182.631 42.704C183.825 41.2544 184.536 39.4679 184.665 37.5942C184.735 36.6648 184.651 35.7303 184.416 34.8284C184.388 34.7161 184.368 34.601 184.335 34.4902L184.216 34.1639C184.131 33.9489 184.076 33.721 183.972 33.5146L183.666 32.8914C183.559 32.6858 183.439 32.4874 183.307 32.2975C183.056 31.9055 182.776 31.533 182.469 31.1834C182.124 30.8164 181.751 30.4362 181.381 30.0725C180.609 29.3499 179.797 28.6724 178.947 28.0432C177.206 26.7697 175.357 25.6495 173.422 24.6952C169.461 22.7724 165.311 21.2661 161.039 20.2005C156.681 19.0833 152.299 18.0637 147.892 17.1416C140.859 15.6824 134.002 14.3729 127.396 13.2501C124.095 12.681 120.856 12.1622 117.692 11.6742C114.53 11.164 111.44 10.7279 108.437 10.3059C105.674 9.93571 104.39 9.57056 104.61 9.29218C104.829 9.02596 106.557 8.81113 109.807 8.8758C119.304 9.06051 128.781 9.81705 138.188 11.1413C142.109 11.667 146.054 12.392 149.999 13.1829C153.943 13.9804 157.884 14.8629 161.787 15.8028C161.815 15.7805 161.842 15.7604 161.876 15.7389Z" fill="#1C50D8"/>
</g>
</g>
<defs>
<clipPath id="clip0_419_95">
<rect width="190" height="72" fill="white"/>
</clipPath>
</defs>
</svg>
