<svg width="26" height="146" viewBox="0 0 26 146" fill="none" xmlns="http://www.w3.org/2000/svg">
<path d="M0.363605 129.127C0.766365 129.104 1.33025 128.892 1.69273 129.104C3.50515 130.162 5.15646 131.503 6.36474 133.455C7.25081 134.89 8.33826 135.948 9.92916 136.348C11.7214 133.055 10.0097 129.88 9.86876 126.681C10.4125 125.435 11.0368 124.259 12.6679 124.259C14.7422 127.41 14.3595 131.268 14.5408 134.913C15.3866 135.243 15.5477 134.561 15.6484 134.02C16.3331 130.797 17.7024 127.928 18.9913 124.988C20.26 122.095 22.012 119.86 24.5292 118.285C25.9187 118.943 26.2611 120.331 25.8181 121.718C24.8313 124.776 24.0057 128.069 22.4349 130.68C20.2197 134.373 19.2128 138.559 17.7629 142.558C17.5011 143.287 17.4608 144.134 17.0782 144.745C16.7157 145.31 16.0713 145.968 15.5275 145.992C13.4936 146.062 11.4798 145.709 9.84863 144.086C5.8613 140.088 2.49825 135.454 0.202517 129.88C0.182379 129.786 0.283053 129.598 0.363605 129.127Z" fill="#E2FF65"/>
<path d="M6.84813 41.3725C8.53972 42.4074 9.16399 44.3361 9.40564 46.3118C9.9091 50.6161 10.2917 54.9438 10.5132 59.2716C10.6542 61.8824 10.3723 64.5402 10.2716 67.6449C8.9022 66.7982 8.19736 65.975 7.91543 64.5637C7.27101 61.412 6.46549 58.2838 5.90163 55.1085C5.3579 52.0743 4.99542 48.9932 4.67321 45.9355C4.43156 43.8657 4.93502 43.019 6.84813 41.3725Z" fill="#E2FF65"/>
<path d="M11.2584 103.984C10.2716 102.291 9.62721 101.632 9.4661 100.832C9.08348 99.0448 8.86195 97.1866 8.72098 95.3285C8.55988 92.8589 8.55988 90.4363 7.5127 88.0842C7.00925 86.9552 7.15023 85.3558 7.25092 83.9916C7.2912 83.3566 7.8752 82.6745 8.33838 82.2041C9.02307 81.522 10.0098 81.7337 10.3924 82.6275C10.7549 83.4507 11.1375 84.3209 11.2181 85.2147C11.4598 88.2959 11.641 91.4006 11.7417 94.5053C11.8222 96.6692 11.7417 98.8331 11.7014 101.02C11.6813 101.608 11.5202 102.197 11.2584 103.984Z" fill="#E2FF65"/>
<path d="M2.61908 21.5918C1.81356 19.8513 1.14901 18.9575 0.987911 17.9932C0.323356 13.5478 -0.180114 9.0789 0.0615426 4.53945C0.162233 2.75189 0.705964 1.24659 2.05521 0C3.50515 0.98786 4.02875 2.46965 3.90792 4.28073C3.6864 7.99696 3.38433 11.7132 3.12254 15.4294C3.02185 17.1229 2.86074 18.8164 2.61908 21.5918Z" fill="#E2FF65"/>
</svg>
