<svg width="104" height="100" viewBox="0 0 104 100" fill="none" xmlns="http://www.w3.org/2000/svg">
<path fill-rule="evenodd" clip-rule="evenodd" d="M51.8403 0C62.1703 0 70.5443 8.40523 70.5443 18.7736C70.5443 29.1419 62.1703 37.5471 51.8403 37.5471C41.5103 37.5471 33.1364 29.1419 33.1364 18.7736C33.1364 8.40523 41.5103 0 51.8403 0ZM20.5932 96.4131C12.2361 90.319 10.3835 78.5784 16.4553 70.1902C22.527 61.8019 34.2238 59.9425 42.581 66.0371C50.9381 72.1312 52.7906 83.8717 46.7191 92.26C40.6472 100.648 28.9502 102.508 20.5932 96.4131ZM87.2859 70.1902C93.3578 78.5784 91.5053 90.319 83.1482 96.4131C74.7911 102.508 63.094 100.648 57.0225 92.26C50.9506 83.8717 52.8031 72.1312 61.1602 66.0371C69.5174 59.9425 81.2144 61.8019 87.2859 70.1902ZM1.25447 36.7981C4.44659 26.9373 14.9985 21.5408 24.8228 24.7448C34.6472 27.9488 40.0237 38.5402 36.8316 48.4009C33.6394 58.2617 23.0875 63.6582 13.2632 60.4542C3.43881 57.2502 -1.93765 46.6592 1.25447 36.7981ZM78.8451 24.7448C88.6697 21.5408 99.2214 26.9373 102.413 36.7981C105.606 46.6592 100.229 57.2502 90.4049 60.4542C80.5803 63.6582 70.0287 58.2617 66.8366 48.4009C63.6444 38.5402 69.0209 27.9488 78.8451 24.7448Z" fill="#211F20"/>
</svg>
