<svg width="104" height="100" viewBox="0 0 104 100" fill="none" xmlns="http://www.w3.org/2000/svg">
<path fill-rule="evenodd" clip-rule="evenodd" d="M51.8393 0C62.1694 0 70.5433 8.40523 70.5433 18.7736C70.5433 29.1419 62.1694 37.5471 51.8393 37.5471C41.5093 37.5471 33.1354 29.1419 33.1354 18.7736C33.1354 8.40523 41.5093 0 51.8393 0ZM20.5922 96.4131C12.2351 90.319 10.3825 78.5784 16.4543 70.1902C22.5261 61.8019 34.2229 59.9425 42.58 66.0371C50.9371 72.1312 52.7896 83.8717 46.7181 92.26C40.6462 100.648 28.9493 102.508 20.5922 96.4131ZM87.2849 70.1902C93.3568 78.5784 91.5043 90.319 83.1472 96.4131C74.7901 102.508 63.0931 100.648 57.0216 92.26C50.9496 83.8717 52.8021 72.1312 61.1593 66.0371C69.5164 59.9425 81.2134 61.8019 87.2849 70.1902ZM1.2535 36.7981C4.44562 26.9373 14.9975 21.5408 24.8219 24.7448C34.6462 27.9488 40.0227 38.5402 36.8306 48.4009C33.6385 58.2617 23.0865 63.6582 13.2622 60.4542C3.43783 57.2502 -1.93862 46.6592 1.2535 36.7981ZM78.8441 24.7448C88.6687 21.5408 99.2204 26.9373 102.413 36.7981C105.605 46.6592 100.228 57.2502 90.404 60.4542C80.5794 63.6582 70.0277 58.2617 66.8356 48.4009C63.6435 38.5402 69.02 27.9488 78.8441 24.7448Z" fill="#211F20"/>
</svg>
