<?xml version="1.0" encoding="UTF-8"?>
<svg id="Layer_1" xmlns="http://www.w3.org/2000/svg" version="1.1" viewBox="0 0 234.8 233.9">
  <!-- Generator: Adobe Illustrator 29.1.0, SVG Export Plug-In . SVG Version: 2.1.0 Build 142)  -->
  <path d="M165.3,71.4l-1.1.2c-2.9.6-5.1,3-5.5,5.9,0,.2,0,.4,0,.5,0,.3,0,.6,0,.9.1,2.3,1.4,4.6,3,6.2l11.1,11.1,11.2-11.2c1.8-2,3.2-4.5,2.8-7.4s-2.4-5.2-5.1-6-6.6.7-8.9,2.9c-1.6-1.6-3.7-3-6.1-3.3s-.4,0-.5,0h-.8Z"/>
  <path d="M79.6,71.4l-1.1.2c-2.9.6-5.1,3-5.5,5.9,0,.2,0,.4,0,.5,0,.3,0,.6,0,.9.1,2.3,1.4,4.6,3,6.2l11.1,11.1,11.2-11.2c1.8-2,3.2-4.5,2.8-7.4s-2.4-5.2-5.1-6c-3.5-1-6.6.7-8.9,2.9-1.6-1.6-3.7-3-6.1-3.3s-.4,0-.5,0h-.8Z"/>
  <rect x="139.9" y="108.9" width="65.8" height="19.7"/>
  <polygon points="119.9 108.9 96.9 108.9 77.2 108.9 54.1 108.9 54.1 128.6 77.2 128.6 77.2 174.7 96.9 174.7 96.9 128.6 119.9 128.6 119.9 108.9"/>
</svg>