<?xml version="1.0" encoding="UTF-8"?>
<svg id="Layer_1" data-name="Layer 1" xmlns="http://www.w3.org/2000/svg" viewBox="0 0 234.84 233.88">
  <defs>
    <style>
      .cls-1 {
        fill: #ffffff;
      }
    </style>
  </defs>
  <path class="cls-1" d="M80.94,55.77l-5.37.79c-14.18,2.96-25.11,14.77-26.96,29.16-.11.82-.06,1.75-.29,2.54.07,1.51-.09,3.06,0,4.56.68,11.52,6.95,22.34,14.65,30.62l54.67,54.66,54.81-54.8c5.87-6.45,10.79-14.04,12.92-22.6,6.49-26.13-14.94-48.95-41.4-43.76-10.11,1.98-19.13,8-26.33,15.14-8.07-8.06-18.34-14.57-29.87-16.01-.86-.11-1.86-.25-2.68-.29h-4.15Z"/>
</svg>