<?xml version="1.0" encoding="UTF-8"?>
<svg id="Layer_1" xmlns="http://www.w3.org/2000/svg" version="1.1" viewBox="0 0 786.8 233.9">
  <!-- Generator: Adobe Illustrator 29.1.0, SVG Export Plug-In . SVG Version: 2.1.0 Build 142)  -->
  <defs>
    <style>
      .st0 {
        fill: #0043f1;
      }

      .st1 {
        fill: #211f20;
      }
    </style>
  </defs>
  <g>
    <path class="st1" d="M227.6,130.3c-6,33.8-33.4,59.6-69.6,59.6s-73-32-73-71.7,32.9-71.7,73-71.7,63.6,25.8,69.6,59.6h-18.6c-5.2-24.2-25.8-42.1-51.1-42.1s-52.2,24.2-52.2,54.2,22.8,54.2,52.2,54.2,45.9-17.9,51.1-42.1h18.6Z"/>
    <path class="st1" d="M241.1,62.6c0-6.9,5.6-12.3,12.5-12.3s12.5,5.4,12.5,12.3-5.6,12.1-12.5,12.1-12.5-5.4-12.5-12.1ZM244,188.2h20.2v-98.8h-20.2v98.8Z"/>
    <path class="st1" d="M347.7,124.9v-2c0-11.6-2.7-15.2-5.8-15.7-19.9-2-37.8,81.7-37.8,81.7h-19.9v-98.7h19.9v51.3s12.1-54.9,41.7-52.8c16.6,1.1,22.2,19.5,22.2,33.4v2.9h-20.2Z"/>
    <path class="st1" d="M477.5,151.1c-5.4,22.6-23.3,39.4-47.9,39.4s-52.8-23.1-52.8-51.3,23.7-51.3,52.8-51.3,42.1,16.8,47.9,38.5h-17.5c-4.9-12.8-16.8-21.7-30.5-21.7s-32.9,15.5-32.9,34.5,14.8,34.3,32.9,34.3,26-9.4,30.7-22.4h17.2Z"/>
    <path class="st1" d="M563,89.3h20.2v98.8h-20.2v-53.1s-12.5,60-48.6,54.6c-16.3-2.2-23.5-18.8-23.5-47.2v-53.1h19.9v51.7s-.9,28.9,10.1,30c24.9,2.7,42.1-81.7,42.1-81.7Z"/>
    <rect class="st1" x="604" y="89.5" width="20.2" height="98.8"/>
    <path class="st0" d="M673.3,91s0-1.5,0-1.5h-10.4c-7.2,0-14.5,0-21.7,0-4.9,0-9.7,0-14.6,0h-13.9c-2.7,0-5.4,0-8.2,0h-.6s0,16.1,0,16.1l49.6.2v53.5c0,10.5,3.6,18.4,10.7,23.7,6.3,4.7,15,7.2,25.1,7.2s5.6-.2,7.8-.4l4.5-.7s0-17.5,0-17.5c0,.5-4.8,1-5.3,1-6.2.8-13.3,1.4-18.9-1.9-2.7-2.2-4.3-5.8-4.3-11.4"/>
    <rect class="st0" x="658.8" y="53.5" width="8.9" height="20.2" rx="1.1" ry="1.1"/>
    <rect class="st0" x="658.8" y="53.5" width="8.9" height="20.2" rx="1.1" ry="1.1" transform="translate(726.8 -599.7) rotate(90)"/>
    <rect class="st1" x="609.7" y="53.5" width="8.9" height="20.2" rx="1.1" ry="1.1" transform="translate(677.6 -550.5) rotate(90)"/>
    <path class="st0" d="M632.4,22l-1.1.2c-2.9.6-5.1,3-5.5,6s0,.4,0,.5c0,.3,0,.6,0,.9.1,2.4,1.4,4.6,3,6.3l11.2,11.2,11.2-11.2c1.2-1.3,2.2-2.9,2.6-4.6,1.3-5.3-3.1-10-8.5-8.9-2.1.4-3.9,1.6-5.4,3.1-1.6-1.6-3.7-3-6.1-3.3s-.4,0-.5,0h-.8Z"/>
  </g>
  <rect class="st0" x="669.4" y="89.5" width="15" height="16"/>
</svg>