<svg width="1235" height="832" viewBox="0 0 1235 832" fill="none" xmlns="http://www.w3.org/2000/svg">
<path fill-rule="evenodd" clip-rule="evenodd" d="M409.901 147.363C391.958 146.107 356.073 141.628 356.073 141.628L345.343 249.803C345.343 249.803 385.203 253.695 405.133 255.149C434.627 257.301 493.615 260.621 493.615 260.621L496.541 151.462C496.541 151.462 438.781 149.385 409.901 147.363Z" fill="#85A2F2" stroke="black" stroke-width="1.2" stroke-linecap="round" stroke-linejoin="round"/>
<path fill-rule="evenodd" clip-rule="evenodd" d="M732.606 100.325L731.631 103.275H729.68L730.655 113.109V119.01L722.851 123.927L721.876 126.877L719.925 129.827V132.777L722.851 133.761L724.802 136.711L723.827 140.645L722.851 143.595L723.827 145.562L722.851 146.545L723.827 148.512L722.851 154.412L727.729 158.346H731.631L734.557 161.296L738.459 162.28L742.361 166.213L745.287 170.147L748.214 172.114H752.115L756.017 176.047L756.993 178.998V186.865H757.968L758.944 189.815L761.87 191.782L759.919 194.732L760.895 201.616L763.821 207.517H769.674L771.625 212.434L830.153 206.533L829.178 202.6L830.153 200.633V197.683L828.202 196.699L827.227 192.765L826.252 186.865V182.931L827.227 179.981V177.031L829.178 173.097L827.227 171.13L828.202 165.23L829.178 162.28L832.104 160.313L830.153 157.363V151.462L833.08 146.545L832.104 143.595L835.031 140.645L836.006 135.728L836.982 131.794L838.933 128.844H836.982L836.006 131.794L834.055 134.744H833.08V137.694L831.129 139.661L832.104 141.628L831.129 142.611H830.153L827.227 143.595L825.276 147.528L823.325 149.495L821.374 152.446L819.423 151.462V148.512L821.374 143.595L823.325 140.645L826.252 138.678V136.711L823.325 134.744L825.276 128.844H824.301L821.374 129.827H820.399L822.35 125.893L820.399 120.976L817.472 119.01H814.546V116.059L811.619 115.076L804.791 114.092L800.889 115.076L796.987 113.109L784.306 110.159L773.576 108.192L770.649 104.258L767.723 103.275L760.895 101.308L756.993 103.275V101.308L758.944 94.4242L756.993 93.4408L752.115 96.391L749.189 97.3744L742.361 101.308L736.508 102.292L732.606 100.325Z" fill="#85A2F2" stroke="black" stroke-width="1.2" stroke-linecap="round" stroke-linejoin="round"/>
<path fill-rule="evenodd" clip-rule="evenodd" d="M971.597 323.559V324.543H972.573V326.51H973.548V328.476H974.524L975.499 330.443H978.426L979.401 331.427L982.328 332.41L985.254 329.46L986.229 327.493L990.131 329.46L992.082 327.493H995.984L996.96 325.526L995.984 323.559L997.935 322.576L999.886 323.559L1003.79 320.609L1004.76 321.593L1008.67 318.642L1007.69 317.659L1009.64 315.692V314.709H1007.69V312.742L1008.67 309.792L1012.57 303.891L1013.54 299.957L1012.57 298.974L1015.49 296.024L1014.52 295.04L1016.47 292.09V288.157L1017.44 287.173H1019.4L1021.35 289.14H1025.25L1027.2 287.173V284.223L1028.17 283.239V280.289L1029.15 278.322L1030.13 277.339L1033.05 278.322L1034.03 274.389H1035.98V273.405L1037.93 271.439V269.472L1039.88 266.521V263.571L1040.86 261.604L1039.88 259.638L1040.86 258.654L1052.56 264.555L1053.54 258.654V256.687L1051.59 255.704L1050.61 253.737H1049.64L1050.61 251.77L1046.71 252.754L1042.81 250.787L1041.83 251.77L1040.86 253.737H1037.93L1036.95 256.687L1035 257.671H1032.08L1030.13 254.72V257.671L1027.2 260.621H1024.27L1023.3 262.588L1021.35 265.538L1017.44 269.472L1014.52 255.704L993.058 259.638L988.18 235.052L985.254 237.019L988.18 238.986L987.205 241.936L988.18 244.886L987.205 248.82V253.737L986.229 259.638V263.571L981.352 266.521V269.472L977.45 273.405L975.499 271.439L972.573 273.405V275.372L970.622 276.356L969.646 280.289L968.671 282.256L969.646 283.239V285.206L967.695 287.173H966.72V285.206L964.769 284.223L962.818 286.19L961.843 289.14V291.107L962.818 296.024L960.867 297.007V299.957L955.014 302.908L955.99 305.858L955.014 309.792L958.916 313.725L959.892 315.692L963.794 320.609L968.671 323.559H971.597Z" fill="#85A2F2" stroke="black" stroke-width="1.2" stroke-linecap="round" stroke-linejoin="round"/>
<path fill-rule="evenodd" clip-rule="evenodd" d="M1071.1 269.472L1073.05 267.505L1070.12 264.554L1069.14 266.521L1070.12 267.505L1071.1 269.472Z" fill="#85A2F2" stroke="black" stroke-width="1.2" stroke-linecap="round" stroke-linejoin="round"/>
<path fill-rule="evenodd" clip-rule="evenodd" d="M242.918 100.325V97.3744L243.893 96.391V94.4242L241.942 90.4905L252.672 22.6351C252.672 22.6351 197.411 12.9826 169.78 7.66472C161.643 6.09875 145.37 1.9834 145.37 1.9834L144.395 3.95022L145.37 8.86728H148.297V12.8009L147.321 16.7346H145.37L144.395 14.7678L143.419 12.8009L140.493 8.86728L138.542 9.8507L140.493 10.8341L142.444 12.8009L140.493 13.7843L137.566 11.8175L134.64 10.8341L135.615 13.7843L140.493 15.7512L142.444 13.7843L144.395 16.7346L141.468 20.6682L142.444 23.6185L144.395 29.5189L146.346 30.5024L145.37 27.5521L143.419 22.6351L144.395 19.6848H146.346L148.297 20.6682V24.6019V27.5521L150.248 28.5355L148.297 31.4858L145.37 34.436V37.3862V40.3365L144.395 45.2535L142.444 48.2038L140.493 47.2204L137.566 50.1706L136.591 51.154L133.665 50.1706L131.714 51.154L128.787 50.1706L130.738 47.2204L133.665 44.2701L135.615 45.2535L137.566 43.2867L139.517 46.237L140.493 40.3365L138.542 39.3531L139.517 35.4194C138.485 35.4194 142.444 35.4194 142.444 35.4194L143.419 32.4692L136.591 36.4028L134.64 37.3862L130.738 40.3365L132.689 42.3033H134.64L132.689 43.2867H127.812L128.787 41.3199L132.689 37.3862L135.615 34.436V31.4858H137.566V33.4526L140.493 30.5024L138.542 24.6019V27.5521L135.615 24.6019L134.64 25.5853L131.714 22.6351H128.787L118.057 18.7014L114.155 16.7346L112.204 14.7678L105.376 10.8341L103.425 15.7512V21.6516L106.351 25.5853L107.327 29.5189L106.351 37.3862L108.302 40.3365L107.327 46.237H110.253V48.2038L114.155 50.1706L109.278 51.154L108.302 53.1208L107.327 52.1374V55.0877H111.229L113.18 58.0379H110.253L109.278 61.9715L110.253 64.9218H107.327L106.351 62.955L105.376 66.8886H107.327L109.278 67.872H113.18L114.155 68.8554H117.081L118.057 71.8057L120.008 72.7891H122.934L125.861 75.7393L127.812 80.6564L126.836 87.5403V89.5071L133.665 91.4739L136.591 93.4407L143.419 91.4739L146.346 90.4905L152.199 91.4739L157.076 93.4407L158.051 96.391L161.953 95.4076L162.929 96.391L169.757 95.4076L174.634 96.391L179.512 95.4076L188.291 94.4242L191.218 93.4407L199.997 95.4076L202.923 93.4407L242.918 100.325Z" fill="#85A2F2" stroke="black" stroke-width="1.2" stroke-linecap="round" stroke-linejoin="round"/>
<path fill-rule="evenodd" clip-rule="evenodd" d="M1109.14 88.5237L1144.26 78.6896L1145.23 79.673L1146.21 81.6398L1144.26 85.5735L1147.18 89.5071L1146.21 90.4905V92.4573L1143.28 97.3744L1142.31 98.3578H1140.35L1139.38 100.325L1140.35 103.275V106.225V110.159L1139.38 111.142V115.076L1138.4 117.043V119.993L1137.43 120.976L1138.4 126.877L1139.38 127.86L1138.4 131.794L1139.38 133.761V136.711L1138.4 137.694V140.645L1142.31 143.595L1125.72 146.545L1124.75 145.562L1120.84 127.86V125.893L1118.89 123.927L1116.94 125.893V119.993L1115.97 119.009V118.026L1114.99 117.043L1114.02 114.092H1113.04V109.175L1114.02 107.209L1112.07 104.258L1111.09 100.325L1110.11 98.3578V93.4408L1109.14 92.4573V88.5237Z" fill="#85A2F2" stroke="black" stroke-width="1.2" stroke-linecap="round" stroke-linejoin="round"/>
<path fill-rule="evenodd" clip-rule="evenodd" d="M1105.24 326.51V324.543H1106.21V319.626L1104.26 316.675H1097.43L1098.41 319.626L1095.48 318.642L1093.53 320.609V317.659L1088.65 315.692V312.742H1085.73H1082.8L1080.85 310.775L1074.02 311.758V309.792L1081.83 308.808L1082.8 310.775L1083.78 307.825L1084.75 310.775H1088.65H1089.63V312.742L1095.48 315.692L1097.43 313.725L1095.48 312.742V310.775L1093.53 309.792H1090.61L1083.78 303.891V301.924L1090.61 307.825H1093.53L1091.58 305.858L1092.56 302.908L1096.46 305.858L1095.48 302.908L1092.56 300.941L1088.65 299.957L1086.7 297.007L1083.78 296.024L1079.88 293.073L1076.95 289.14H1075L1072.07 288.156L1073.05 287.173H1076.95L1083.78 294.057H1085.73L1089.63 297.991V296.024L1092.56 297.991V294.057L1091.58 292.09L1093.53 291.107L1090.61 290.123L1086.7 289.14L1085.73 287.173L1082.8 286.19L1080.85 287.173L1076.95 286.19L1074.02 283.239V281.273L1071.1 284.223H1067.19V282.256V281.273V275.372L1069.14 273.405L1071.1 272.422V269.472L1070.12 267.505L1069.14 266.521H1066.22L1065.24 264.555H1061.34L1059.39 262.588L1060.37 259.637L1057.44 258.654H1053.54L1052.56 264.555L1040.86 258.654L1039.88 259.637L1040.86 261.604L1039.88 263.571V266.521L1037.93 269.472V271.438L1035.98 273.405V274.389H1034.03L1033.05 278.322L1030.13 277.339L1029.15 278.322L1028.17 280.289V283.239L1027.2 284.223V287.173L1025.25 289.14H1021.35L1019.4 287.173H1017.44L1016.47 288.156V292.09L1014.52 295.04L1015.49 296.024L1012.57 298.974L1013.54 299.957L1012.57 303.891L1008.67 309.792L1007.69 312.742V314.709H1009.64V315.692L1007.69 317.659L1008.67 318.642L1004.76 321.592L1003.79 320.609L999.886 323.559L997.935 322.576L995.984 323.559L996.96 325.526L995.984 327.493H992.082L990.131 329.46L986.23 327.493L985.254 329.46L982.328 332.41L979.401 331.427L978.426 330.443H975.499L974.524 328.476H973.548V326.51H972.573V324.543H971.597L964.769 333.393L957.941 337.327V340.277L955.99 342.244V344.211L951.112 346.178L950.137 349.128L939.407 355.028L982.328 348.145V349.128L1105.24 326.51ZM1106.21 285.206V287.173L1105.24 288.156L1106.21 290.123L1104.26 293.073L1103.29 296.024V299.957L1102.31 303.891L1103.29 307.825L1104.26 308.808L1105.24 305.858V299.957L1106.21 297.007L1109.14 297.991V292.09L1111.09 288.156L1110.11 286.19V283.239L1106.21 285.206Z" fill="#85A2F2" stroke="black" stroke-width="1.2" stroke-linecap="round" stroke-linejoin="round"/>
<path fill-rule="evenodd" clip-rule="evenodd" d="M285.839 215.384L269.256 351.095C269.256 351.095 299.055 355.297 313.954 356.906C335.472 359.23 378.509 362.896 378.509 362.896L387.288 253.737L345.343 249.803L348.269 223.251L285.839 215.384Z" fill="#85A2F2" stroke="black" stroke-width="1.2" stroke-linecap="round" stroke-linejoin="round"/>
<path fill-rule="evenodd" clip-rule="evenodd" d="M510.198 384.531L577.506 385.514V438.618H580.432L586.285 444.519L589.211 443.536H591.162L592.138 441.569L596.04 445.502V448.453H600.917L606.77 450.419L609.696 449.436L612.623 452.386L615.549 450.419H621.402V453.37L624.328 454.353L626.279 458.287L632.132 453.37L633.108 456.32H635.059L637.985 458.287L641.887 456.32L643.838 461.237L647.74 454.353L652.617 457.303L655.544 456.32L657.495 458.287L663.347 460.254H665.298L666.274 457.303L671.151 456.32H673.102L678.955 454.353L682.857 455.336L686.759 453.37L692.612 455.336L695.538 458.287L698.464 460.254L704.317 461.237L708.219 463.204L709.195 462.22H714.072L715.048 463.204V477.955H716.023L716.999 506.474L719.925 509.424L722.851 513.358V517.291L724.802 519.258V520.242L726.753 522.209V525.159L728.704 527.126L729.68 528.109V531.059L730.655 532.043L729.68 533.026V538.927L728.704 541.877L726.753 545.81V548.761L725.778 550.727L727.729 554.661L726.753 558.595L724.802 560.562L722.851 564.495L721.876 566.462L723.827 569.412H719.925L711.146 574.329H707.244L702.366 575.313L704.317 572.363L705.293 569.412L703.342 568.429L701.391 569.412L699.44 571.379L695.538 570.396L696.514 574.329L698.464 577.28L700.415 579.246L699.44 581.213L695.538 585.147L693.587 584.163L694.563 589.081L688.71 593.998L682.857 597.931L676.029 598.915L675.053 600.882H670.176V598.915L667.249 600.882L665.298 598.915L663.347 596.948L664.323 601.865L661.396 600.882L659.445 598.915L658.47 599.898L660.421 603.832L662.372 604.815L660.421 606.782L664.323 605.799V607.765L659.445 610.716L655.544 605.799L654.568 608.749V613.666L653.593 615.633L652.617 611.699L646.764 615.633L645.789 617.6L647.74 619.566L650.666 617.6L646.764 623.5L638.961 622.517L637.985 624.483L640.911 625.467L644.813 628.417L640.911 638.251L638.961 636.284L636.034 638.251L632.132 634.318L633.108 638.251L632.132 639.235L633.108 640.218L637.985 641.201L639.936 640.218L638.961 647.102L637.985 648.085V653.986H639.936L640.911 659.886L639.936 661.853L642.862 666.77L644.813 671.687L646.764 672.671L645.789 676.604L643.838 678.571L639.936 677.588L636.034 673.654H622.377L617.5 669.72L611.647 668.737L607.745 664.803H600.917V661.853L598.966 660.87L597.015 653.002L594.089 649.069L592.138 647.102V642.185L590.187 639.235L591.162 637.268V634.318L590.187 631.367L586.285 629.4L581.408 625.467L580.432 622.517L576.53 616.616L573.604 614.649L571.653 611.699L569.702 604.815L566.775 600.882L565.8 597.931L562.874 593.998V589.081L559.947 587.114V585.147L553.119 581.213V579.246L549.217 578.263V575.313H547.266L544.339 570.396H537.511L531.658 569.412H526.781L522.879 567.445L520.928 570.396L514.1 571.379L510.198 577.28L509.222 582.197L507.271 585.147L502.394 590.064V592.031L496.541 590.064L493.615 587.114H489.713L486.786 583.18L481.909 582.197L476.056 576.296L473.13 575.313L470.203 572.363L469.228 568.429L467.277 564.495L466.302 561.545L467.277 558.595L463.375 551.711V548.761L460.449 543.844L455.571 539.91L451.669 538.927L446.792 533.026V531.059L442.89 528.109L438.988 524.175L436.062 522.209L433.135 520.242L430.209 517.291V513.358L428.258 512.374L426.307 511.391L423.381 508.441V505.49L506.296 509.424L510.198 384.531Z" fill="#85A2F2" stroke="black" stroke-width="1.2" stroke-linecap="round" stroke-linejoin="round"/>
<path fill-rule="evenodd" clip-rule="evenodd" d="M796.987 416.983L930.627 401.249V394.365L931.603 393.382L935.505 394.365L936.48 388.464L942.333 383.547H947.21L954.039 375.68H957.941L958.916 370.763H960.867L961.843 367.813L964.769 366.829L965.744 368.796H967.695L969.646 363.879L974.524 362.896L976.475 363.879L979.401 356.995L981.352 355.028H982.327V348.145L939.407 355.028L937.456 356.995L847.712 365.846H841.859L842.835 368.796V370.763L812.595 373.713L811.619 374.697L809.668 372.73V374.697L810.644 378.63H808.693L809.668 381.581H807.718L809.668 384.531L807.718 385.514L806.742 388.464L808.693 389.448L809.668 390.431H806.742V392.398L807.718 393.382L802.84 396.332L803.816 400.265V402.232H801.865L800.889 406.166L799.914 409.116L801.865 413.05H798.938L796.987 416.983Z" fill="#85A2F2" stroke="black" stroke-width="1.2" stroke-linecap="round" stroke-linejoin="round"/>
<path fill-rule="evenodd" clip-rule="evenodd" d="M964.769 394.365L957.941 397.315L955.99 400.265L953.063 406.166L957.941 408.133L958.916 409.116L961.843 411.083L965.744 410.099V413.05L968.671 415.017L969.646 417.967L970.622 418.95L973.548 420.917L974.524 423.867H976.475L977.45 425.834L982.327 427.801L985.254 432.718H988.18L991.107 435.668V437.635L994.033 438.618V440.585L995.984 441.569V443.535H998.911L1003.79 446.486V448.453L1005.74 451.403L1006.71 455.336L1007.69 457.303H1010.62L1011.59 459.27L1014.52 463.204V467.137L1016.47 470.088L1017.44 469.104H1019.4H1021.35L1022.32 466.154V463.204L1024.27 465.171L1021.35 460.254L1019.4 456.32L1020.37 455.336L1023.3 460.254L1025.25 461.237L1024.27 457.303L1026.22 459.27L1027.2 462.22L1029.15 460.254L1028.17 457.303L1026.22 456.32L1024.27 455.336L1028.17 454.353L1031.1 455.336L1033.05 453.37V451.403H1035.98L1038.9 449.436L1040.86 447.469L1038.9 445.502V443.535H1040.86L1041.83 445.502L1043.78 443.535L1045.73 441.569V437.635L1047.68 436.652L1049.64 437.635L1051.59 434.685L1050.61 432.718L1054.51 430.751L1051.59 429.768V426.817L1053.54 423.867V428.784L1056.46 419.934L1059.39 415.017L1064.27 410.099L1035.98 389.448L1010.62 393.381L1009.64 389.448L1005.74 386.498L1003.79 388.464L1002.81 385.514L973.548 389.448L969.646 391.415L966.72 392.398L965.744 394.365H964.769Z" fill="#85A2F2" stroke="black" stroke-width="1.2" stroke-linecap="round" stroke-linejoin="round"/>
<path fill-rule="evenodd" clip-rule="evenodd" d="M539.714 207.294C524.998 207.04 495.566 205.55 495.566 205.55L496.541 151.462H497.517L498.492 126.877C498.492 126.877 552.837 127.86 580.432 127.86C602.261 127.86 646.764 126.877 646.764 126.877L645.789 129.827L643.838 132.777L640.911 134.744L643.838 140.645L647.74 141.628L649.691 144.578L650.666 192.765H647.74V194.732L649.691 196.699L648.715 199.649L650.666 201.616L649.691 209.483L647.74 212.434L650.666 219.318H648.715L646.764 216.367V214.401H643.838L642.862 213.417L639.936 212.434H637.01L634.083 209.483L629.206 210.467H622.377L620.426 212.434H617.5L609.696 207.517C609.696 207.517 563.041 207.696 539.714 207.294Z" fill="#85A2F2" stroke="black" stroke-width="1.2" stroke-linecap="round" stroke-linejoin="round"/>
<path fill-rule="evenodd" clip-rule="evenodd" d="M1159.86 159.329L1163.77 173.097V177.031L1165.72 176.047L1167.67 174.081H1170.59V172.114V170.147L1169.62 168.18L1170.59 166.213H1168.64L1169.62 164.246L1168.64 162.28L1169.62 161.296V159.329H1168.64L1167.67 156.379L1159.86 159.329Z" fill="#85A2F2" stroke="black" stroke-width="1.2" stroke-linecap="round" stroke-linejoin="round"/>
<path d="M1231.51 772.586L1232.39 773.248L1232.27 773.358L1231.75 773.485L1232.18 773.719L1231.7 773.932L1231.26 773.976L1230.92 773.829L1230.64 773.497L1230.31 773.62L1231.05 774.289L1231.27 774.661V775.223L1230.24 774.428L1227.58 773.295L1227.53 773.105L1228.69 772.681L1230.14 772.448L1231.51 772.586ZM1234 782.282L1233.72 782.599L1232.43 782.987L1232.15 783.22L1231.48 784.178L1231.33 784.551L1230.99 784.677L1230.43 784.428L1229.79 784.84L1229.04 785.556L1225.62 787.793L1225.01 788.451L1223.91 788.49L1222.49 789.206L1221.04 789.499L1219.8 788.363L1220.54 788.058L1220.77 788.015L1221.69 787.583L1222.51 786.879L1223.18 786.047L1223.65 785.236L1224.02 784.84L1227.58 782.836L1228.23 782.721L1230.07 782.678L1232.62 781.85L1233.34 781.875L1234 782.282ZM1144.91 793.443L1150.25 792.738L1154.97 790.355L1155.67 790.205L1157.69 790.208L1158.4 789.987L1160.12 788.929L1162.74 787.742L1164.06 787.421L1165.47 787.461L1166.2 787.021L1169.27 785.976L1171.35 785.869L1175.11 783.617L1179.24 783.427L1181.18 781.993L1183.98 781.898L1184.37 781.324L1185.02 781.197L1185.52 781.518L1185.78 781.732L1186.25 781.76L1186.62 781.336L1186.81 780.702L1187.34 780.671L1187.43 781.411L1188.52 781.57L1188.84 781.993L1189.37 782.512L1190.1 782.282L1191.5 781.253L1191.36 780.888L1190.53 781.043L1189.52 780.936L1188.6 780.485L1187.78 780.093L1191.27 779.966L1192.09 779.839L1192.71 779.8L1193.53 779.705L1194.09 779.123L1194.28 778.331L1195.44 778.184L1197.83 778.018L1198.41 777.266L1199 777.167L1199.76 777.393L1201.4 777.171L1202.4 777.334L1203.59 777.939L1204.02 777.516L1204.2 776.882H1204.51L1204.65 777.103L1204.51 777.499L1204.46 777.939L1204.79 777.722L1205.22 777.321L1205.44 777.029L1206.67 777.931L1207.62 778.066L1208.08 777.373L1209.73 777.939L1211.45 777.555L1212.07 776.653L1212.33 776.154L1212.62 775.753L1213.03 775.71L1213.19 776.035L1213.61 778.699L1214.25 780.814L1214.68 781.336L1214.69 782.029L1215.17 782.254L1215.6 782.282L1216.15 781.716L1216.18 782.223L1216.46 782.531L1217.31 783.125L1216.92 783.656L1217.02 784.108L1216.61 784.305L1215.88 783.739L1215.35 783.929V784.507L1216.08 784.994L1215.74 785.541L1215.15 785.66L1214.2 785.521L1213.46 786.119L1212.76 786.839L1211.89 787.421L1211.25 788.058L1210.7 789.171L1209.95 792.414L1210.3 793.791L1209.95 794.9L1209.76 795.149L1208.76 795.795L1208.61 796.187L1209.62 797.489L1209.01 798.673L1207.61 800.439L1205.44 802.201L1204.36 802.549L1203.21 802.731L1202.19 802.977L1201.64 803.329L1200.44 804.378L1200.13 804.544L1198.65 805.016L1197.75 805.625L1195.49 808.135L1194.89 808.397L1194.39 808.562L1193.93 808.756L1193.63 809.144L1193.31 808.911L1193.22 808.82L1193.1 808.59L1193.56 808.238L1193.6 807.929L1193.3 807.699L1192.72 807.549L1192.09 808.729L1191.62 809.077L1190.87 809.129L1189.51 809.469L1189.01 809.521L1188.66 809.311L1188.36 809.045L1188.02 808.832L1187.3 808.729L1186.85 808.796L1186.1 809.129L1185.06 809.759L1184.03 811.191L1183.02 811.441L1181.84 811.029L1180.75 810.376L1179.74 810.154L1178.92 810.665L1178.28 810.985L1177.86 811.441L1177.21 811.825L1175.67 812.47L1175.25 812.91L1174.89 813.397L1174.36 813.709L1173.47 813.619L1173.2 813.939L1172.9 814.189L1172.38 813.725L1171.54 813.979L1169.69 814.937L1169.28 814.948L1167.66 814.897L1165.7 815.586L1165.49 814.885L1165 814.81L1164.41 815.21L1163.93 815.804L1164.06 816.156L1164.73 815.918L1164.42 816.873L1163.65 817.74L1162.67 818.441L1161.73 818.952L1160.2 819.427L1159.52 819.755L1158.97 819.894L1158.72 820.005L1158.6 820.258L1158.64 820.642L1158.78 821.144L1157.85 821.35L1157.01 821.089L1155.52 820.293L1154.52 820.57L1153.4 820.784L1152.23 821.188L1151.48 821.212L1151.01 822.019L1150.38 822.725L1149.72 823.132L1149.12 823.251L1147.41 823.655L1146.16 823.425L1145.78 824.007L1146.5 825.068L1145.98 825.203L1144.92 824.364L1144.52 823.995L1144.05 822.57L1145.01 821.631L1145.28 821.35L1145.7 821.07L1145.98 820.753L1146.02 820.313L1145.73 820.095L1145.19 820.005L1144.58 820.341L1143.88 820.274L1143.59 819.34L1143.75 818.741L1144.11 818.243L1143.74 817.799L1143.26 817.035L1143.59 816.35L1143 814.703L1142.88 812.708L1143.11 812.177L1143.38 811.655L1143.45 810.998L1142.95 810.554L1142.16 810.225L1140.57 808.068L1139.82 807.292L1138.65 807.458L1137.73 807.525L1136.47 806.286L1135.73 805.72L1135.06 804.948L1135.02 804.584L1136.25 803.697L1137.19 802.842L1137.95 802.157L1138.49 801.495L1139.35 800.141L1139.04 798.986L1138.22 798.305L1137.73 797.049L1138.21 795.569L1140.35 794.08L1142.93 793.284L1144.91 793.443ZM1111.42 830.342L1111.01 830.551L1110.53 830.659L1110.27 830.591L1109.81 830.235L1108.19 829.922L1107.64 829.36L1107.71 828.508L1108.17 828.01L1110.92 827.012L1111.23 826.989L1111.94 827.321L1112.09 827.661L1111.92 828.085L1111.74 829.154L1111.59 829.439L1111.51 829.708L1111.59 830.147L1111.42 830.342Z" fill="#85A2F2" stroke="black" stroke-width="1.2" stroke-linecap="round" stroke-linejoin="round"/>
<path fill-rule="evenodd" clip-rule="evenodd" d="M982.328 198.666L988.18 235.052L993.058 259.637L1092.56 239.969L1093.53 237.019L1095.48 235.052H1100.36L1101.34 233.085L1104.26 231.118V229.152L1111.09 223.251V221.284L1105.24 217.351H1103.29L1102.31 213.417L1099.38 214.4L1098.41 210.467L1099.38 207.517L1100.36 205.55L1098.41 203.583V201.616L1100.36 199.649L1102.31 195.716V193.749L1105.24 190.799L1103.29 188.832H1100.36H1097.43L1095.48 185.881V183.915V180.964L1092.56 178.998L1090.61 179.981L1089.63 178.014L1086.7 177.031L997.935 195.716L996.96 188.832L982.328 198.666Z" fill="#85A2F2" stroke="black" stroke-width="1.2" stroke-linecap="round" stroke-linejoin="round"/>
<path fill-rule="evenodd" clip-rule="evenodd" d="M224.384 206.533L232.187 157.363L234.138 153.429V150.479L236.089 148.512L234.138 146.545L230.236 145.562L231.212 139.661L236.089 133.761L239.991 129.827L240.967 126.877L244.869 120.976L245.844 119.009L250.721 113.109L249.746 108.192L243.893 103.275V100.325L202.923 93.4408L199.997 95.4076L191.217 93.4408L188.291 94.4242L179.512 95.4076L174.634 96.391L169.757 95.4076L162.929 96.391L161.953 95.4076L158.051 96.391L157.076 93.4408L152.198 91.4739L146.346 90.4905L136.591 93.4408L133.664 91.4739L126.836 89.5071V87.5403L127.812 80.6564L125.861 75.7393L122.934 72.7891L120.008 73.7725H117.081L116.106 70.8223L112.204 71.8057L110.253 70.8223L109.278 72.7891L106.351 69.8389V74.7559L104.4 76.7228V80.6564L105.376 82.6232L103.425 84.5901L104.4 88.5237H102.449L96.5964 105.242L95.621 108.192L96.5964 110.159L95.621 112.126L94.6455 114.092V116.059L92.6945 118.026L90.7436 126.877L88.7926 131.794L89.7681 133.761L87.8172 134.744L84.8907 139.661H86.8417V142.611L84.8907 141.628L82.9398 144.578L81.9643 142.611L79.0379 149.495L76.1115 155.396L77.0869 159.329L76.1115 165.23L75.136 171.13V175.064L77.0869 178.998L162.929 196.699L224.384 206.533Z" fill="#85A2F2" stroke="black" stroke-width="1.2" stroke-linecap="round" stroke-linejoin="round"/>
<path fill-rule="evenodd" clip-rule="evenodd" d="M512.149 369.78C512.149 369.78 572.27 371.426 602.33 371.265C633.724 371.098 696.513 368.796 696.513 368.796L697.489 383.547L702.366 412.066L704.317 461.237L698.464 460.253L695.538 458.287L692.612 455.336L689.685 454.353L686.759 453.37L682.857 455.336L678.955 454.353L673.102 456.32H671.151L666.274 457.303L665.298 460.253H663.347L660.421 459.27L657.494 458.287L655.543 456.32L652.617 457.303L647.74 454.353L643.838 461.237L641.887 456.32L637.985 458.287L635.058 456.32H633.108L632.132 453.37L626.279 458.287L624.328 454.353L621.402 453.37V450.419H615.549L612.623 452.386L609.696 449.436L606.77 450.419L600.917 448.453H596.04V445.502L592.138 441.569L591.162 443.535H589.211L586.285 444.519L583.358 441.569L580.432 438.618H577.505V385.514L512.149 384.531V369.78Z" fill="#85A2F2" stroke="black" stroke-width="1.2" stroke-linecap="round" stroke-linejoin="round"/>
<path fill-rule="evenodd" clip-rule="evenodd" d="M895.51 220.301L904.29 291.107L906.24 289.14L909.167 291.107L911.118 289.14L913.069 291.107H915.02L917.946 297.007L920.873 297.99L925.75 297.007L928.676 299.957L930.627 300.941L932.578 297.99H936.48L938.431 299.957L939.407 298.974H942.333L943.309 297.007L947.21 294.057L949.161 298.974L953.063 299.957L955.014 302.907L956.965 301.924L960.867 299.957V297.007L962.818 296.024L961.843 291.107V289.14L962.818 286.189L964.769 284.223L966.72 285.206V287.173H967.695L969.646 285.206V283.239L968.671 282.256L969.646 280.289L970.622 276.355L972.573 275.372V273.405L975.499 271.438L977.45 273.405L981.352 269.471V266.521L986.229 263.571V259.637L987.205 253.737V248.82L988.18 244.886L987.205 241.936L988.18 238.986L985.254 237.019L988.18 235.052L982.327 198.666L966.72 208.5L959.892 216.367L956.965 217.351H953.063L949.161 219.317L946.235 220.301L945.259 222.268L939.407 221.284H937.456L935.505 222.268L932.578 221.284L938.431 218.334H936.48L934.529 219.317L929.652 217.351L924.774 216.367L922.824 215.384L895.51 220.301Z" fill="#85A2F2" stroke="black" stroke-width="1.2" stroke-linecap="round" stroke-linejoin="round"/>
<path fill-rule="evenodd" clip-rule="evenodd" d="M573.604 127.86C548.419 127.86 498.492 126.877 498.492 126.877L500.443 46.2369C500.443 46.2369 537.185 47.4968 555.556 47.635C580.756 47.8246 631.157 47.2204 631.157 47.2204L634.083 55.0876L633.108 58.0379V68.8554L638.961 82.6232L639.936 87.5403V95.4076L640.911 100.325V102.291L641.887 109.175L642.862 113.109L645.789 117.043L646.764 126.877C646.764 126.877 597.843 127.86 573.604 127.86Z" fill="#85A2F2" stroke="black" stroke-width="1.2" stroke-linecap="round" stroke-linejoin="round"/>
<path fill-rule="evenodd" clip-rule="evenodd" d="M982.328 349.128L1105.24 326.51L1109.14 330.443L1113.04 336.344L1108.16 332.41L1109.14 335.36L1104.26 332.41L1102.31 333.393L1107.19 336.344L1105.24 337.327L1101.34 336.344L1104.26 339.294L1098.41 336.344V338.31L1101.34 340.277L1098.41 342.244H1094.51L1093.53 338.31V334.377H1091.58V340.277L1093.53 343.228V346.178L1098.41 345.194L1100.36 343.228L1102.31 345.194L1105.24 344.211L1107.19 341.261L1109.14 344.211L1108.16 347.161L1110.11 348.145L1108.16 350.111H1111.09L1112.07 346.178L1111.09 343.228H1114.02L1114.99 341.261L1116.94 345.194V348.145V351.095L1114.99 350.111L1114.02 351.095L1112.07 356.995L1110.11 358.962H1106.21L1104.26 356.995L1102.31 358.962L1101.34 356.995L1103.29 355.028L1097.43 356.012L1099.38 358.962H1093.53L1089.63 357.979L1091.58 360.929L1097.43 361.912H1103.29V363.879L1099.38 365.846L1102.31 366.829L1099.38 370.763H1096.46L1090.61 367.813L1094.51 372.73L1098.41 373.713H1100.36L1102.31 370.763L1104.26 372.73L1109.14 369.78L1105.24 377.647L1102.31 375.68L1099.38 377.647L1094.51 380.597L1091.58 378.63V381.581L1088.65 385.514L1087.68 381.581H1085.73L1086.7 383.547L1085.73 384.531L1087.68 386.498L1083.78 389.448L1080.85 394.365L1078.9 399.282V402.232L1076.95 398.299V407.149H1070.12H1069.14L1067.19 409.116L1064.27 410.1L1035.98 389.448L1010.62 393.382L1009.64 389.448L1005.74 386.498L1003.79 388.464L1002.81 385.514L973.548 389.448L966.72 392.398L965.745 394.365H964.769L957.941 397.315L930.627 401.249V394.365L931.603 393.382L935.505 394.365L936.48 388.464L942.333 383.547H947.211L954.039 375.68H957.941L958.916 370.763H960.867L961.843 367.813L964.769 366.829L965.745 368.796H967.695L969.646 363.879L974.524 362.896L976.475 363.879L979.401 356.995L981.352 355.028H982.328V349.128Z" fill="#85A2F2" stroke="black" stroke-width="1.2" stroke-linecap="round" stroke-linejoin="round"/>
<path fill-rule="evenodd" clip-rule="evenodd" d="M225.125 207.064C245.363 210.165 285.839 215.384 285.839 215.384L266.329 371.746L265.354 373.713L263.403 377.647H260.476L259.501 373.713L257.55 374.697L254.623 372.73L250.721 374.697L249.746 378.63L250.721 381.58L249.746 383.547L250.721 388.464L249.746 391.415L250.721 396.332V400.265L248.771 401.249V405.182L148.297 276.355L162.929 196.699C162.929 196.699 204.718 203.937 225.125 207.064Z" fill="#85A2F2" stroke="black" stroke-width="1.2" stroke-linecap="round" stroke-linejoin="round"/>
<path fill-rule="evenodd" clip-rule="evenodd" d="M996.96 188.832L997.935 195.716L1086.7 177.031L1089.63 178.014L1090.61 179.981L1092.56 178.998L1095.48 180.964V185.882L1097.43 188.832H1103.29L1105.24 190.799L1122.8 196.699V195.716L1121.82 192.765L1119.87 190.799V187.848H1120.85L1121.82 189.815L1122.8 191.782L1123.77 192.765L1124.75 200.633L1127.67 197.682L1128.65 195.716L1126.7 192.765L1130.6 187.848L1128.65 185.882L1125.72 166.213H1124.75L1125.72 146.545L1124.75 145.562L1120.85 127.86V125.893L1118.89 123.927L1117.92 124.91L1116.94 125.893V123.927V119.993L1115.97 119.009V118.026L1114.99 117.043L1114.02 114.092H1113.04V109.175L1114.02 107.209L1112.07 104.258L1111.09 100.325L1110.11 98.3578V95.4076V93.4407L1109.14 92.4573V88.5237L1081.83 95.4076H1078.9L1074.02 99.3412L1072.07 102.291L1066.22 110.159L1065.24 112.126V115.076L1062.32 118.026L1055.49 124.91L1056.46 125.893H1059.39H1061.34L1062.32 126.877L1061.34 128.844L1059.39 131.794H1058.41L1060.37 133.761V135.727L1062.32 136.711L1061.34 137.694V139.661L1059.39 140.645H1057.44L1053.54 145.562L1052.56 147.528L1048.66 149.495L1047.68 150.479H1044.76H1041.83L1039.88 151.462L1035.98 153.429H1034.03L1032.08 151.462L1023.3 152.445L1021.35 153.429H1017.44L1005.74 158.346L1006.71 160.313V162.28V163.263H1010.62V165.23L1009.64 167.197L1011.59 169.163V171.13L1009.64 174.081L1007.69 178.014L1003.79 180.964L1001.84 183.915L996.96 188.832ZM1121.82 206.533L1120.84 207.517L1119.87 210.467L1121.82 209.483L1122.8 207.517L1121.82 206.533ZM1123.77 205.55V206.533L1124.75 207.517L1125.72 206.533L1126.7 205.55L1127.67 204.566L1129.62 205.55L1130.6 204.566L1138.4 200.633H1141.33V198.666H1143.28L1147.18 195.716L1152.06 194.732L1153.04 192.765L1152.06 191.782L1151.08 192.765L1150.11 191.782L1154.01 186.865L1153.04 185.882L1149.13 190.799L1148.16 191.782L1143.28 192.765H1141.33L1140.35 193.749H1139.38V194.732L1135.48 195.716L1134.5 196.699L1132.55 195.716V197.682L1131.58 196.699L1130.6 197.682V199.649L1128.65 200.633L1127.67 201.616H1125.72L1124.75 202.6L1123.77 205.55ZM1154.01 190.799V191.782H1154.99L1157.91 189.815L1158.89 187.848H1160.84L1163.77 184.898L1159.86 186.865H1158.89H1157.91L1155.96 187.848L1154.99 188.832L1154.01 190.799Z" fill="#85A2F2" stroke="black" stroke-width="1.2" stroke-linecap="round" stroke-linejoin="round"/>
<path fill-rule="evenodd" clip-rule="evenodd" d="M378.509 362.896C378.509 362.896 413.864 365.961 431.542 367.001C458.411 368.583 512.149 370.763 512.149 370.763V384.531H510.198L506.296 509.424L423.381 505.491V508.441L426.307 511.391L386.313 508.441L385.337 521.225L365.828 519.258L378.509 362.896Z" fill="#85A2F2" stroke="black" stroke-width="1.2" stroke-linecap="round" stroke-linejoin="round"/>
<path fill-rule="evenodd" clip-rule="evenodd" d="M1105.24 190.799L1122.8 196.699L1123.77 197.682L1122.8 201.616V204.566L1120.84 205.55L1119.87 207.517L1118.89 210.467L1119.87 212.434L1123.77 213.417H1125.72L1126.7 218.334L1125.72 223.251V226.201V229.152L1124.75 230.135L1125.72 232.102L1124.75 236.036L1123.77 237.019H1121.82L1123.77 239.969H1121.82V241.936L1122.8 242.919H1120.84L1119.87 244.886L1117.92 245.87L1119.87 246.853L1117.92 250.787V251.77L1116.94 252.754V254.72L1114.99 256.687V254.72V249.803H1113.04H1111.09L1109.14 250.787L1108.16 248.82H1105.24L1104.26 246.853H1102.31L1099.38 244.886V241.936L1098.41 240.953L1099.38 238.002V236.036H1100.36L1102.31 233.085L1104.26 231.118V229.152L1111.09 223.251V221.284L1105.24 217.351H1103.29L1102.31 213.417L1099.38 214.4L1098.41 210.467L1099.38 207.517L1100.36 205.55L1098.41 203.583V201.616L1100.36 199.649L1102.31 195.716V193.749L1105.24 190.799Z" fill="#85A2F2" stroke="black" stroke-width="1.2" stroke-linecap="round" stroke-linejoin="round"/>
<path fill-rule="evenodd" clip-rule="evenodd" d="M1142.31 143.595L1162.79 138.678L1165.72 137.694L1167.67 133.761H1168.64L1169.62 131.794L1171.57 130.81H1173.52V127.86L1174.5 125.893L1170.59 123.927V120.976L1166.69 119.009V116.059L1164.74 111.142L1151.08 69.8389L1150.11 71.8057L1147.18 70.8223L1146.21 71.8057V73.7725L1145.23 76.7228V79.673L1146.21 81.6398L1144.26 85.5735L1147.18 89.5071L1146.21 90.4905V92.4574L1143.28 97.3744L1142.31 98.3578H1140.35L1139.38 100.325L1140.35 103.275V110.159L1139.38 111.142V115.076L1138.4 117.043V119.993L1137.43 120.976L1138.4 126.877L1139.38 127.86L1138.4 131.794L1139.38 133.761V136.711L1138.4 137.694V140.645L1142.31 143.595Z" fill="#85A2F2" stroke="black" stroke-width="1.2" stroke-linecap="round" stroke-linejoin="round"/>
<path fill-rule="evenodd" clip-rule="evenodd" d="M535.56 260.621V289.14C535.56 289.14 574.452 289.586 593.898 289.318C621.925 288.931 677.979 287.173 677.979 287.173L676.029 285.206V283.239L674.078 280.289L671.151 278.322L669.2 273.405L667.249 272.422V268.488L665.298 266.521V262.588V254.72L663.347 252.754L665.298 251.77L662.372 249.803V246.853L659.445 243.903L660.421 238.002L658.47 236.036V233.085L656.519 232.102L655.544 229.152L653.593 228.168V224.235L652.617 219.318H648.715L646.764 216.367V214.401H643.838L642.862 213.417L639.936 212.434H637.01L634.083 209.483L629.206 210.467H627.255H622.377L620.426 212.434H617.5L609.696 207.517C609.696 207.517 561.884 207.676 537.978 207.264C523.841 207.02 495.566 205.55 495.566 205.55L493.615 260.621H535.56Z" fill="#85A2F2" stroke="black" stroke-width="1.2" stroke-linecap="round" stroke-linejoin="round"/>
<path fill-rule="evenodd" clip-rule="evenodd" d="M424.729 148.64C447.691 150.236 497.517 151.462 497.517 151.462L500.443 46.237C500.443 46.237 464.501 44.9836 426.355 42.248C403.543 40.6122 379.943 37.8146 362.769 36.1937C332.248 33.3132 271.207 25.5853 271.207 25.5853L267.305 50.1706L271.207 56.0711L273.158 60.9882L272.182 62.955L273.158 65.9052H272.182L276.084 70.8223L279.01 72.7891L285.839 81.6398L284.863 83.6067L288.765 87.5403H290.716V90.4905H296.569L292.667 102.291L290.716 103.275L291.692 111.142L288.765 112.126V118.026L292.667 121.96L300.471 116.059L302.422 119.993L304.373 127.86L308.275 135.728L307.299 139.661L310.226 142.611H313.152L315.103 150.479L319.005 154.412L320.956 151.462L327.784 153.429L329.735 150.479L338.514 151.462L339.49 152.446H345.343L347.294 148.512H349.245L354.122 155.396L355.097 154.412L356.073 141.628C356.073 141.628 400.543 146.958 424.729 148.64Z" fill="#85A2F2" stroke="black" stroke-width="1.2" stroke-linecap="round" stroke-linejoin="round"/>
<path fill-rule="evenodd" clip-rule="evenodd" d="M702.332 269.429C690.638 270.099 667.249 270.455 667.249 270.455V272.422L669.2 273.405L671.151 278.322L674.078 280.289L676.029 283.239V285.206L677.979 287.173L682.857 290.123L684.808 289.14L686.759 290.123L687.734 293.073L685.783 294.057L684.808 296.024L682.857 298.974L684.808 300.941L687.734 302.908V304.874L689.685 307.825H692.612L694.563 308.808L696.514 368.796L697.489 382.564L796.012 375.68L798.938 378.63V380.597L794.061 387.481L793.085 388.464V389.448V390.431L806.742 388.464L807.718 385.514L809.669 384.531L807.718 381.58H809.669L808.693 378.63H810.644L809.669 374.697V372.73L811.62 374.697L812.595 373.713L813.57 370.763V369.78L816.497 371.746L817.472 368.796L818.448 365.846L817.472 363.879L818.448 359.945H816.497L814.546 357.979V359.945L811.62 358.962V356.995L808.693 353.062V352.078L809.669 349.128V348.144L807.718 346.178V342.244L803.816 340.277L801.865 337.327H800.889L796.987 335.36L795.036 334.377L787.233 328.476V324.543L790.159 316.675V313.725L791.135 311.758L788.208 308.808H784.306L781.38 311.758L779.429 309.791L777.478 304.874V301.924L775.527 298.974L769.674 296.024L768.699 294.057L762.846 289.14L761.87 287.173L760.895 285.206L759.919 283.239L757.968 277.339L758.944 273.405L759.919 271.438L753.091 265.538C753.091 265.538 719.252 268.46 702.332 269.429Z" fill="#85A2F2" stroke="black" stroke-width="1.2" stroke-linecap="round" stroke-linejoin="round"/>
<path fill-rule="evenodd" clip-rule="evenodd" d="M843.81 412.066L844.786 414.033L846.737 415.017V482.872V499.59L852.589 538.927L851.614 541.877L847.712 539.91L846.737 540.893H843.81L839.908 538.927L836.006 541.877L833.08 543.844L830.153 541.877V543.844L829.178 546.794L824.301 547.777V545.81L822.35 540.893L819.423 537.943L818.448 534.993L819.423 528.109V526.142L775.527 530.076V526.142L774.551 522.209H776.502L777.478 520.242L776.502 516.308L778.453 513.358L780.404 506.474L786.257 501.557L785.282 497.623H786.257L788.208 491.723L784.306 488.773V485.822L782.355 482.872L784.306 481.889L783.331 480.905L782.355 478.938L784.306 475.988L781.38 474.021V471.071L783.331 469.104L781.38 466.154V461.237L779.429 459.27L781.38 457.303L779.429 455.337L782.355 451.403L781.38 446.486L785.282 444.519L786.257 443.536L784.306 441.569L788.208 437.635V435.668L791.134 433.701V424.851H794.061V421.901L796.987 419.934V416.983L843.81 412.066Z" fill="#85A2F2" stroke="black" stroke-width="1.2" stroke-linecap="round" stroke-linejoin="round"/>
<path fill-rule="evenodd" clip-rule="evenodd" d="M756.993 186.865L650.666 192.765L649.691 144.578L647.74 141.628L643.838 140.645L640.911 134.744L643.838 132.777L645.789 129.827L646.764 126.877L645.789 117.043L642.862 113.109L641.887 109.175L640.911 102.291V100.325L639.936 95.4076V87.5403L638.961 81.6398L633.108 68.8554V58.0379L634.083 55.0877L631.157 47.2204L671.151 45.2536V35.4194L675.053 36.4028L677.004 39.3531L678.955 45.2536V49.1872L681.881 52.1374H687.734L688.71 53.1209L696.514 54.1043L697.489 57.0545L700.415 56.0711H704.317L705.293 54.1043L708.219 53.1209H714.072L716.023 54.1043H719.925V56.0711H717.974L718.949 57.0545H722.851L723.827 60.9882L725.778 61.9716L726.753 62.955L727.729 59.0213H731.631L732.606 61.9716H734.557H737.483L738.459 64.9218H740.41L741.385 66.8886L746.263 64.9218L748.214 63.9384L754.067 60.0047L756.993 63.9384L760.895 62.955L769.674 61.9716L772.601 64.9218L774.552 63.9384H778.453L771.625 68.8554L760.895 72.7891L754.067 78.6896L746.263 87.5403L738.459 95.4076L733.582 98.3578L732.606 101.308L731.631 103.275H729.68L730.655 113.109V119.009L727.729 120.976L722.851 123.927L721.876 126.877L719.925 129.827V132.777L722.851 133.761L724.802 136.711L723.827 140.645L722.851 143.595L723.827 145.562L722.851 146.545L723.827 148.512L722.851 154.412L727.729 158.346H731.631L734.557 161.296L738.459 162.28L742.361 166.213L745.287 170.147L748.214 172.114H752.116L756.017 176.047L756.993 178.998V186.865Z" fill="#85A2F2" stroke="black" stroke-width="1.2" stroke-linecap="round" stroke-linejoin="round"/>
<path fill-rule="evenodd" clip-rule="evenodd" d="M853.565 224.235L895.51 218.334V220.301L922.823 215.384V212.434L926.725 207.517V200.633L928.676 196.699L931.603 195.716L930.627 191.782L933.554 189.815L932.578 187.848L934.529 186.865L937.456 189.815L939.407 178.014L935.505 173.097L932.578 163.263L929.652 155.396L927.701 151.462H923.799L919.897 154.412H917.946L915.02 162.28H913.069L912.093 165.23H909.167L904.289 164.246L905.265 156.379L909.167 154.412L911.118 152.446V148.512L913.069 146.545L915.02 144.578L914.044 133.761L912.093 129.827L909.167 127.86L910.142 124.91L913.069 125.893L911.118 122.943H909.167V119.01H905.265L902.339 118.026L899.412 117.043H893.559L892.584 114.092L889.657 113.109H886.731L880.878 111.142L877.952 113.109L875.025 116.059V119.01L876.001 119.993L879.903 120.976L878.927 121.96L873.074 123.927L870.148 125.893L871.123 130.81V136.711L869.172 140.645L867.221 139.661L866.246 137.694V132.777V128.844L863.32 134.744L862.344 136.711H860.393L857.467 138.678L858.442 141.628L854.54 143.595L856.491 146.545V153.429L854.54 157.363L851.614 161.296L854.54 165.23V168.18L852.589 172.114L854.54 177.031L857.467 180.965L858.442 181.948H860.393L859.418 184.898L861.369 189.815L862.344 192.765V205.55L859.418 212.434L857.467 217.351L856.491 222.268L853.565 224.235ZM826.252 136.711L832.104 122.943L835.031 118.026L836.006 112.126L837.957 115.076V118.026L840.884 114.092L844.786 112.126L845.761 116.059L842.835 119.01L843.81 119.993L848.687 114.092L850.638 111.142L854.54 109.175L857.467 110.159L862.344 108.192L864.295 105.242L871.123 104.258L876.976 106.225L879.903 109.175L881.854 103.275H886.731L894.535 104.258L897.461 103.275H900.388H904.29V101.308L902.339 99.3413L900.388 102.292H896.486L893.559 100.325L891.608 99.3413L889.657 98.3579V96.3911L890.633 93.4408L889.657 89.5072L886.731 91.474L882.829 93.4408H880.878L879.903 92.4574L876.976 93.4408L872.099 92.4574V85.5735L868.197 86.5569L862.344 90.4906L855.516 89.5072L849.663 91.474L843.81 96.3911L841.859 98.3579L838.933 97.3745L836.982 99.3413L834.055 96.3911L829.178 99.3413L826.252 98.3579L820.399 90.4906L814.546 89.5072L810.644 90.4906L804.791 94.4242L803.816 87.5403L807.717 82.6233L812.595 77.7062L811.619 76.7228L817.472 74.756H814.546L808.693 75.7394L802.84 79.673L800.889 82.6233L797.963 83.6067L796.012 86.5569L794.061 89.5072H791.134L787.233 93.4408L778.453 95.4076L776.502 98.3579L773.576 100.325L766.748 103.275L770.649 104.258L773.576 108.192L796.987 113.109L800.889 115.076L805.767 114.092L811.619 115.076L814.546 116.059V119.01H817.472L820.399 120.976L822.35 125.893L820.399 129.827H821.374L824.301 128.844H825.276L823.325 134.744L826.252 136.711Z" fill="#85A2F2" stroke="black" stroke-width="1.2" stroke-linecap="round" stroke-linejoin="round"/>
<path fill-rule="evenodd" clip-rule="evenodd" d="M1124.75 166.213H1125.72L1138.4 163.263L1139.38 164.246L1159.86 158.346V159.329L1167.67 156.379L1168.64 159.329H1169.62H1170.59V162.28L1173.52 163.263L1174.5 160.313H1175.47V162.28L1174.5 164.246L1175.47 168.18L1176.45 169.164L1177.42 167.197L1178.4 166.213L1179.37 167.197L1180.35 165.23V163.263H1181.32L1183.28 161.296V159.329H1185.23L1186.2 161.296V164.246H1188.15L1189.13 162.28L1190.1 161.296L1193.03 160.313L1198.88 157.363V154.412L1197.91 153.429L1196.93 151.462L1194.98 148.512H1194.01L1194.98 150.479C1194.98 150.479 1197.23 152.625 1197.87 153.698C1198.21 154.264 1197.91 155.396 1197.91 155.396L1194.98 156.379L1194.01 157.363L1193.03 158.346H1191.08H1187.18L1186.2 156.379V153.429L1184.25 154.412L1181.32 153.429L1182.3 150.479L1178.4 146.545L1176.45 147.528L1175.47 148.512L1173.52 147.528L1172.55 146.545V144.578L1173.52 143.595V142.611L1175.47 141.628L1174.5 140.645V138.678L1178.4 137.694L1179.37 135.727L1177.42 136.711L1175.47 135.727L1174.5 134.744V132.777H1172.55L1173.52 130.81H1171.57L1169.62 131.794C1169.62 131.794 1168.97 133.105 1168.64 133.761H1167.67L1165.72 137.694L1162.79 138.678L1142.31 143.595L1125.72 146.545L1124.75 166.213ZM1185.23 169.164V171.13L1187.18 169.164L1191.08 168.18L1188.15 166.213L1187.18 168.18L1185.23 169.164ZM1197.91 168.18L1198.88 169.164H1200.83L1201.81 168.18L1200.83 166.213L1199.86 168.18H1197.91ZM1173.52 165.23L1172.55 167.197L1173.52 170.147L1174.5 169.164L1173.52 165.23Z" fill="#85A2F2" stroke="black" stroke-width="1.2" stroke-linecap="round" stroke-linejoin="round"/>
<path fill-rule="evenodd" clip-rule="evenodd" d="M1014.52 255.704L1017.44 269.472L1021.35 265.538L1023.3 262.588L1024.27 260.621H1027.2L1030.13 257.671V254.72L1032.08 257.671H1035L1036.95 256.687L1037.93 253.737H1040.86L1041.83 251.77L1042.81 250.787L1046.71 252.754L1050.61 251.77L1049.64 253.737H1050.61L1051.59 255.704L1053.54 256.687V258.654H1057.44L1060.37 259.637L1059.39 262.588L1061.34 264.555H1065.24L1066.22 266.521H1069.14L1070.12 264.555L1073.05 267.505L1072.07 269.472V271.438L1071.1 273.405V275.372L1069.14 278.322V281.273H1071.1V278.322L1073.05 279.306L1074.02 278.322L1075.97 281.273L1077.92 282.256L1076.95 279.306L1078.9 281.273L1079.87 283.239L1082.8 282.256L1084.75 283.239L1085.73 284.223L1087.68 283.239L1089.63 286.19L1090.61 284.223L1087.68 281.273H1086.7L1083.78 279.306L1081.83 278.322L1079.87 275.372V271.438L1081.83 275.372L1083.78 277.339L1087.68 279.306V278.322L1083.78 274.389V271.438L1081.83 269.472V267.505V264.555L1079.87 263.571L1081.83 262.588L1078.9 261.604L1081.83 258.654L1077.92 255.704L1079.87 254.72L1080.85 255.704V253.737L1082.8 251.77L1081.83 250.787L1083.78 249.803L1084.75 251.77V247.837L1085.73 249.803L1087.68 248.82L1086.7 246.853L1087.68 244.886L1089.63 242.919L1090.61 245.87L1092.56 243.903V245.87L1090.61 247.837L1093.53 248.82L1092.56 249.803L1088.65 250.787L1086.7 253.737V257.671L1088.65 256.687H1089.63L1088.65 260.621L1087.68 261.604H1085.73V263.571L1089.63 261.604L1090.61 263.571L1089.63 265.538H1091.58L1090.61 267.505L1089.63 268.488L1092.56 270.455L1094.51 269.472L1095.48 271.438L1089.63 272.422L1090.61 274.389L1089.63 276.355L1093.53 277.339L1095.48 280.289V277.339H1097.43L1099.38 274.389V277.339V279.306H1100.36L1099.38 281.273H1101.34L1102.31 283.239L1101.34 286.19L1106.21 285.206L1111.09 283.239V280.289L1113.04 279.306L1112.07 276.355L1114.99 275.372V273.405L1113.04 270.455L1101.34 273.405L1092.56 239.969L1014.52 255.704Z" fill="#85A2F2" stroke="black" stroke-width="1.2" stroke-linecap="round" stroke-linejoin="round"/>
<path fill-rule="evenodd" clip-rule="evenodd" d="M1170.59 4.93365L1161.81 27.5521L1162.79 34.436L1160.84 37.3863V39.3531L1159.86 42.3033L1161.81 43.2867L1160.84 44.2701V48.2038H1162.79L1160.84 52.1374V55.0877L1157.91 59.0213L1156.94 61.9716L1158.89 63.9384L1157.91 65.9052L1155.96 64.9218V65.9052V69.8389L1153.04 66.8886L1151.08 69.8389L1166.69 116.059V119.009L1170.59 120.976V123.927L1174.5 125.893L1175.47 120.976L1174.5 117.043L1177.42 115.076L1178.4 114.092L1177.42 110.159L1180.35 109.175L1178.4 105.242L1182.3 100.325H1184.25V103.275L1185.23 101.308L1187.18 103.275L1188.15 101.308L1183.28 95.4076L1188.15 99.3412V94.4242L1191.08 99.3412L1193.03 92.4573L1195.96 94.4242L1197.91 92.4573L1198.88 88.5237L1197.91 81.6398L1198.88 79.673L1200.83 76.7227L1201.81 78.6896L1203.76 81.6398H1206.69L1207.66 77.7062L1210.59 78.6896L1212.54 80.6564L1214.49 74.7559L1212.54 72.7891L1216.44 74.7559L1219.37 72.7891L1222.29 66.8886H1224.25L1228.15 64.9218L1233.02 60.9882L1234 57.0545L1231.07 58.0379V54.1043L1227.17 51.154L1225.22 52.1374L1221.32 50.1706L1220.34 48.2038L1219.37 45.2536L1220.34 42.3033L1218.39 41.3199H1213.52L1211.56 40.3365L1210.59 34.436L1200.83 5.91706L1195.96 3.95024L1193.03 1L1189.13 1.98341L1187.18 4.93365L1183.28 6.90047L1179.37 8.8673L1176.45 7.88389L1175.47 3.95024L1170.59 4.93365Z" fill="#85A2F2" stroke="black" stroke-width="1.2" stroke-linecap="round" stroke-linejoin="round"/>
<path fill-rule="evenodd" clip-rule="evenodd" d="M716.023 477.955L781.38 474.021L784.306 475.988L782.355 478.938L783.331 480.905L784.306 481.889L782.355 482.872L784.306 485.822V488.772L788.208 491.723L786.257 497.623H785.282L786.257 501.557L780.404 506.474L778.453 513.358L776.502 516.308L777.478 520.242L776.502 522.208H774.551L775.527 526.142V530.076L819.423 526.142V528.109L818.448 534.993L819.423 537.943L822.35 540.893L824.301 546.794V547.777H821.374L816.497 546.794L813.57 543.844H809.669L804.791 549.744L805.767 552.694L809.669 553.678L813.57 554.661L819.423 550.727H823.325L822.35 552.694L819.423 553.678L820.399 555.644H822.35L824.301 557.611L826.252 555.644L828.203 551.711L830.153 555.644L831.129 557.611H828.203L826.252 561.545L823.325 560.562L824.301 563.512L822.35 564.495L829.178 569.412L836.982 571.379L840.884 576.296L837.957 579.246L835.031 576.296L834.055 577.28L831.129 574.329L827.227 573.346L826.252 571.379L823.325 572.362L820.399 568.429L814.546 566.462H811.619L812.595 568.429L815.521 570.396V573.346V576.296L813.57 579.246L811.619 577.28V575.313L807.718 573.346L804.791 574.329L802.84 575.313L801.865 579.246L795.036 578.263H792.11L787.233 577.28V575.313L791.134 576.296L790.159 574.329L787.233 571.379L788.208 568.429L787.233 567.445L785.282 570.396L781.38 569.412L780.404 568.429L779.429 566.462L778.453 567.445L777.478 564.495L772.6 565.479V562.528H769.674L765.772 564.495L763.821 565.479L766.748 568.429L762.846 571.379H753.091L744.312 566.462L738.459 565.479L734.557 566.462L726.753 568.429H724.802L723.827 566.462L726.753 565.479V562.528V560.562V558.595L727.729 554.661L725.778 550.727L726.753 548.761V545.81L728.704 541.877L729.68 538.926V533.026L730.655 532.043L729.68 531.059V528.109L726.753 525.159V522.208L724.802 520.242V519.258L722.851 517.291V513.358L719.925 509.424L716.998 506.474L716.023 477.955Z" fill="#85A2F2" stroke="black" stroke-width="1.2" stroke-linecap="round" stroke-linejoin="round"/>
<path fill-rule="evenodd" clip-rule="evenodd" d="M812.595 373.713L842.835 370.763V368.796L841.859 365.846H847.712L937.456 356.995L939.407 355.029L950.137 349.128L951.112 346.178L955.99 344.211V342.244L957.941 340.277V337.327L964.769 333.393L971.597 324.543V323.559H968.671L963.794 320.609L959.892 315.692L958.916 313.725L955.014 309.792L955.99 305.858L955.014 302.908L953.063 299.957L949.161 298.974L947.21 294.057L943.309 297.007L942.333 298.974H939.407L938.431 299.957L936.48 297.991H932.578L930.627 300.941L928.676 299.957L925.75 297.007L920.873 297.991L917.946 297.007L916.971 295.04L915.02 291.107H913.069L911.118 289.14L909.167 291.107L906.241 289.14L903.314 292.09L904.29 294.057V296.024L906.241 297.007V299.957H903.314L898.437 302.908L896.486 301.924L892.584 302.908L893.559 307.825L891.608 310.775H889.657V314.709L887.707 315.692H885.756L884.78 319.626V323.559L881.854 325.526L878.927 323.559L876.001 322.576L875.025 320.609L873.074 323.559L871.123 327.493L870.148 330.443L868.197 329.46L865.271 327.493L862.344 328.476L861.369 329.46L859.418 333.393L857.467 331.427L852.589 329.46L849.663 331.427L848.688 329.46V332.41L847.712 333.393L846.737 331.427L844.786 332.41L841.859 331.427V335.36H838.933L837.957 337.327L836.982 340.277L838.933 342.244V344.211L831.129 347.161L830.154 350.111L832.104 353.062L833.08 355.029L831.129 356.012H830.154L823.325 353.062H820.399L818.448 355.029L816.497 357.979L817.472 358.962L816.497 359.946H818.448L817.472 363.879L818.448 365.846L816.497 371.747L813.57 369.78V370.763L812.595 373.713Z" fill="#85A2F2" stroke="black" stroke-width="1.2" stroke-linecap="round" stroke-linejoin="round"/>
<path fill-rule="evenodd" clip-rule="evenodd" d="M610.969 289.082C585.833 289.429 535.56 289.14 535.56 289.14L533.609 370.763C533.609 370.763 586.395 372.092 612.787 371.774C640.696 371.437 696.513 368.796 696.513 368.796L694.562 308.808L692.612 307.825H689.685L687.734 304.874V302.907L684.808 300.941L682.857 298.974L684.808 296.024L685.783 294.057L687.734 293.073L686.759 290.123L684.808 289.14L682.857 290.123L677.979 287.173C677.979 287.173 633.306 288.773 610.969 289.082Z" fill="#85A2F2" stroke="black" stroke-width="1.2" stroke-linecap="round" stroke-linejoin="round"/>
<path fill-rule="evenodd" clip-rule="evenodd" d="M667.249 270.455C667.249 270.455 695.205 269.837 709.182 269.036C723.819 268.198 753.091 265.538 753.091 265.538L759.919 271.438L760.895 270.455L759.919 266.521L765.772 262.588V258.654L769.674 254.72L768.699 251.77L764.797 247.837L766.748 241.936L774.551 239.969L780.404 236.036V232.102L783.331 229.152L782.355 221.284L776.502 219.318V216.367L771.625 212.434L769.674 207.517H763.821L760.895 201.616L759.919 194.732L761.87 191.782L758.944 189.815L757.968 186.865L647.74 192.765V194.732L649.691 196.699L648.715 199.649L650.666 201.616L649.691 209.483L647.74 212.434L650.666 219.318H652.617L653.593 224.235V228.168L655.544 229.152L656.519 232.102L658.47 233.085V236.036L660.421 238.002L659.445 243.903L662.372 246.853V249.803L665.298 251.77L663.347 252.754L665.298 254.72V266.521L667.249 268.488V270.455Z" fill="#85A2F2" stroke="black" stroke-width="1.2" stroke-linecap="round" stroke-linejoin="round"/>
<path fill-rule="evenodd" clip-rule="evenodd" d="M838.933 227.185L841.859 229.152H844.786L853.565 224.235L895.51 218.334V220.301L904.29 291.107L903.314 292.09L904.29 294.057V296.024L906.241 297.007V299.957H903.314L898.437 302.908L896.486 301.924L892.584 302.908L893.559 307.825L891.608 310.775H889.657V314.709L887.706 315.692H885.756L884.78 319.626V323.559L881.854 325.526L878.927 323.559L876.001 322.576L875.025 320.609L873.074 323.559L872.099 325.526L871.123 327.493L870.148 330.443L868.197 329.46L865.271 327.493L862.344 328.476L861.369 329.46L859.418 333.393L857.467 331.427L852.589 329.46L849.663 331.427L848.687 329.46V332.41L847.712 333.393L846.737 331.427L844.786 332.41L841.859 331.427V333.393V335.36H838.933L837.957 332.41L838.933 331.427V327.493L840.884 325.526L838.933 323.559L839.908 321.593L841.859 320.609L843.81 316.675L845.761 314.709V311.758L847.712 308.808V306.841L846.737 303.891V301.924L844.786 298.974L842.835 297.007L844.786 296.024L843.81 293.074L845.761 291.107L838.933 227.185Z" fill="#85A2F2" stroke="black" stroke-width="1.2" stroke-linecap="round" stroke-linejoin="round"/>
<path fill-rule="evenodd" clip-rule="evenodd" d="M830.153 206.533L771.625 212.434L776.502 216.367V219.318L782.355 221.284L783.331 229.152L780.404 232.102V236.036L774.551 239.969L766.748 241.936L764.797 247.837L768.698 251.77L769.674 254.72L765.772 258.654V262.588L759.919 266.521L760.895 270.455L759.919 271.438L758.944 273.405L757.968 277.339L759.919 283.239L762.846 289.14L768.698 294.057L769.674 296.024L775.527 298.974L777.478 301.924V304.874L779.429 309.791L781.38 311.758L784.306 308.808H788.208L791.134 311.758L790.159 312.742V316.675L787.233 324.543V328.476L795.036 334.377L800.889 337.327H801.865L803.816 340.277L807.717 342.244V346.178L809.668 348.145V349.128L808.693 352.078V353.062L811.619 356.995V358.962L814.546 359.946V357.979L816.497 359.946L817.472 358.962L816.497 357.979L818.448 355.028L820.399 353.062H823.325L830.153 356.012H831.129L833.08 355.028L832.104 353.062L830.153 350.111L831.129 347.161L834.055 346.178L838.933 344.211V342.244L836.982 340.277L837.957 337.327L838.933 335.36L837.957 332.41L838.933 331.427V327.493L840.884 325.526L838.933 323.559L839.908 321.592L841.859 320.609L843.81 316.675L845.761 314.709V311.758L847.712 308.808V306.841L846.736 303.891V301.924L844.786 298.974L842.835 297.007L844.786 296.024L843.81 293.073L845.761 291.107L838.933 227.185L836.006 224.235L835.031 221.284V218.334L832.104 216.367L831.129 213.417L830.153 212.434V206.533Z" fill="#85A2F2" stroke="black" stroke-width="1.2" stroke-linecap="round" stroke-linejoin="round"/>
<path fill-rule="evenodd" clip-rule="evenodd" d="M348.269 223.251L354.122 155.396L349.245 148.512H347.294L345.343 152.446H339.49L338.514 151.462L329.735 150.479L327.784 153.429L320.956 151.462L319.005 154.412L315.103 150.479L313.152 142.611H310.226L307.299 139.661L308.275 135.728L304.373 127.86L302.422 119.993L300.471 116.059L292.667 121.96L288.765 118.026V112.126L291.692 111.142L290.716 103.275L292.667 102.292L296.569 90.4906H290.716V87.5403H288.765L284.863 83.6067L285.839 81.6399L279.01 72.7892L276.084 70.8223L272.182 65.9053H273.158L272.182 62.955L273.158 60.9882L271.207 56.0712L267.305 50.1707L271.207 25.5854L252.673 22.6351L241.942 90.4906L243.893 94.4242V96.3911L242.918 97.3745L243.893 103.275L249.746 108.192L250.722 113.109L245.844 119.01L244.869 120.976L240.967 126.877L239.991 129.827L236.089 133.761L231.212 139.661L230.237 145.562L234.139 146.545L236.089 148.512L234.139 150.479V153.429L232.188 157.363L224.384 206.533L285.839 215.384L348.269 223.251Z" fill="#85A2F2" stroke="black" stroke-width="1.2" stroke-linecap="round" stroke-linejoin="round"/>
<path fill-rule="evenodd" clip-rule="evenodd" d="M622.377 831L624.328 830.017L625.304 827.066L630.181 823.133L634.083 821.166L637.985 820.182L642.862 819.199L646.764 816.249L648.715 812.315L643.838 810.348L642.862 806.415H639.936V802.481L636.034 798.547L625.304 794.614L624.328 795.597L619.451 792.647L617.5 790.68L614.574 792.647L616.525 796.58L617.5 798.547L613.598 803.464L610.672 807.398L612.623 811.332L614.574 816.249L615.549 820.182L614.574 826.083L616.525 829.033H620.426L622.377 831ZM489.713 737.576L486.786 740.526L484.835 742.493V744.46L485.811 745.443L487.762 742.493L490.688 741.509V738.559L489.713 737.576ZM505.32 730.692L500.443 733.642L498.492 736.592L499.468 739.543H502.394L505.32 742.493H507.271L511.173 741.509L512.149 737.576L514.1 734.626L511.173 731.675L507.271 732.659L505.32 730.692ZM553.119 747.41L557.021 752.327V756.261L560.922 754.294L561.898 757.244L562.873 760.194H559.947L555.07 759.211L552.143 757.244V759.211L550.192 760.194L547.266 757.244L545.315 754.294L544.339 750.36L548.241 751.344L553.119 747.41ZM574.579 761.178L576.53 762.161L579.457 763.145H583.358V762.161L585.309 764.128H592.138L588.236 767.078H584.334L581.407 765.111L575.555 766.095H573.604L572.628 764.128L574.579 763.145V761.178ZM581.407 771.012H584.334L588.236 773.962L585.309 776.912L582.383 775.929V772.979L580.432 771.995L581.407 771.012ZM595.064 780.846L591.162 781.829V782.813L593.113 783.796L596.04 782.813L595.064 780.846ZM597.015 774.945L598.966 776.912V779.863L599.941 781.829L601.892 780.846H604.819L606.77 778.879L608.721 779.863L611.647 776.912V774.945L608.721 772.979L603.843 770.028L599.941 771.995L597.991 771.012L593.113 766.095L592.138 769.045L591.162 771.012L594.089 774.945H597.015Z" fill="#85A2F2" stroke="black" stroke-width="1.2" stroke-linecap="round" stroke-linejoin="round"/>
<path fill-rule="evenodd" clip-rule="evenodd" d="M957.941 397.315L901.363 405.182L918.922 460.254L922.824 469.104L925.75 473.038V476.972L928.676 477.955L925.75 480.905V485.822L923.799 487.789V492.706L927.701 497.623L926.726 507.457L929.652 510.408L930.627 513.358L932.578 516.308L933.554 520.242L991.107 516.308L996.96 515.325V517.291L998.911 520.242H1001.84L1002.81 514.341L1000.86 513.358V509.424L1002.81 507.457L1007.69 508.441H1013.54L1011.59 505.491L1013.54 501.557H1011.59L1012.57 499.59L1011.59 497.623V496.64V493.69H1013.54V496.64L1015.49 492.706L1010.62 491.723V489.756L1015.49 490.739L1014.52 488.773L1017.44 485.822L1014.52 486.806L1012.57 484.839L1016.47 483.855L1014.52 481.889L1015.49 479.922L1013.54 478.938H1017.44L1018.42 476.972L1015.49 475.988L1016.47 474.021L1020.37 475.005V473.038L1022.32 471.071L1019.4 470.088L1017.44 469.104L1016.47 470.088L1014.52 467.137V463.204L1011.59 459.27L1010.62 457.303H1007.69L1006.71 455.337L1005.74 451.403L1003.79 448.453V446.486L998.911 443.536H995.984V441.569L994.033 440.585V438.618L991.107 437.635V435.668L988.18 432.718H985.254L982.328 427.801L977.45 425.834L976.475 423.867H974.524L973.548 420.917L970.622 418.95L969.646 417.967L968.671 415.017L965.744 413.05V410.1L961.843 411.083L958.916 409.116L957.941 408.133L955.014 407.149L953.063 406.166L955.014 402.232L955.99 400.265L957.941 397.315Z" fill="#85A2F2" stroke="black" stroke-width="1.2" stroke-linecap="round" stroke-linejoin="round"/>
<path fill-rule="evenodd" clip-rule="evenodd" d="M930.627 513.358L870.148 520.242L869.172 525.159L872.099 528.109L875.025 529.092V533.026L876.001 534.993H877.952L876.001 538.926L876.976 539.91L881.854 534.009L880.878 531.059L883.805 533.026L884.78 531.059H886.731L885.756 533.026L888.682 534.009L886.731 534.993L895.51 534.009L897.461 531.059H899.412L904.29 530.076L907.216 533.026L902.339 534.009L910.142 535.976L915.995 538.926L913.069 535.976L915.995 534.009L916.971 535.976L919.897 533.026L920.873 534.993L917.946 537.943L919.897 538.926H922.824L924.775 540.893L922.824 541.877L919.897 540.893L924.775 543.844L927.701 546.794V549.744H930.627L934.529 547.777L938.431 544.827L939.407 546.794L946.235 540.893H950.137L946.235 538.926L950.137 535.976L953.063 534.993H957.941L961.843 536.96H964.769L968.671 540.893L969.646 542.86L973.548 543.844L974.524 547.777L976.475 549.744L979.401 550.727L981.352 553.678L984.278 555.644H990.131L992.082 560.562L995.009 562.528V566.462L995.984 568.429V578.263L994.033 583.18L995.984 585.147L995.009 592.031L998.911 594.981L999.886 591.047L996.96 589.08L997.935 586.13L1001.84 588.097V591.047L1003.79 588.097L1004.76 590.064L1005.74 592.031L1001.84 597.931L1000.86 601.865L1003.79 604.815L1004.76 607.765L1007.69 611.699L1009.64 614.649L1012.57 617.599H1015.49L1011.59 613.666H1014.52L1018.42 612.682L1019.4 613.666L1017.44 614.649L1018.42 621.533L1019.4 624.483L1021.35 623.5V621.533L1025.25 618.583V620.55L1023.3 622.517L1021.35 625.467L1023.3 626.45L1024.27 625.467L1026.22 629.4L1027.2 634.317L1030.13 638.251L1037.93 640.218L1040.86 642.185V644.152L1041.83 645.135L1044.76 648.085L1046.71 652.019L1051.59 653.002L1053.54 654.969L1051.59 656.936L1046.71 653.986V656.936L1048.66 658.903L1053.54 657.919L1054.51 655.953L1058.41 656.936L1061.34 653.002H1064.27L1067.19 648.085L1065.24 646.118L1067.19 639.235L1068.17 633.334V628.417V622.517L1067.19 621.533V613.666L1066.22 607.765L1064.27 605.799V603.832L1060.37 599.898H1058.41L1057.44 597.931L1060.37 598.915L1058.41 594.981L1057.44 593.998L1053.54 587.114L1049.64 581.213L1044.76 573.346L1039.88 566.462L1037.93 559.578L1039.88 558.595L1040.86 562.528H1043.78L1035 551.711L1026.22 539.91L1020.37 526.142L1019.4 524.175L1017.44 520.242L1016.47 515.325L1013.54 513.358V510.408H1015.49V508.441H1007.69L1002.81 507.457L1000.86 509.424V513.358L1002.81 514.341L1001.84 520.242H998.911L996.96 517.291V515.325L991.107 516.308L933.554 520.242L932.578 516.308L930.627 513.358Z" fill="#85A2F2" stroke="black" stroke-width="1.2" stroke-linecap="round" stroke-linejoin="round"/>
<path fill-rule="evenodd" clip-rule="evenodd" d="M1101.34 273.405L1113.04 270.455L1114.99 269.472V268.488L1114.02 266.521L1111.09 267.505L1112.07 265.538V263.571L1114.02 262.588L1112.07 261.604L1110.11 260.621L1107.19 258.654V256.687L1103.29 254.72V250.787L1097.43 245.87V242.92L1096.46 241.936V239.969L1098.41 238.002L1099.38 235.052H1095.48L1093.53 237.019L1092.56 239.969L1101.34 273.405Z" fill="#85A2F2" stroke="black" stroke-width="1.2" stroke-linecap="round" stroke-linejoin="round"/>
<path fill-rule="evenodd" clip-rule="evenodd" d="M467.277 259.638C443.563 258.537 387.288 253.737 387.288 253.737L378.509 362.896C378.509 362.896 415.601 366.107 437.561 367.221C467.301 368.729 533.609 370.763 533.609 370.763L535.56 260.621C535.56 260.621 492.987 260.831 467.277 259.638Z" fill="#85A2F2" stroke="black" stroke-width="1.2" stroke-linecap="round" stroke-linejoin="round"/>
<path fill-rule="evenodd" clip-rule="evenodd" d="M1125.72 166.213L1128.65 185.881L1130.6 187.848L1126.7 192.765L1128.65 193.749H1131.58L1136.45 187.848L1139.38 186.865L1141.33 183.915H1143.28L1148.16 181.948L1153.04 180.964L1152.06 178.998L1154.99 179.981L1156.94 178.998L1159.86 178.014L1161.81 177.031H1163.77V173.097L1159.86 158.346L1139.38 164.246L1138.4 163.263L1125.72 166.213Z" fill="#85A2F2" stroke="black" stroke-width="1.2" stroke-linecap="round" stroke-linejoin="round"/>
<path fill-rule="evenodd" clip-rule="evenodd" d="M162.929 196.699L77.0869 178.998V181.948L75.136 184.898L77.0869 186.865V195.716L73.185 203.583V205.55L72.2096 209.483L73.185 210.467L70.2586 211.45L69.2831 213.417L67.3322 214.4L64.4058 219.317V224.235L68.3077 230.135L69.2831 232.102L72.2096 238.002V246.853L69.2831 251.77L70.2586 254.72L71.2341 261.604L69.2831 262.588L76.1115 274.389L80.0134 278.322V282.256L81.9643 285.206L83.9153 289.14V291.107L80.9888 287.173V289.14L84.8907 295.04H85.8662L88.7926 297.99L90.7436 290.123L93.67 289.14L97.5719 293.073L99.5229 292.09L101.474 291.107L102.449 293.073L104.4 294.057H107.327L110.253 295.04L113.179 297.99H112.204L109.278 296.024L107.327 297.007L104.4 296.024L99.5229 294.057L97.5719 295.04L95.621 293.073L92.6945 295.04V296.024L93.67 297.99V299.957L95.621 301.924V305.858V308.808L97.5719 309.791L96.5964 310.775L93.67 308.808L90.7436 304.874V302.908V299.957H88.7926L87.8172 301.924L88.7926 303.891L87.8172 306.841L88.7926 310.775L87.8172 314.708L90.7436 320.609L93.67 323.559L97.5719 324.543L99.5229 328.476L98.5474 332.41L95.621 334.377H94.6455V342.244L95.621 344.211L98.5474 347.161L99.5229 351.095L101.474 352.078V356.012L103.425 358.962V361.912L107.327 363.879L108.302 367.813L112.204 369.78V372.73L110.253 374.697L111.229 376.663L115.13 378.63V381.581L114.155 385.514V389.448V392.398L112.204 394.365L115.13 395.348L116.106 398.299H122.934L123.91 400.265H126.836L128.787 402.232L131.714 403.216L134.64 402.232L140.493 407.149L142.444 412.066L149.272 416L151.223 416.983H157.076L160.002 420.917L159.027 425.834L160.978 426.817L162.929 425.834L165.855 426.817L169.757 431.735L175.61 438.618L178.536 441.569L180.487 447.469L181.463 452.386L180.487 456.32L181.463 458.287L183.414 460.254V463.204L238.04 467.137L239.016 466.154L241.942 467.137H242.918L243.893 465.171L244.869 463.204V459.27L240.967 458.287L239.991 456.32L240.967 453.37V447.469H243.893L245.844 443.535L246.82 439.602L247.795 435.668V433.701L249.746 431.735L250.721 429.768L254.623 427.801L257.55 424.851L252.672 419.934L251.697 414.033L249.746 410.099L248.77 408.133V405.182L148.297 276.355L162.929 196.699Z" fill="#85A2F2" stroke="black" stroke-width="1.2" stroke-linecap="round" stroke-linejoin="round"/>
<path fill-rule="evenodd" clip-rule="evenodd" d="M704.317 461.237L702.366 412.066L697.489 383.547V382.564L796.012 375.68L798.938 378.63V380.597L794.061 387.481L793.085 388.465V390.431L806.742 388.465L808.693 389.448L809.668 390.431H806.742V392.398L807.718 393.382L802.84 396.332L803.816 400.265V402.232H801.865L800.889 406.166L799.914 409.116L801.865 413.05H798.938L796.987 416.983V419.934L794.061 421.901V424.851H791.134V433.702L788.208 435.668V437.635L784.306 441.569L786.257 443.536L785.282 444.519L781.38 446.486L782.355 451.403L779.429 455.337L781.38 457.303L779.429 459.27L781.38 461.237V466.154L783.331 469.104L781.38 471.071V474.021L715.047 477.955V463.204L714.072 462.22H709.195L708.219 463.204L706.268 462.22L704.317 461.237Z" fill="#85A2F2" stroke="black" stroke-width="1.2" stroke-linecap="round" stroke-linejoin="round"/>
<path fill-rule="evenodd" clip-rule="evenodd" d="M309.293 356.403C332.365 358.895 378.509 362.896 378.509 362.896L365.828 519.258L319.005 515.325L235.114 473.038L236.089 470.088L238.04 467.137L239.016 466.154L241.942 467.137H242.918L244.869 463.204V459.27L240.967 458.287L239.991 456.32L240.967 453.37V447.469H243.893L245.844 443.535L247.795 435.668V433.701L249.746 431.735L250.722 429.768L254.624 427.801L257.55 424.851L252.673 419.934L251.697 414.033L248.771 408.133V401.249L250.722 400.265V396.332L249.746 391.415L250.722 388.464L249.746 383.547L250.722 381.581L249.746 378.63L250.722 374.697L254.624 372.73L257.55 374.697L259.501 373.713L260.476 377.647H263.403L266.329 371.746L269.256 351.095C269.256 351.095 295.947 354.961 309.293 356.403Z" fill="#85A2F2" stroke="black" stroke-width="1.2" stroke-linecap="round" stroke-linejoin="round"/>
<path fill-rule="evenodd" clip-rule="evenodd" d="M340.465 683.488L317.054 561.545L315.103 562.529L311.201 560.562L308.275 558.595H304.373L300.471 559.578L298.52 560.562H294.618L292.667 559.578H287.79L283.888 558.595L280.961 557.611L278.035 555.645L273.157 557.611L272.182 556.628L268.28 558.595L265.354 557.611V555.645L262.427 554.661L264.378 552.694L259.501 551.711L255.599 552.694H252.672L253.648 550.728L251.697 548.761L248.771 553.678L246.82 550.728L249.746 548.761L244.869 545.811L241.942 548.761L238.04 551.711H232.188L229.261 553.678L226.335 556.628L222.433 558.595L220.482 557.611L215.604 563.512L212.678 567.446L211.703 570.396L208.776 573.346H202.923L198.046 572.363L197.07 577.28L195.119 579.247L199.021 584.164L204.874 590.064L206.825 593.998L205.85 596.948L211.703 599.898H216.58L217.555 600.882L215.604 602.848V605.799H217.555H220.482L223.408 606.782V609.732H220.482L218.531 606.782L214.629 607.766L217.555 608.749L218.531 611.699L216.58 610.716L214.629 613.666L210.727 612.683L208.776 611.699L203.899 610.716L202.923 608.749L205.85 604.815L201.948 603.832L199.021 605.799H196.095L194.144 606.782L195.119 608.749L191.218 607.766L186.34 610.716L180.487 611.699L182.438 615.633L189.267 619.566L186.34 621.533L187.316 624.484L186.34 627.434L190.242 630.384L195.119 631.367L198.046 630.384L202.923 631.367L203.899 633.334L206.825 634.318L208.776 631.367L213.653 629.401L216.58 628.417L218.531 631.367L216.58 634.318H213.653L215.604 637.268L216.58 643.168L214.629 647.102L208.776 648.085L206.825 645.135L205.85 648.085L201.948 651.036H199.997L197.07 648.085L194.144 650.052L191.218 653.002V656.936L188.291 657.92L184.389 662.837V664.803L181.463 665.787L183.414 667.754L181.463 668.737L182.438 671.687L183.414 675.621L185.365 674.638L187.316 677.588L196.095 680.538V682.505L194.144 683.488L192.193 681.521H190.242L187.316 679.555L183.414 682.505L187.316 687.422L190.242 692.339L193.169 694.306L198.046 692.339L200.972 690.372L201.948 686.439V690.372L203.899 697.256L204.874 700.206L202.923 702.173L203.899 706.107L201.948 711.024L204.874 712.007L213.653 706.107L214.629 709.057L217.555 710.04L222.433 715.941L224.384 714.957L223.408 710.04L226.335 707.09V712.007L227.31 713.974L236.089 710.04L238.04 708.074L234.138 713.974L231.212 718.891L234.138 719.875L231.212 720.858V726.758V729.709L229.261 728.725L224.384 732.659L223.408 734.626L222.433 738.559L220.482 737.576L214.629 740.526L208.776 744.46L207.801 747.41L209.752 750.36L206.825 749.377L202.923 746.427L197.07 748.393L192.193 753.311L188.291 755.277L186.34 757.244L182.438 756.261L179.512 758.228L176.585 757.244L174.634 760.194L173.659 761.178L174.634 764.128L177.561 763.145L179.512 762.161L183.414 763.145L187.316 759.211H190.242L192.193 757.244H195.119L199.021 753.311L200.972 751.344L202.923 752.327L200.972 755.277L204.874 753.311V756.261L206.825 758.228L207.801 756.261L206.825 753.311L210.727 751.344L215.604 749.377L220.482 748.393L223.408 744.46L225.359 741.51L231.212 739.543L234.138 736.593L238.04 735.609L239.016 731.675L242.918 727.742L247.795 725.775L249.746 721.841L254.623 720.858L255.599 715.941L260.476 712.991L261.452 711.024L257.55 708.074L254.623 709.057L256.574 704.14L259.501 700.206H262.427L265.354 695.289L263.403 692.339L267.305 690.372L270.231 685.455L272.182 681.521H274.133L277.059 678.571H280.961L285.839 682.505L280.961 683.488L279.01 681.521L275.108 686.439H273.157L274.133 690.372L271.206 695.289V700.206L273.157 701.19L276.084 699.223L270.231 704.14V707.09L275.108 706.107L278.035 704.14L280.961 700.206L287.79 694.306L292.667 695.289L294.618 689.389L291.691 685.455L294.618 679.555L295.593 682.505L300.471 681.521L305.348 682.505L310.225 685.455L305.348 688.405H313.152L316.078 684.472V688.405L321.931 690.372L326.809 689.389L332.661 688.405H337.539L340.465 689.389L345.343 691.356L349.244 687.422L352.171 686.439V690.372L350.22 692.339L358.999 695.289L366.803 699.223L371.68 702.173L374.607 703.157L378.509 701.19L373.631 696.273L377.533 694.306L380.46 699.223L383.386 700.206L385.337 701.19L377.533 688.405L387.288 698.239L389.239 702.173C389.239 702.173 388.199 702.173 387.288 702.173C386.573 702.173 384.362 702.173 384.362 702.173L378.509 703.157L377.533 708.074L381.435 712.007L386.312 716.924L392.165 722.825L397.043 725.775L393.141 716.924L388.263 711.024L393.141 714.957L397.043 709.057L393.141 703.157L398.018 705.123L400.945 710.04L403.871 712.991L398.994 713.974L396.067 716.924L399.969 722.825L401.92 725.775L403.871 721.841L407.773 716.924L408.748 722.825L406.797 729.709L411.675 736.593L415.577 740.526L417.528 736.593L421.43 737.576L418.503 732.659L410.699 724.792V720.858L415.577 725.775L420.454 729.709L425.331 734.626V727.742L430.209 734.626L433.135 726.758L430.209 720.858L429.233 716.924H425.331L416.552 713.974H412.65L408.748 708.074L396.067 696.273L392.165 692.339L387.288 690.372L382.411 686.439L378.509 681.521L372.656 685.455V691.356L367.778 695.289L365.828 691.356L356.073 686.439L353.146 684.472V679.555L348.269 681.521L347.294 683.488H343.392H340.465ZM5.87737 727.742L3.92642 724.792L1 723.808V725.775L2.95095 726.758L5.87737 727.742ZM37.0926 756.261V758.228H39.0435L37.0926 756.261ZM31.2397 751.344L29.2888 753.311L27.3378 755.277L32.2152 754.294L31.2397 751.344ZM38.068 761.178L40.9945 765.111L41.9699 767.078L40.019 766.095L37.0926 762.161L38.068 761.178ZM46.8473 760.194H44.8964V762.161L47.8228 761.178L46.8473 760.194ZM65.3813 770.029L63.4304 768.062H62.4549L63.4304 771.012L65.3813 770.029ZM80.0135 773.962H76.1115L75.1361 771.012L72.2097 772.979L70.2587 774.946H76.1115L80.0135 773.962ZM102.449 777.896L99.5229 776.912L96.5965 775.929L97.572 772.979H93.6701L90.7437 774.946L83.9153 773.962L86.8418 775.929H92.6946L98.5475 777.896H102.449ZM122.934 775.929L121.959 777.896H124.885L122.934 775.929ZM131.714 774.946H129.763H128.787L130.738 776.912L131.714 774.946ZM146.346 770.029L143.419 771.012V772.979H140.493L138.542 775.929L135.616 777.896L141.468 775.929L143.419 773.962L148.297 772.979L146.346 770.029ZM158.051 766.095H154.15V769.045L153.174 771.995L149.272 772.979L151.223 774.946L156.1 773.962L158.051 771.012L161.953 770.029L160.002 768.062L158.051 766.095ZM166.831 764.128L164.88 766.095L162.929 765.112L163.904 768.062L166.831 767.078L170.733 769.045L172.684 767.078L167.806 766.095L166.831 764.128ZM267.305 713.974L266.329 717.908H271.206L272.182 719.874L267.305 720.858L265.354 722.825H268.28L267.305 727.742H269.256L267.305 730.692L262.427 728.725L266.329 731.675H263.403V733.642L260.476 736.592H258.525L255.599 739.543L256.574 742.493H251.697L255.599 737.576L252.672 736.592L251.697 732.659L250.722 729.709L254.623 727.742L257.55 729.709L255.599 724.792H259.501L260.476 721.841L264.378 718.891L267.305 713.974Z" fill="#85A2F2" stroke="black" stroke-width="1.2" stroke-linecap="round" stroke-linejoin="round"/>
<path fill-rule="evenodd" clip-rule="evenodd" d="M843.81 412.066L844.786 414.033L846.736 415.016V499.59L852.589 538.926H856.491L858.442 540.893H859.418V534.993L860.393 529.092L864.295 532.043L863.32 535.976L865.271 537.943L869.172 541.877L872.099 540.893L871.123 538.926H873.074L876.001 534.993L875.025 533.026V529.092L872.099 528.109L869.172 525.159L870.148 520.242L930.627 513.358L929.652 510.408L926.725 507.457L927.701 497.623L923.799 492.706V487.789L925.75 485.822V480.905L928.676 477.955L925.75 476.971V473.038L922.824 469.104L918.922 460.253L901.363 405.182L843.81 412.066Z" fill="#85A2F2" stroke="black" stroke-width="1.2" stroke-linecap="round" stroke-linejoin="round"/>
</svg>
