<svg width="168" height="168" viewBox="0 0 168 168" fill="none" xmlns="http://www.w3.org/2000/svg">
<path d="M73.3925 134.418C65.3804 135.56 57.4622 137.286 49.7011 139.581L49.6541 139.595C49.1814 139.734 48.6755 139.709 48.2188 139.524C47.7622 139.338 47.3817 139.004 47.1392 138.575C46.8967 138.146 46.8065 137.648 46.8834 137.161C46.9602 136.674 47.1995 136.228 47.5624 135.895C50.7433 132.972 53.8877 130.011 56.9955 127.01C61.7482 122.403 66.4069 117.661 70.7973 112.725C73.2556 109.961 75.6636 107.153 78.0213 104.301C80.373 101.445 82.6789 98.5509 84.9389 95.6183C85.2474 95.2191 85.6918 94.9472 86.1876 94.8541C86.6834 94.7611 87.1961 94.8534 87.6284 95.1135C88.0606 95.3737 88.3822 95.7835 88.5321 96.2652C88.6819 96.7469 88.6496 97.2669 88.4413 97.7264L88.4344 97.7405C86.1737 102.715 83.8567 107.679 81.328 112.563C78.9039 117.34 76.2043 121.972 73.2429 126.436C73.1448 126.584 73.0464 126.731 72.9477 126.879L72.8252 126.763L69.9387 124.034L69.8235 123.925C69.9531 123.824 70.0826 123.723 70.212 123.622C76.7596 118.496 82.9776 112.962 88.8286 107.053C94.7974 101.033 100.374 94.6375 105.526 87.9049C108.77 83.6343 111.712 79.1906 113.742 74.4118C114.758 72.0557 115.502 69.5908 115.957 67.0654C116.174 65.8171 116.31 64.5561 116.365 63.2903L116.376 62.3419L116.382 61.8677L116.361 61.3949L116.322 60.4488L116.23 59.5093C115.981 57.0243 115.315 54.5992 114.258 52.3364C114.121 52.0613 113.971 51.7936 113.829 51.5212L113.615 51.1135C113.539 50.9801 113.452 50.8544 113.372 50.7243L112.883 49.9478L112.338 49.2145L112.065 48.8474C111.97 48.7291 111.865 48.6191 111.765 48.5043L111.162 47.8196C110.947 47.6038 110.72 47.3982 110.5 47.1858L110.169 46.8688C110.062 46.7592 109.946 46.6581 109.824 46.5664C107.9 44.9807 105.707 43.7529 103.35 42.9412C100.909 42.113 98.3767 41.5835 95.8086 41.3641C90.6114 40.8622 85.2339 41.3113 79.9528 42.1328C74.6771 42.9399 69.5098 44.3417 64.5495 46.3114C62.0989 47.3251 59.7176 48.4989 57.4211 49.8253C55.1536 51.1768 52.9889 52.6938 50.9447 54.3639C49.9703 55.247 48.9484 56.0816 48.0481 57.0403C47.1104 57.9523 46.2276 58.919 45.4042 59.9354C43.7591 61.9705 42.3305 64.1714 41.1415 66.5026C38.2645 72.1146 36.6351 78.4983 36.8634 84.7342C36.9499 87.2255 37.2767 89.7027 37.8393 92.1313C38.2916 94.1137 38.7767 95.6458 39.1206 96.8607C39.6824 98.5989 39.3777 98.8323 38.3018 97.5845C37.9803 97.1901 37.6831 96.7764 37.4117 96.346C37.2423 96.093 37.091 95.8037 36.9163 95.498C36.7432 95.1913 36.563 94.8607 36.3995 94.4972C35.5568 92.7238 34.9355 90.8535 34.5497 88.9284C34.39 88.2135 34.2868 87.4813 34.1738 86.7427C34.0926 86.0013 34.0009 85.2525 33.9676 84.4956C33.8765 82.9683 33.8947 81.4365 34.0222 79.9119C34.1466 78.3785 34.3667 76.8544 34.681 75.3484C34.9994 73.8626 35.3987 72.3953 35.8772 70.9531C36.9877 67.6818 38.4926 64.558 40.3587 61.6507C41.2942 60.2012 42.3221 58.8134 43.436 57.4961C44.5576 56.1931 45.7475 54.9504 47.0005 53.7732C52.0249 49.0898 58.0228 45.6036 64.3226 43.1002C65.1165 42.8016 65.9007 42.4733 66.7015 42.1954L69.1097 41.377L71.5462 40.6541C72.3604 40.4211 73.1845 40.2277 74.0035 40.0124C77.2916 39.2139 80.6233 38.6069 83.9817 38.1944C85.6576 37.9944 87.3451 37.8038 89.0492 37.7227C89.4737 37.6919 89.9001 37.6757 90.3271 37.6642C90.7538 37.6522 91.1803 37.6323 91.608 37.6268C92.4646 37.6304 93.3204 37.6121 94.1804 37.6559C97.6705 37.7331 101.134 38.2872 104.474 39.3029C106.375 39.913 108.202 40.7354 109.919 41.7546C111.682 42.8028 113.281 44.1048 114.665 45.6188C117.372 48.6193 119.206 52.3037 119.968 56.2724L120.086 56.8383L120.175 57.4082C120.231 57.7883 120.296 58.1675 120.344 58.5482C120.411 59.3113 120.512 60.0731 120.524 60.8373C120.594 62.3612 120.553 63.8882 120.402 65.4062L120.269 66.5401C120.231 66.9189 120.148 67.2911 120.089 67.6668C119.974 68.4194 119.792 69.159 119.625 69.9014C119.26 71.3613 118.812 72.7993 118.284 74.2081C116.178 79.8352 112.976 84.8647 109.523 89.5297C108.658 90.6986 107.778 91.8499 106.883 92.9834L105.538 94.6825L104.17 96.3627C103.264 97.4879 102.318 98.5796 101.389 99.6858C100.438 100.773 99.5012 101.872 98.5279 102.939C94.6764 107.245 90.6117 111.355 86.3798 115.271C84.1249 117.343 81.8282 119.371 79.4894 121.358C77.7175 122.849 75.9219 124.316 74.1024 125.758C73.8165 125.984 73.53 126.21 73.2429 126.436C73.1038 126.545 72.9645 126.654 72.8252 126.763C72.6577 126.894 72.49 127.024 72.3221 127.155C71.9631 127.434 71.5162 127.575 71.062 127.554C70.6079 127.532 70.1764 127.349 69.8452 127.038C69.5141 126.726 69.3052 126.307 69.2561 125.855C69.207 125.403 69.321 124.948 69.5775 124.573L69.5831 124.565C69.702 124.388 69.8206 124.211 69.9387 124.034C70.03 123.897 70.1211 123.759 70.212 123.622C72.9612 119.459 75.4756 115.145 77.7431 110.701C77.825 110.543 77.9068 110.385 77.9884 110.227C80.3845 105.587 82.6492 100.858 84.8616 96.1004L88.0424 98.0315L87.9563 98.14C84.7328 102.246 81.4109 106.28 77.9884 110.227C75.3463 113.274 72.6442 116.268 69.8811 119.203C65.0201 124.375 59.9788 129.362 54.8423 134.233C53.2819 135.713 51.7127 137.182 50.1371 138.642L48.5937 135.982C50.6671 135.361 52.75 134.778 54.8423 134.233C55.6607 134.02 56.4804 133.813 57.3016 133.611C60.2219 132.893 63.1637 132.266 66.1162 131.694C69.0718 131.135 72.0429 130.658 75.0295 130.264C78.019 129.894 81.0199 129.596 84.0356 129.428C85.5121 129.339 86.9905 129.295 88.4686 129.296C90.9458 129.297 93.4224 129.425 95.8886 129.678L95.1903 131.945C94.3995 131.504 93.5791 131.117 92.7351 130.789L92.09 130.529L91.4322 130.291C90.9954 130.13 90.5579 129.972 90.1139 129.83C89.566 129.646 89.0174 129.468 88.4686 129.296C87.2505 128.914 86.032 128.562 84.8215 128.233C83.0659 127.754 81.3278 127.306 79.6098 126.909C77.8922 126.509 76.1978 126.135 74.5197 125.835C74.376 125.809 74.2369 125.783 74.1024 125.758C72.088 125.381 71.1161 125.109 71.2788 124.789C71.4451 124.484 72.9712 124.097 75.7543 124.232C79.2675 124.481 82.7617 124.948 86.2165 125.633C87.9702 125.985 89.7283 126.374 91.494 126.866C92.378 127.12 93.2631 127.382 94.1584 127.701C94.6016 127.842 95.0615 128.044 95.5137 128.22C95.7372 128.303 95.9729 128.416 96.2092 128.531L96.914 128.874C97.3851 129.104 97.7626 129.489 97.983 129.964C98.2034 130.439 98.2532 130.976 98.124 131.484C97.9947 131.992 97.6944 132.44 97.2735 132.752C96.8527 133.064 96.3371 133.221 95.8136 133.198L95.5856 133.187L92.8984 133.062C89.7206 132.984 86.4764 133.07 83.2168 133.284C79.9573 133.498 76.6806 133.844 73.4395 134.34C73.4252 134.366 73.4095 134.392 73.3925 134.418Z" fill="#7FA1F8"/>
<path d="M73.2429 126.436C73.1448 126.584 73.0464 126.731 72.9477 126.879L72.8252 126.763C72.6577 126.894 72.49 127.024 72.3221 127.155C71.9631 127.434 71.5162 127.575 71.062 127.554C70.6079 127.532 70.1764 127.349 69.8452 127.038C69.5141 126.726 69.3052 126.307 69.2561 125.855C69.207 125.403 69.321 124.948 69.5775 124.573L69.5831 124.565C69.702 124.388 69.8206 124.211 69.9387 124.034L69.8235 123.925C69.9531 123.824 70.0826 123.723 70.212 123.622C72.9612 119.459 75.4756 115.145 77.7431 110.701C77.825 110.543 77.9068 110.385 77.9884 110.227C75.3463 113.274 72.6442 116.268 69.8811 119.203C65.0201 124.375 59.9788 129.362 54.8423 134.233C55.6607 134.02 56.4804 133.813 57.3016 133.611C60.2219 132.893 63.1637 132.266 66.1162 131.694C69.0718 131.135 72.0429 130.658 75.0295 130.264C78.019 129.894 81.0199 129.596 84.0356 129.428C85.5121 129.339 86.9905 129.295 88.4686 129.296C87.2505 128.914 86.032 128.562 84.8215 128.233C83.0659 127.754 81.3278 127.306 79.6098 126.909C77.8922 126.509 76.1978 126.135 74.5197 125.835C74.376 125.809 74.2369 125.783 74.1024 125.758C73.8165 125.984 73.53 126.21 73.2429 126.436Z" fill="#7FA1F8"/>
</svg>
