<svg width="24" height="25" viewBox="0 0 24 25" fill="none" xmlns="http://www.w3.org/2000/svg">
<path d="M14.0059 3.125C14.0196 3.13785 14.0484 3.17246 14.082 3.25391C14.1428 3.40096 14.1943 3.64836 14.1943 4.01953V11.8447H17.9092C18.2006 11.8447 18.3952 11.8908 18.5117 11.9424C18.6218 11.9912 18.6417 12.0339 18.6436 12.0381C18.645 12.0413 18.6654 12.0839 18.6289 12.1992C18.5905 12.3204 18.4955 12.4971 18.3018 12.7158L18.2998 12.7168L11.5303 20.417L10.7305 21.3271C10.4852 21.6055 10.2821 21.7574 10.1387 21.8281C10.0563 21.8687 10.0111 21.8747 9.99316 21.875C9.9795 21.8622 9.9507 21.8276 9.91699 21.7461C9.85621 21.599 9.80469 21.3509 9.80469 20.9795V13.1553H6.08984C5.79844 13.1553 5.60378 13.1092 5.4873 13.0576C5.37853 13.0094 5.35773 12.9669 5.35547 12.9619C5.35403 12.9587 5.33344 12.9155 5.37012 12.7998C5.40856 12.6786 5.5036 12.5028 5.69727 12.2842L5.69922 12.2822L12.4688 4.58301L13.2686 3.67285C13.5139 3.39438 13.7169 3.24167 13.8604 3.1709C13.9425 3.13048 13.9879 3.12526 14.0059 3.125Z" fill="#E2FF65" stroke="#E2FF65" stroke-width="1.25"/>
</svg>
