<svg width="101" height="100" viewBox="0 0 101 100" fill="none" xmlns="http://www.w3.org/2000/svg">
<path d="M50.666 0C37.3967 0 26.6401 10.7568 26.6401 24.026C26.6401 25.1018 25.7679 25.974 24.692 25.974C11.4228 25.974 0.666016 36.7307 0.666016 50C0.666016 63.2693 11.4228 74.0261 24.692 74.0261C25.7679 74.0261 26.6401 74.8982 26.6401 75.9739C26.6401 89.2431 37.3967 100 50.666 100C63.9353 100 74.6922 89.2431 74.6922 75.9739C74.6922 74.8982 75.5642 74.0261 76.6399 74.0261C89.9091 74.0261 100.666 63.2693 100.666 50C100.666 36.7307 89.9091 25.974 76.6399 25.974C75.5642 25.974 74.6922 25.1018 74.6922 24.026C74.6922 10.7568 63.9353 0 50.666 0Z" fill="#211F20"/>
</svg>
