<svg width="101" height="100" viewBox="0 0 101 100" fill="none" xmlns="http://www.w3.org/2000/svg">
<path d="M50.668 0C37.3987 0 26.642 10.7568 26.642 24.026C26.642 25.1018 25.7698 25.974 24.6939 25.974C11.4248 25.974 0.667969 36.7307 0.667969 50C0.667969 63.2693 11.4248 74.0261 24.6939 74.0261C25.7698 74.0261 26.642 74.8982 26.642 75.9739C26.642 89.2431 37.3987 100 50.668 100C63.9372 100 74.6941 89.2431 74.6941 75.9739C74.6941 74.8982 75.5661 74.0261 76.6418 74.0261C89.9111 74.0261 100.668 63.2693 100.668 50C100.668 36.7307 89.9111 25.974 76.6418 25.974C75.5661 25.974 74.6941 25.1018 74.6941 24.026C74.6941 10.7568 63.9372 0 50.668 0Z" fill="#211F20"/>
</svg>
