<svg width="100" height="100" viewBox="0 0 100 100" fill="none" xmlns="http://www.w3.org/2000/svg">
<path fill-rule="evenodd" clip-rule="evenodd" d="M100 16.8203C100 25.1592 93.9318 32.0806 85.97 33.4101C93.9318 34.7396 100 41.6613 100 50C100 58.3387 93.9318 65.2604 85.97 66.5899C93.9318 67.9194 100 74.841 100 83.1797C100 92.4691 92.4691 100 83.1797 100C74.841 100 67.9194 93.9318 66.5899 85.97C65.2604 93.9318 58.3387 100 50 100C41.6613 100 34.7396 93.9318 33.4101 85.97C32.0806 93.9318 25.1592 100 16.8203 100C7.53069 100 0 92.4691 0 83.1797C0 74.841 6.06825 67.9194 14.0297 66.5899C6.06825 65.2604 0 58.3387 0 50C0 41.6613 6.06825 34.7396 14.0297 33.4101C6.06825 32.0806 0 25.1592 0 16.8203C0 7.53069 7.53069 0 16.8203 0C25.1592 0 32.0806 6.06825 33.4101 14.0297C34.7396 6.06825 41.6613 0 50 0C58.3387 0 65.2604 6.06825 66.5899 14.0297C67.9194 6.06825 74.841 0 83.1797 0C92.4691 0 100 7.53069 100 16.8203ZM33.4101 19.6108C32.2323 26.6647 26.6647 32.2323 19.6108 33.4101C26.6647 34.588 32.2323 40.1558 33.4101 47.2097C34.588 40.1558 40.1558 34.588 47.2097 33.4101C40.1558 32.2323 34.588 26.6647 33.4101 19.6108ZM52.7903 33.4101C59.8442 32.2323 65.412 26.6647 66.5899 19.6108C67.7677 26.6647 73.3355 32.2323 80.3894 33.4101C73.3355 34.588 67.7677 40.1558 66.5899 47.2097C65.412 40.1558 59.8442 34.588 52.7903 33.4101ZM66.5899 80.3894C67.7677 73.3355 73.3355 67.7677 80.3894 66.5899C73.3355 65.412 67.7677 59.8442 66.5899 52.7903C65.412 59.8442 59.8442 65.412 52.7903 66.5899C59.8442 67.7677 65.412 73.3355 66.5899 80.3894ZM33.4101 52.7903C34.588 59.8442 40.1558 65.412 47.2097 66.5899C40.1558 67.7677 34.588 73.3355 33.4101 80.3894C32.2323 73.3355 26.6647 67.7677 19.6108 66.5899C26.6647 65.412 32.2323 59.8442 33.4101 52.7903Z" fill="#211F20"/>
</svg>
