<svg width="20" height="20" viewBox="0 0 20 20" fill="none" xmlns="http://www.w3.org/2000/svg">
<path d="M16.2498 10.4163C16.2498 9.26634 17.1832 8.33301 18.3332 8.33301V7.49967C18.3332 4.16634 17.4998 3.33301 14.1665 3.33301H5.83317C2.49984 3.33301 1.6665 4.16634 1.6665 7.49967V7.91634C2.8165 7.91634 3.74984 8.84967 3.74984 9.99967C3.74984 11.1497 2.8165 12.083 1.6665 12.083V12.4997C1.6665 15.833 2.49984 16.6663 5.83317 16.6663H14.1665C17.4998 16.6663 18.3332 15.833 18.3332 12.4997C17.1832 12.4997 16.2498 11.5663 16.2498 10.4163Z" stroke="currentColor" stroke-width="1.25" stroke-linecap="round" stroke-linejoin="round"/>
<path d="M8.3335 3.33301L8.3335 16.6663" stroke="currentColor" stroke-width="1.25" stroke-linecap="round" stroke-linejoin="round" stroke-dasharray="5 5"/>
</svg>
